<svg viewBox="0 0 1200 1200" xmlns="http://www.w3.org/2000/svg"><path d="m1042.36 526.35c2.32 11.6-2.32 22.04-12.76 29-11.6 5.8-24.36 10.44-38.28 11.6-19.72 5.8-39.44 12.76-58 19.72-9.28 1.16-17.4 4.64-24.36 10.44-5.8 6.96-9.28 13.92-11.6 22.04-3.48 6.96-4.64 13.92-4.64 20.88-6.96 29-12.76 59.16-17.4 89.32-3.48 24.36-5.8 48.72-5.8 73.08s-1.16 47.56-2.32 71.92c-2.32 19.72-3.48 38.28-5.8 56.84l-4.64 88.16c0 8.12 1.16 17.4 3.48 26.68 0 10.44 0 19.72-2.32 30.16-4.64 10.44-10.44 11.6-18.56 4.64-11.6-9.28-20.88-20.88-30.16-32.48-3.48-6.96-3.48-15.08 1.16-22.04 4.64-5.8 8.12-11.6 8.12-19.72v-20.88c3.48-31.32 4.64-62.64 4.64-95.12-3.48-55.68-6.96-111.36-11.6-165.88 0-25.52 0-52.2 1.16-77.72 0-8.12-3.48-16.24-9.28-23.2-5.8-1.16-10.44-1.16-15.08-2.32-5.8-1.16-9.28 0-13.92 2.32-9.28 9.28-18.56 18.56-27.84 27.84-9.28 10.44-15.08 20.88-19.72 33.64-2.32 8.12-6.96 17.4-12.76 24.36-5.8 8.12-10.44 15.08-15.08 23.2-10.44 13.92-16.24 30.16-16.24 48.72 0 9.28-3.48 18.56-9.28 25.52-5.8 8.12-11.6 13.92-18.56 20.88-6.96 5.8-15.08 10.44-24.36 12.76-3.48 0-8.12-2.32-11.6-6.96-3.48-3.48-6.96-8.12-11.6-11.6-3.48-4.64-4.64-9.28-3.48-15.08q1.16 0 0-1.16l-1.16-1.16c-11.6-3.48-20.88-10.44-27.84-20.88-5.8-10.44-12.76-19.72-18.56-30.16-2.32-1.16-4.64-2.32-6.96-3.48l-82.36-4.64c-19.72 0-32.48 10.44-38.28 31.32-9.28 16.24-15.08 33.64-16.24 53.36-1.16 10.44-3.48 20.88-8.12 31.32-5.8 9.28-8.12 19.72-10.44 30.16-1.16 15.08-1.16 29-1.16 44.08 1.16 15.08 5.8 27.84 15.08 39.44 3.48 8.12 4.64 18.56 4.64 29-10.44 1.16-19.72 1.16-27.84-1.16-4.64-1.16-10.44-3.48-15.08-5.8-5.8-3.48-8.12-6.96-6.96-12.76 1.16-4.64 2.32-9.28 5.8-13.92 1.16-4.64 2.32-8.12 2.32-11.6-3.48-58-5.8-114.84-8.12-172.84-1.16-1.16-2.32-3.48-4.64-3.48-35.96 18.56-71.92 38.28-107.88 60.32-15.08 9.28-30.16 17.4-47.56 23.2-16.24 5.8-32.48 11.6-48.72 17.4-15.08 5.8-29 2.32-40.6-8.12-4.64-5.8-5.8-10.44-2.32-16.24s6.96-9.28 11.6-12.76c15.08-13.92 31.32-27.84 47.56-39.44 42.92-33.64 85.84-67.28 127.6-100.92 9.28-4.64 9.28-8.12 0-12.76-35.96-15.08-63.8-38.28-84.68-69.6s-35.96-64.96-44.08-100.92c-1.16-10.44-1.16-19.72-1.16-29-1.16-2.32-1.16-4.64 0-5.8 6.96-12.76 15.08-24.36 24.36-35.96 3.48-2.32 8.12-2.32 11.6 0 12.76 10.44 24.36 9.28 34.8-3.48l87-89.32c2.32-2.32 5.8-5.8 8.12-9.28-4.64-2.32-10.44-4.64-15.08-5.8-15.08-4.64-30.16-8.12-45.24-10.44-1.16 0-2.32 0-4.64-1.16-5.8-4.64-10.44-9.28-16.24-13.92s-10.44-9.28-11.6-16.24c0-6.96 2.32-12.76 6.96-17.4 5.8-4.64 11.6-8.12 17.4-11.6s12.76-4.64 20.88-4.64c16.24 3.48 32.48 5.8 48.72 8.12 4.64 1.16 9.28 1.16 13.92 0 10.44 1.16 15.08-3.48 13.92-13.92-1.16-17.4-2.32-35.96-3.48-54.52 0-5.8 1.16-12.76 4.64-18.56 2.32-10.44 3.48-20.88 4.64-32.48 4.64-6.96 8.12-15.08 10.44-23.2 2.32-6.96 4.64-13.92 4.64-22.04 0-2.32 1.16-3.48 2.32-4.64h3.48c3.48-3.48 6.96-6.96 9.28-10.44 3.48-3.48 6.96-4.64 10.44-5.8 13.92 6.96 26.68 16.24 35.96 25.52 15.08 15.08 25.52 31.32 32.48 51.04 4.64 9.28 5.8 18.56 5.8 27.84s0 18.56 1.16 27.84c2.32 13.92 8.12 16.24 18.56 9.28 12.76-10.44 25.52-13.92 41.76-10.44 15.08 3.48 26.68 11.6 34.8 26.68 3.48 3.48 5.8 8.12 5.8 12.76 4.64 9.28 4.64 18.56 2.32 29-8.12 6.96-18.56 11.6-30.16 13.92-5.8 3.48-10.44 6.96-15.08 9.28s-10.44 3.48-16.24 5.8c-12.76 1.16-24.36 4.64-35.96 9.28-4.64 5.8-8.12 12.76-9.28 20.88 1.16 2.32 3.48 3.48 6.96 2.32 25.52-8.12 48.72-4.64 70.76 9.28 19.72 10.44 39.44 20.88 59.16 31.32 2.32 0 4.64-1.16 6.96-2.32 39.44-76.56 89.32-145 149.64-206.48 15.08-11.6 31.32-22.04 48.72-30.16 2.32-2.32 3.48-2.32 4.64-1.16 5.8 4.64 11.6 5.8 17.4 3.48 4.64-2.32 9.28-5.8 12.76-10.44 4.64-10.44 10.44-10.44 15.08 0 9.28 9.28 17.4 18.56 27.84 26.68 24.36 24.36 35.96 53.36 32.48 88.16 3.48 15.08 3.48 30.16-1.16 44.08-5.8 15.08-11.6 27.84-18.56 40.6-4.64 5.8-10.44 11.6-17.4 16.24-26.68 25.52-52.2 51.04-77.72 78.88-9.28 10.44-16.24 23.2-24.36 35.96-3.48 3.48-8.12 5.8-13.92 9.28-1.16-1.16-2.32-2.32-4.64-3.48 1.16-3.48 2.32-5.8 3.48-9.28-2.32 2.32-5.8 4.64-8.12 5.8-9.28 4.64-17.4 9.28-25.52 11.6-9.28 2.32-18.56 2.32-26.68-2.32-9.28-4.64-15.08-1.16-18.56 6.96-3.48 16.24-4.64 32.48-5.8 48.72 2.32 6.96 5.8 13.92 11.6 19.72 9.28 8.12 19.72 8.12 30.16 0 30.16-22.04 59.16-46.4 87-70.76 17.4-17.4 34.8-33.64 52.2-49.88 10.44-9.28 22.04-11.6 34.8-8.12 47.56 4.64 87 24.36 117.16 60.32 8.12 8.12 12.76 18.56 15.08 31.32zm-693.69 222.72c8.12-1.16 11.6-5.8 12.76-12.76 1.16-8.12 1.16-15.08 0-22.04v-19.72c-1.16-4.64-2.32-8.12-3.48-12.76-3.48 1.16-6.96 3.48-11.6 6.96-19.72 12.76-38.28 25.52-56.84 40.6-26.68 18.56-53.36 38.28-78.88 56.84-2.32 2.32-4.64 4.64-6.96 6.96 3.48 0 6.96-1.16 10.44-3.48l27.84-8.12c27.84-10.44 56.84-19.72 85.84-27.84 5.8-2.32 12.76-3.48 20.88-4.64zm13.92-276.08c5.8-5.8 8.12-13.92 5.8-23.2l-6.96-71.92c-2.32-16.24-9.28-18.56-20.88-6.96-22.04 25.52-44.08 49.88-66.12 75.4-5.8 3.48-10.44 6.96-16.24 9.28-25.52 8.12-33.64 24.36-25.52 48.72 0 2.32 1.16 4.64 2.32 5.8 0 23.2 0 47.56 2.32 70.76 1.16 1.16 2.32 3.48 3.48 5.8 5.8 13.92 9.28 29 11.6 45.24 2.32 6.96 4.64 15.08 6.96 23.2 3.48 8.12 8.12 12.76 16.24 15.08 8.12 3.48 16.24 4.64 24.36 4.64 4.64 0 6.96 1.16 10.44 4.64 2.32 6.96 5.8 9.28 11.6 8.12 4.64-1.16 9.28-4.64 12.76-9.28 2.32-2.32 4.64-3.48 5.8-5.8l-8.12-2.32c-9.28-1.16-16.24-1.16-24.36-1.16l-13.92-2.32c1.16-5.8 2.32-11.6 3.48-18.56 16.24-25.52 32.48-52.2 48.72-77.72 2.32-2.32 2.32-4.64 2.32-5.8-1.16-1.16-3.48-1.16-6.96-1.16-15.08-1.16-31.32-2.32-46.4-3.48-4.64 0-9.28-1.16-11.6-5.8s-1.16-10.44 2.32-13.92c16.24-19.72 34.8-37.12 55.68-51.04 9.28-4.64 16.24-9.28 20.88-16.24zm97.44 84.68c4.64-4.64 8.12-11.6 10.44-17.4-5.8 1.16-10.44 3.48-15.08 5.8l-26.68 34.8c-1.16 2.32-1.16 5.8 0 10.44 1.16-2.32 3.48-4.64 5.8-5.8 9.28-9.28 17.4-17.4 25.52-27.84zm89.32 139.2c-5.8-10.44-12.76-19.72-20.88-29-4.64-8.12-10.44-12.76-17.4-15.08-20.88 3.48-39.44 11.6-56.84 22.04-4.64 4.64-6.96 9.28-8.12 13.92 0 5.8-1.16 11.6-2.32 16.24-1.16 13.92 4.64 18.56 17.4 16.24 18.56-3.48 37.12-8.12 55.68-12.76 1.16 1.16 2.32 2.32 2.32 3.48 8.12 0 16.24 0 23.2-1.16 4.64-1.16 6.96-2.32 9.28-4.64zm-83.52-249.4c1.16 16.24 10.44 26.68 25.52 32.48 4.64 0 6.96-1.16 8.12-2.32l11.6-42.92c-1.16-19.72-10.44-29-27.84-31.32-13.92 2.32-19.72 11.6-18.56 25.52 1.16 4.64 1.16 11.6 1.16 18.56zm160.08 141.52h-1.16v-18.56c0-8.12-1.16-15.08-3.48-22.04-4.64 4.64-9.28 8.12-13.92 12.76l-4.64 4.64c-6.96 3.48-13.92 5.8-22.04 8.12 4.64 8.12 10.44 16.24 16.24 22.04 3.48 4.64 5.8 8.12 6.96 12.76 1.16 6.96 1.16 13.92-2.32 19.72-5.8 2.32-10.44 2.32-16.24 2.32-6.96-2.32-13.92-2.32-20.88-2.32-8.12 2.32-13.92 5.8-19.72 10.44-4.64 2.32-10.44 5.8-13.92 9.28 2.32 8.12 6.96 16.24 13.92 22.04 5.8 3.48 11.6 8.12 17.4 13.92 6.96 9.28 15.08 11.6 25.52 5.8 6.96-1.16 12.76-3.48 17.4-8.12 5.8-4.64 6.96-10.44 6.96-18.56 0-11.6 1.16-22.04 4.64-31.32 3.48-15.08 6.96-29 9.28-42.92z" fill="#b30a0a"/></svg>