<svg viewBox="0 0 512 512" xmlns="http://www.w3.org/2000/svg"><path d="m256 31.72c5.12 0 10.24 1.95 14.14 5.86l184.28 184.28c7.81 7.81 7.81 20.47 0 28.28l-56.57 56.57c-7.81 7.81-20.47 7.81-28.28 0l-53.57-53.57v207.15c0 11.05-8.95 20-20 20h-80c-11.05 0-20-8.95-20-20v-207.15l-53.57 53.57c-7.81 7.81-20.47 7.81-28.28 0l-56.57-56.57c-7.81-7.81-7.81-20.47 0-28.28l184.28-184.29c3.91-3.91 9.02-5.86 14.14-5.86zm156 204.28-156-156-156 156 28.28 28.28 73.57-73.57c5.72-5.72 14.32-7.43 21.8-4.34 7.47 3.1 12.35 10.39 12.35 18.48v235.43h40v-235.43c0-8.09 4.87-15.38 12.35-18.48 7.47-3.1 16.08-1.39 21.8 4.34l73.57 73.57z"/></svg>