<svg viewBox="0 0 512 512" xmlns="http://www.w3.org/2000/svg"><path d="m414.59 434.59h-260.61c-11.05 0-20-8.95-20-20v-80c0-11.05 8.95-20 20-20h75.76s-146.47-146.47-146.47-146.47c-7.81-7.81-7.81-20.47 0-28.28l56.57-56.57c7.81-7.81 20.47-7.81 28.28 0l146.48 146.48v-75.76c0-11.05 8.95-20 20-20h80c11.05 0 20 8.95 20 20v260.62c0 5.52-2.24 10.52-5.86 14.14s-8.62 5.86-14.14 5.86zm-60-260.61v104.05c0 8.09-4.87 15.38-12.35 18.48-7.47 3.1-16.08 1.38-21.8-4.34l-166.46-166.48-28.28 28.28 166.48 166.48c5.72 5.72 7.43 14.32 4.34 21.8-3.1 7.47-10.39 12.35-18.48 12.35h-104.05v40h220.62v-220.62h-40z"/></svg>