<svg viewBox="0 0 512 512" xmlns="http://www.w3.org/2000/svg"><path d="m256 484.57c-5.12 0-10.24-1.95-14.14-5.86l-184.29-184.28c-7.81-7.81-7.81-20.47 0-28.28l56.57-56.57c7.81-7.81 20.47-7.81 28.28 0l53.57 53.57v-207.15c0-11.05 8.95-20 20-20h80c11.05 0 20 8.95 20 20v207.15l53.57-53.57c7.81-7.81 20.47-7.81 28.28 0l56.57 56.57c7.81 7.81 7.81 20.47 0 28.28l-184.28 184.28c-3.91 3.91-9.02 5.86-14.14 5.86zm-156-204.29 156 156 156-156-28.28-28.28-73.57 73.57c-5.72 5.72-14.32 7.43-21.8 4.34-7.47-3.1-12.35-10.39-12.35-18.48v-235.43h-40v235.43c0 8.09-4.87 15.38-12.35 18.48-7.47 3.1-16.08 1.39-21.8-4.34l-73.57-73.57z"/></svg>