<svg viewBox="0 0 512 512" xmlns="http://www.w3.org/2000/svg"><path d="m256 6c-138.07 0-250 111.93-250 250s111.93 250 250 250 250-111.93 250-250-111.93-250-250-250zm93.25 349c-21.12 20.16-49.28 29.76-87.04 29.76h-62.72c-21.76 0-30.4.32-43.52.96 1.92-13.76 2.56-23.68 2.56-44.16v-173.76c0-19.84-.64-29.76-2.88-44.16 12.8.64 20.8.96 43.84.96h62.4c39.36 0 68.48 9.6 89.28 29.76 23.36 22.72 35.52 56 35.52 97.92s-12.8 78.72-37.44 102.72z"/><path d="m257.72 170.99h-46.4v167.36h46.72c23.68 0 39.68-5.76 51.84-18.56 14.4-15.04 22.08-38.08 22.08-66.56s-6.72-50.24-20.48-64.32c-12.16-12.48-28.16-17.92-53.76-17.92z"/></svg>