<svg viewBox="0 0 512 512" xmlns="http://www.w3.org/2000/svg"><path d="m256 6c-138.07 0-250 111.93-250 250s111.93 250 250 250 250-111.93 250-250-111.93-250-250-250zm28.33 378.76h-82.88c-21.12 0-30.4.32-43.84.96 1.92-14.08 2.56-23.36 2.56-45.12v-173.76c0-16-.64-28.8-2.56-43.2 16 .96 19.52.96 43.52.96h79.68c50.88 0 79.68 23.04 79.68 64.32 0 20.16-6.08 34.88-18.24 45.76-6.4 6.08-12.16 8.96-24 13.44 14.72 3.84 22.72 7.68 31.04 15.04 13.44 12.16 20.16 28.48 20.16 49.92 0 46.08-30.4 71.68-85.12 71.68z"/><path d="m275.69 271.16h-63.04v69.12h63.68c24.32 0 38.4-12.8 38.4-34.88s-14.08-34.24-39.04-34.24z"/><path d="m307.37 197.88c0-18.88-11.84-29.12-33.92-29.12h-60.8v59.2h61.12c21.12 0 33.6-11.52 33.6-30.08z"/></svg>