<svg viewBox="0 0 512 512" xmlns="http://www.w3.org/2000/svg"><path d="m261.12 248.2h26.88v29.44h-26.88z"/><path d="m325.77 248.2h28.48v29.44h-28.48z"/><path d="m256 6c-138.07 0-250 111.93-250 250s111.93 250 250 250 250-111.93 250-250-111.93-250-250-250zm-83.2 387.48c-7.04 1.92-14.72 2.56-32 2.56-5.76 0-9.6 0-19.2-.64-1.6-17.28-3.2-24.96-8-41.92 10.88 1.6 22.72 2.56 29.76 2.56 11.52 0 16.32-1.92 18.56-7.04 4.16-10.24 6.08-25.92 7.68-60.48h-33.92c-8 0-13.76.32-22.4.96 5.12-29.76 9.28-73.92 9.6-107.52 7.36.96 9.92.96 24.64.96h23.68v-32.96h-28.8c-12.48 0-19.52.32-26.88 1.28v-40c7.36 1.28 15.04 1.6 29.76 1.6h40.32c11.52 0 19.2-.32 26.24-1.28-.96 9.28-.96 15.36-.96 25.6v50.88c0 10.56.32 20.48.96 32-6.4-.64-12.16-.96-22.72-.96h-28.16c0 .96-.96 12.16-3.2 33.28h31.36c10.88 0 16.32-.32 21.76-.96-.64 7.04-.64 9.28-.96 15.68-1.92 55.36-4.8 80-10.56 98.56-4.8 14.72-13.76 24-26.56 27.84zm202.25 7.36c-4.16-13.44-5.76-17.92-8.96-26.56-34.56 5.44-90.24 12.48-130.88 16.96-11.84 1.28-13.44 1.28-19.2 2.56l-6.08-43.2c5.44.32 8.64.32 12.8.32 10.24 0 41.92-1.6 65.28-3.2v-36.16h-37.12c-11.52 0-17.92.32-27.2 1.28.96-8.64 1.28-15.68 1.28-24.96v-50.24c0-8-.64-16.64-1.28-24 8 .64 14.4.96 26.56.96h37.76v-20.48c-40 2.24-62.08 3.84-66.88 4.16l-3.84-39.36c5.12.64 10.88.96 16.64.96h8c12.16-20.8 20.8-39.68 27.2-58.88l43.84 7.04q-3.84 6.72-11.2 20.8c-5.76 11.52-9.6 17.92-17.6 29.76 17.92-.64 36.8-1.92 56.96-2.88-5.76-8-9.92-13.12-21.44-26.56l32-16.32c21.76 23.04 38.4 44.8 56.64 72.96l-32.96 22.4c-5.76-10.24-8-13.76-11.84-20.16-20.48 2.24-22.08 2.24-37.76 3.52v23.04h40.96c11.84 0 17.28-.32 25.92-1.28-.96 7.36-1.28 13.44-1.28 23.04v51.52c0 10.56.32 16.96 1.28 24.64-8-.64-17.28-.96-26.56-.96h-40.32v32.96c10.24-.96 14.08-1.6 26.56-3.2-3.2-6.4-4.48-8.96-8.64-16.64l32.32-11.84c16.64 28.8 22.08 40.32 35.52 74.24z"/></svg>