<svg viewBox="0 0 512 512" xmlns="http://www.w3.org/2000/svg"><path d="m256 6c-138.07 0-250 111.93-250 250s111.93 250 250 250 250-111.93 250-250-111.93-250-250-250zm-136.08 358.92-12.48-41.28c18.88-2.24 47.04-11.52 84.8-28.48l7.04 34.24c-16.96 8.32-25.6 12.16-66.88 29.44-6.4 2.56-8.32 3.52-12.48 6.08zm127.04-124.16c-.96 48.32-2.24 72-5.44 93.76-5.12 35.2-10.24 47.68-22.72 54.08-7.36 3.84-19.84 5.76-38.08 5.76-3.2 0-15.04-.32-23.04-.64-1.28-16.32-3.2-24.64-9.28-40.32 14.4 1.92 24.64 2.88 31.36 2.88 12.8 0 16.64-2.88 19.2-14.4 3.52-15.68 6.4-50.56 7.36-88.64h-58.24c15.04 8.32 25.6 16 39.04 27.52l-27.52 26.88c-13.12-13.44-22.4-20.8-40.32-32.64l22.72-21.76h-5.76c-11.2 0-12.8 0-22.08.96 8.32-37.76 11.2-56.64 12.8-88.96 7.36.64 11.52.96 25.28.96h52.8v-21.44h-57.92c-12.8 0-19.84.32-28.16 1.6v-37.76c9.6 1.28 17.28 1.6 34.24 1.6h63.04c13.44 0 22.4-.32 29.76-1.28-.64 8.64-.96 15.68-.96 25.6v38.72c0 13.76 0 17.92.96 27.2-7.04-.64-14.4-.96-24.32-.96h-57.6c-1.92 13.76-2.24 15.36-3.2 19.84h63.04c12.16 0 17.6-.32 24-1.28-.64 7.36-.96 10.56-.96 22.72zm2.88 84.48c1.28-.32 2.24-.32 3.2-.64 18.56-2.56 49.28-13.12 85.12-30.08l7.68 33.92c-20.48 10.24-23.68 11.84-44.8 20.48-16.64 7.04-31.04 13.44-38.4 17.28zm143.05-82.24c-1.28 66.56-6.08 111.04-14.08 128.96-7.68 16.96-19.84 22.08-53.76 22.08-7.68 0-12.8 0-24-.64-1.28-15.68-3.52-26.24-8.96-40 16 2.24 24.32 2.88 32.96 2.88 12.8 0 16.32-2.88 19.52-15.68 4.16-15.04 6.08-39.36 7.36-87.36h-57.92c13.44 9.28 25.28 19.2 36.16 30.08l-29.12 26.56c-11.52-14.4-19.84-22.4-37.12-35.52l22.4-21.12h-9.92c-11.2 0-12.8 0-22.4.96 8-37.76 10.56-56.96 11.84-88.96 7.36.96 10.88.96 24 .96h55.68v-20.8h-60.48c-12.8 0-19.84.32-28.16 1.6v-38.4c9.6 1.28 17.6 1.6 34.24 1.6h65.6c13.44 0 22.4-.32 29.76-1.28-.64 9.28-.96 15.36-.96 25.6v38.72c0 13.76 0 17.92.96 27.2-7.04-.64-14.4-.96-24.32-.96h-59.52c-1.6 11.2-1.92 13.44-3.2 19.84h71.04c12.16 0 17.6-.32 23.68-1.28-.96 7.68-1.28 12.8-1.28 24.96z"/></svg>