<svg viewBox="0 0 512 512" xmlns="http://www.w3.org/2000/svg"><path d="m256 6c-138.07 0-250 111.93-250 250s111.93 250 250 250 250-111.93 250-250-111.93-250-250-250zm99.21 381c-11.84-1.6-23.68-2.24-44.48-2.24h-102.4c-21.76 0-30.72.32-43.84.96 1.92-12.8 2.56-24 2.56-44.48v-173.76c0-18.24-.64-28.8-2.56-43.84 13.12.64 21.44.96 43.52.96h99.2c17.28 0 28.16-.64 44.48-2.24v50.56c-13.44-1.6-24.32-2.24-44.48-2.24h-87.36v57.28h72.96c17.92 0 29.76-.64 44.8-2.24v49.92c-13.76-1.6-23.68-2.24-44.8-2.24h-73.28v64.96h91.52c19.84 0 30.08-.64 44.16-2.24z"/></svg>