<svg viewBox="0 0 512 512" xmlns="http://www.w3.org/2000/svg"><path d="m152.64 250.96h17.6v20.48h-17.6z"/><path d="m152.64 204.56h17.6v18.88h-17.6z"/><path d="m201.92 204.56h16.96v18.88h-16.96z"/><path d="m201.92 250.96h16.96v20.48h-16.96z"/><path d="m256 6c-138.07 0-250 111.93-250 250s111.93 250 250 250 250-111.93 250-250-111.93-250-250-250zm151.05 230.56c-11.2-1.28-18.56-1.6-29.12-1.6h-1.92v124.48c0 18.56.64 28.48 1.92 37.44h-45.12c1.6-9.28 1.92-18.56 1.92-37.44v-124.48h-25.28c-1.28 36.16-2.88 56.64-6.4 75.52-6.08 36.48-17.28 61.44-39.04 88.96-11.2-14.72-18.56-21.44-33.28-31.04 6.72-7.36 8.64-9.6 12.8-15.68-7.04-.64-11.52-.64-22.72-.64h-16v16.64c0 10.56.64 18.56 1.92 27.84h-41.6c1.28-9.92 1.92-18.56 1.92-29.76v-14.72h-27.52c-15.04 0-21.12.32-29.76 1.6v-38.08c8.64 1.28 14.72 1.6 29.76 1.6h27.52v-16.32h-14.4c-15.36 0-21.44 0-32.96.96.96-11.52 1.28-22.08 1.28-38.08v-54.4c0-16.64-.32-24.96-1.28-34.88 10.56.64 16.32.96 32.32.96h15.04v-15.68h-25.92c-14.08 0-21.12.32-30.08 1.28v-37.12c8.96 1.28 14.72 1.6 30.08 1.6h25.92v-2.56c0-9.28-.64-16.96-1.92-24.96h41.6c-1.28 8-1.92 14.72-1.92 24.96v2.56h22.4c15.04 0 20.8-.32 29.76-1.6v37.12c-10.24-1.28-12.8-1.28-29.76-1.28h-22.4v15.68h20.48c15.68 0 19.84 0 26.56-.96-.64 7.04-.96 12.48-.96 31.68v59.52c0 18.24.32 26.88.96 35.84-7.04-.64-11.52-.64-27.84-.64h-19.2v16.32h16c15.04 0 20.8-.32 29.76-1.6v24.96c14.72-29.76 18.88-65.28 18.88-164.48 0-29.76-.32-40.32-2.24-49.92 39.36-2.24 91.52-15.68 111.04-28.48l25.6 36.8c-52.16 16.64-52.8 16.96-93.76 23.68v38.72h64c15.04 0 23.36-.32 32.96-1.92z"/></svg>