<svg viewBox="0 0 512 512" xmlns="http://www.w3.org/2000/svg"><path d="m276.48 197.16h72v64.96h-72z"/><path d="m163.84 197.16h68.8v64.96h-68.8z"/><path d="m256 6c-138.07 0-250 111.93-250 250s111.93 250 250 250 250-111.93 250-250-111.93-250-250-250zm92.49 314.04v-17.92h-72v60.8c0 19.84.64 30.4 2.24 41.28h-48.32c1.6-12.16 2.24-23.04 2.24-41.28v-60.8h-68.8v17.92h-44.16c1.28-9.92 1.6-18.88 1.6-33.28v-101.76c0-13.12-.32-18.88-1.28-29.12 10.56.96 16.64 1.28 30.72 1.28h81.92v-16.32c0-17.28-.32-24.96-1.92-35.52h47.68c-1.28 9.6-1.92 17.92-1.92 33.92v17.92h84.48c15.36 0 22.4-.32 31.36-1.28-.96 8.96-1.28 15.68-1.28 29.44v101.44c0 16.32.32 24 1.6 33.28z"/></svg>