<svg viewBox="0 0 512 512" xmlns="http://www.w3.org/2000/svg"><path d="m271.2 168.07h-58.24v66.24h57.28c21.76 0 35.84-13.76 35.84-34.88s-11.84-31.36-34.88-31.36z"/><path d="m256 6c-138.07 0-250 111.93-250 250s111.93 250 250 250 250-111.93 250-250-111.93-250-250-250zm63.52 377.76c-.96-8.64-4.8-20.8-16-50.88-8.96-23.36-14.4-34.56-21.76-41.92-7.36-8-16.64-11.52-28.48-11.52h-40.32v59.2c0 20.48.64 31.36 2.56 45.12h-57.6c1.92-14.08 2.56-23.36 2.56-44.8v-172.16c0-18.56-.64-28.48-2.56-44.16 13.44.64 24.64.96 44.16.96h79.68c50.24 0 79.04 25.6 79.04 69.44 0 21.44-6.08 38.4-17.6 49.92-8.64 8.32-16.32 12.48-33.28 17.28 20.48 6.4 26.24 14.72 52.8 78.4 6.72 16.32 10.24 23.68 20.48 45.12z"/></svg>