<svg viewBox="0 0 512 512" xmlns="http://www.w3.org/2000/svg"><path d="m156 366.04v-220.08c0-3.11 1.7-5.09 4.81-5.09h50.92c2.83 0 4.53 1.13 5.94 3.39l82.32 136.92v-135.22c0-3.11 1.7-5.09 5.09-5.09h46.11c3.11 0 4.81 1.98 4.81 5.09v220.08c0 3.11-1.7 5.09-4.81 5.09h-50.64c-2.83 0-4.81-1.13-5.94-3.39l-82.6-137.48v135.78c0 3.11-1.7 5.09-4.81 5.09h-46.39c-3.11 0-4.81-1.98-4.81-5.09z"/><path d="m461 483h-410c-12.15 0-22-9.85-22-22v-410c0-12.15 9.85-22 22-22h410c12.15 0 22 9.85 22 22v410c0 12.15-9.85 22-22 22zm-388-44h366v-366h-366z"/></svg>