<svg viewBox="0 0 512 512" xmlns="http://www.w3.org/2000/svg"><path d="m480.28 256c0 5.12-1.95 10.24-5.86 14.14l-184.28 184.28c-7.81 7.81-20.47 7.81-28.28 0l-56.57-56.57c-7.81-7.81-7.81-20.47 0-28.28l53.57-53.57h-207.14c-11.05 0-20-8.95-20-20v-80c0-11.05 8.95-20 20-20h207.15l-53.57-53.57c-7.81-7.81-7.81-20.47 0-28.28l56.57-56.57c7.81-7.81 20.47-7.81 28.28 0l184.28 184.28c3.91 3.91 5.86 9.02 5.86 14.14zm-204.28 156 156-156-156-156-28.28 28.28 73.57 73.57c5.72 5.72 7.43 14.32 4.34 21.8-3.1 7.47-10.39 12.35-18.48 12.35h-235.43v40h235.43c8.09 0 15.38 4.87 18.48 12.35 3.1 7.47 1.39 16.08-4.34 21.8l-73.57 73.57z"/></svg>