<svg viewBox="0 0 512 512" xmlns="http://www.w3.org/2000/svg"><path d="m31.72 256c0-5.12 1.95-10.24 5.86-14.14l184.28-184.29c7.81-7.81 20.47-7.81 28.28 0l56.57 56.57c7.81 7.81 7.81 20.47 0 28.28l-53.57 53.57h207.15c11.05 0 20 8.95 20 20v80c0 11.05-8.95 20-20 20h-207.15l53.57 53.57c7.81 7.81 7.81 20.47 0 28.28l-56.57 56.57c-7.81 7.81-20.47 7.81-28.28 0l-184.29-184.27c-3.91-3.91-5.86-9.02-5.86-14.14zm204.28-156-156 156 156 156 28.28-28.28-73.57-73.57c-5.72-5.72-7.43-14.32-4.34-21.8 3.1-7.47 10.39-12.35 18.48-12.35h235.43v-40h-235.43c-8.09 0-15.38-4.87-18.48-12.35-3.1-7.47-1.39-16.08 4.34-21.8l73.57-73.57z"/></svg>