<svg viewBox="0 0 512 512" xmlns="http://www.w3.org/2000/svg"><path d="m83.26 83.26c3.62-3.62 8.62-5.86 14.14-5.86h260.62c11.05 0 20 8.95 20 20v80c0 11.05-8.95 20-20 20h-75.76l146.48 146.48c7.81 7.81 7.81 20.47 0 28.28l-56.57 56.57c-7.81 7.81-20.47 7.81-28.28 0l-146.48-146.48v75.76c0 11.05-8.95 20-20 20h-80c-11.05 0-20-8.95-20-20v-260.6c0-5.52 2.24-10.52 5.86-14.14zm254.76 34.15h-220.61v220.62h40s0-104.05 0-104.05c0-8.09 4.87-15.38 12.35-18.48 7.47-3.1 16.08-1.38 21.8 4.34l166.48 166.48 28.28-28.28-166.48-166.48c-5.72-5.72-7.43-14.32-4.34-21.8 3.09-7.47 10.39-12.35 18.48-12.35h104.05v-40z"/></svg>