<svg viewBox="0 0 512 512" xmlns="http://www.w3.org/2000/svg"><path d="m83.26 428.74c-3.62-3.62-5.86-8.62-5.86-14.14v-260.62c0-11.05 8.95-20 20-20h80c11.05 0 20 8.95 20 20v75.76l146.48-146.48c7.81-7.81 20.47-7.81 28.28 0l56.57 56.57c7.81 7.81 7.81 20.47 0 28.28l-146.48 146.48h75.76c11.05 0 20 8.95 20 20v80c0 11.05-8.95 20-20 20h-260.6c-5.52 0-10.52-2.24-14.14-5.86zm34.15-254.76v220.62h220.62v-40h-104.05c-8.09 0-15.38-4.87-18.48-12.35-3.1-7.47-1.38-16.08 4.34-21.8l166.48-166.48-28.28-28.28-166.48 166.48c-5.72 5.72-14.32 7.43-21.8 4.34-7.47-3.09-12.35-10.39-12.35-18.48v-104.05z"/></svg>