<svg viewBox="0 0 512 512" xmlns="http://www.w3.org/2000/svg"><path d="m428.74 83.26c3.62 3.62 5.86 8.62 5.86 14.14v260.62c0 11.05-8.95 20-20 20h-80c-11.05 0-20-8.95-20-20v-75.76l-146.48 146.48c-7.81 7.81-20.47 7.81-28.28 0l-56.57-56.57c-7.81-7.81-7.81-20.47 0-28.28l146.48-146.48h-75.76c-11.05 0-20-8.95-20-20v-80c0-11.05 8.95-20 20-20h260.62c5.52 0 10.52 2.24 14.14 5.86zm-34.15 254.76v-220.61h-220.62v40h104.05c8.09 0 15.38 4.87 18.48 12.35 3.1 7.47 1.38 16.08-4.34 21.8l-166.48 166.48 28.28 28.28 166.48-166.48c5.72-5.72 14.32-7.43 21.8-4.34 7.47 3.09 12.35 10.39 12.35 18.48v104.05h40z"/></svg>