<svg viewBox="0 0 512 512" xmlns="http://www.w3.org/2000/svg"><path d="m256 6c-138.07 0-250 111.93-250 250s111.93 250 250 250 250-111.93 250-250-111.93-250-250-250zm91.89 349.32c-18.88 22.72-49.92 34.88-88 34.88s-67.52-11.52-88.32-32.96c-23.36-24-36.16-60.8-36.16-103.04s13.76-80 39.68-104.96c20.8-19.84 49.28-30.08 83.84-30.08 40 0 71.04 13.76 91.2 40.32 9.28 12.16 14.08 22.4 18.56 39.68l-54.72 11.52c-3.2-11.52-5.76-17.6-10.56-24.32-9.6-14.08-24.96-21.12-44.8-21.12-18.24 0-33.92 6.08-45.12 17.92-14.72 15.36-22.72 40-22.72 70.72 0 56 25.92 89.92 68.8 89.92 20.16 0 36.8-7.68 46.72-21.76 5.12-7.68 7.68-14.4 9.92-28.48l55.68 8.96c-6.4 25.6-12.48 39.04-24 52.8z"/></svg>