<svg viewBox="0 0 512 512" xmlns="http://www.w3.org/2000/svg"><path d="m246.72 207.56h25.92v29.44h-25.92z"/><path d="m147.52 142.92h23.36v37.12h-23.36z"/><path d="m256 6c-138.07 0-250 111.93-250 250s111.93 250 250 250 250-111.93 250-250-111.93-250-250-250zm-46.4 123.48c6.08.96 12.16 1.28 20.16 1.28h12.16v-8.96c0-8.64-.32-14.72-1.6-22.08h39.68c-.96 7.04-1.28 12.8-1.28 22.08v8.96h10.24c9.28 0 15.68-.32 21.76-1.28v37.12c-9.92-.96-11.52-.96-20.48-.96h-62.08c-7.04 0-11.52.32-18.56.96zm191.05 254.4c-4.8 6.72-11.2 8.96-26.56 8.96-10.88 0-16.64-1.28-21.12-4.16-4.48-3.2-5.44-7.04-5.44-19.2v-2.24l.32-70.4c-9.6 42.24-23.36 72-45.44 99.52-8.32-12.8-14.08-19.84-25.92-29.76 12.16-13.76 18.24-22.4 25.92-38.08l-14.08 4.8c-2.88-21.44-5.44-32.32-10.88-47.36l23.04-7.04c4.16 10.24 6.4 16.96 9.92 30.4 9.28-27.2 15.04-63.68 16.32-100.16-12.48 0-14.72.32-23.04 1.28v41.28c0 8.96 0 10.88.32 15.04-5.12-.32-7.68-.32-16.96-.32h-11.2v95.36c0 24.32-8.64 31.04-40.32 31.04-1.6 0-3.84 0-8-.64-.32-12.8-1.6-20.16-4.16-30.08-2.24 6.4-2.56 7.04-5.12 14.72-10.24-8.96-10.56-8.96-25.92-17.28-18.56 9.28-47.36 21.44-72.32 30.08-6.4 2.24-7.04 2.56-9.92 3.84l-7.04-41.6c6.72-1.6 8.64-1.92 13.76-3.2v-87.04c0-12.16-.32-20.16-1.6-28.8h29.76c-.96 9.6-1.28 16-1.28 28.16v79.36c3.84-1.28 4.8-1.6 8.96-2.88v-122.88h-15.36c-8 0-14.4.32-23.36.96.96-9.92 1.28-17.28 1.28-32.32v-45.44c0-17.28-.32-21.76-1.28-32 8.64 1.28 15.04 1.6 27.52 1.6h32.32c14.4 0 20.8-.32 29.76-1.6-.64 8.96-.96 18.56-.96 32.96v48.96c0 16.32 0 22.08.64 27.84-6.08-.64-10.24-.96-17.92-.96v34.24h2.56c9.28 0 14.08-.32 18.88-1.28v37.44c-3.84-.64-11.52-.96-18.88-.96h-2.56v40.96c5.44-2.24 7.04-3.2 14.4-6.4l.64 19.2c5.76-19.52 8-33.28 10.56-57.92l26.24 6.72c-3.52 35.2-5.76 49.28-12.48 71.04 5.44.96 8.32 1.28 10.56 1.28 5.76 0 7.68-1.6 7.68-6.08v-86.4h-13.44c-7.36 0-10.24 0-15.68.64.64-5.12.96-10.24.96-16.64v-55.68c0-7.68-.32-12.8-.96-18.88 5.44.64 10.24.96 20.16.96h52.16c7.36 0 11.2 0 16.96-.64v-3.84c8.32.96 11.52 1.28 24.96 1.28l.32-47.36c0-8-.64-18.56-1.6-26.24h38.4c-.96 7.04-.96 8.96-.96 21.12l23.68-9.92c9.6 16.32 13.76 24.96 21.76 45.76l-27.84 12.48c-6.4-20.8-10.24-30.08-17.92-44.48q-.32 28.16-.96 48.64h17.92c13.44 0 18.24-.32 26.56-1.28v38.08c-8.64-.96-13.12-1.28-26.56-1.28h-19.2c-.96 11.52-1.28 14.4-2.24 24.64h19.84c-.96 6.4-1.28 13.44-1.28 21.76v94.08c0 4.48.64 5.76 3.2 5.76s3.84-1.6 4.48-4.8c.96-7.36 1.6-28.16 1.6-44.48 8 4.8 15.36 8.32 22.72 10.24-1.28 45.12-3.2 58.88-9.28 67.52z"/></svg>