<svg viewBox="0 0 512 512" xmlns="http://www.w3.org/2000/svg"><path d="m256 6c-138.07 0-250 111.93-250 250s111.93 250 250 250 250-111.93 250-250-111.93-250-250-250zm67.69 378.76c-2.24-13.12-5.12-24.32-8.32-33.92l-10.88-31.04h-96.64l-10.88 31.04c-5.12 14.4-7.04 23.04-8.64 33.92h-63.36c5.12-9.6 9.6-20.16 16.32-38.4l69.76-188.48c5.76-16 8.32-24.32 10.24-33.28h68.8c1.92 8.32 3.84 15.04 10.88 33.28l70.4 188.48c6.08 16.32 11.84 30.4 15.68 38.4z"/><path d="m255.84 169.4c-1.92 6.72-2.24 8.32-4.48 14.72l-30.08 90.56h69.76l-30.4-90.56c-.96-2.88-2.24-6.08-4.8-14.72z"/></svg>