<svg viewBox="0 0 512 512" xmlns="http://www.w3.org/2000/svg"><circle cx="256" cy="256" fill="#b30a0a" r="250"/><path d="m440.81 214.72.19 5.24c-.48.02-.94.51-.9 1.46.58 2.84.2 5.72-1.12 8.63-1.34 2.43-3.68 3.95-7.03 3.59-2.88-.37-5.75-.75-8.63-1.12-10.55-1.53-21.12-3.54-31.72-6.51-5.72.2-7.73-2.59-6.5-8.36-3.44-2.74-7.33-4.99-11.2-6.28-3.85-.82-6.19.22-6.52 4.52-3.37 12.52-6.74 25.05-10.57 38.06-2.9 12.51-6.27 25.03-10.11 37.57-.43 1.45-1.31 3.39-3.17 4.88-.92.99-1.34 2.43-1.29 3.86-2.5 10.11-6.49 18.84-12.89 26.7-6.38 8.34-13.28 15.74-20.66 22.68-.9 1.46-1.8 2.93-3.2 3.93-.92.99-2.31 1.99-3.23 2.98s-2.35 1.04-3.79.61c-1.45-.42-2.37.56-2.79 2.01-.43 1.45-.83 3.37-1.24 5.29-2.23 4.37-4.94 8.76-8.14 12.69-2.71 4.39-6.4 7.86-11.1 9.94-4.66 3.03-9.33 6.06-13 10-3.68 3.95-7.35 7.89-11.51 11.86-9.24 8.44-18.48 16.88-28.2 25.33-5.55 4.97-11.59 9.48-18.13 13.53-3.3 1.07-7.1 1.68-11.4 1.36-.99-.92-1.51-2.33-1.55-3.28 7.79-8.86 15.13-17.24 22.94-25.62.94-.51 1.87-1.02 2.82-1.05 1.02 1.87 2.47 2.3 3.88 1.77s2.81-1.53 3.71-2.99c19.18-24.06 34.45-50.84 45.34-79.85 10.91-28.53 18.93-57.92 23.56-88.62 2.42-12.49 4.36-24.96 6.3-37.44.36-3.35-1.12-4.73-3.96-4.15-26.6 3.33-51.65 9.95-76.07 20.83-2.83 1.05-4.19 3.01-5.06 5.43-3 23.01-.31 44.86 7.58 65.57 1.6 4.71 1.78 9.95.53 14.77-2.74 3.44-6.5 5-10.79 5.15-12.05-3.39-24.15-8.21-35.77-13.04-8.73-3.98-16.56-9.43-23.45-15.39-5.92-5.51-11.37-11.05-16.37-17.55-1.53-2.81-3.45-3.22-6.72-1.19-11.15 8.51-22.77 17.03-34.43 24.6-6.09 3.08-12.73 4.27-19.42 4.03-5.28-.77-6.33-3.59-3.64-8.46 7.08-15.52 18.57-27.85 33.53-36.5 7.47-4.56 14.94-9.12 22.43-13.2 3.76-1.57 5.09-4.47 4.44-9.22-.92-12.37-.9-25.25.09-37.69 1.46-12.46 5.81-24.54 12.56-35.75 4.56-5.89 9.63-10.84 14.7-15.79 4.65-3.5 9.29-7.01 13.96-10.04 1.87-1.02 4.27-.63 6.21.26 10.31 8.22 19.21 16.97 27.66 26.69 3.51 4.65 5.61 10.3 6.79 16.46 1.7 7.57 3.42 15.62 4.66 23.69.12 3.34 1.6 4.71 4.9 3.64 20.34-5.02 40.65-10.51 60.96-16.48 3.32-.6 6.18-.7 9.51-.82 1.91-.07 4.29-.15 6.18-.7 2.35-1.04 3.73-2.52 3.64-4.9.39-2.4.32-4.31.24-6.69 1.7-19.14 3.39-38.76 5.1-57.91-.71-6.65-1.9-13.29-3.57-19.91-1.73-8.53 1.38-14.84 8.87-18.92 1.89-.54 2.82-1.05 3.74-2.04 2.62-6.77 7.23-11.23 14.31-13.39.92-.99 2.35-1.04 3.33-.12 8.71 3.51 16.52 8.48 23.87 13.94 7.37 5.94 12.88 13.38 16.54 22.31 4.17 9.87 4.54 20.35 2.05 30.94-2.83 14.41-6.15 28.37-9.43 43.27-1.29 3.86-.26 6.21 4.08 7.49 4.83 1.74 10.11 2.5 14.87 2.33 5.24-.19 10.5.1 15.76.39 15.86 3.25 27.62 11.9 34.35 26.93l2.04 3.74z" fill="#eee7d6"/></svg>