<svg xmlns="http://www.w3.org/2000/svg" xmlns:xlink="http://www.w3.org/1999/xlink"><symbol viewBox="0 0 512 512" id="arrow-1" xmlns="http://www.w3.org/2000/svg"><path d="M83.26 428.74a19.938 19.938 0 0 1-5.86-14.14V153.98c0-11.05 8.95-20 20-20h80c11.05 0 20 8.95 20 20v75.76L343.88 83.26c7.81-7.81 20.47-7.81 28.28 0l56.57 56.57c7.81 7.81 7.81 20.47 0 28.28L282.25 314.59h75.76c11.05 0 20 8.95 20 20v80c0 11.05-8.95 20-20 20H97.41c-5.52 0-10.52-2.24-14.14-5.86zm34.15-254.76V394.6h220.62v-40H233.98a20 20 0 0 1-18.48-12.35 20.001 20.001 0 0 1 4.34-21.8l166.48-166.48-28.28-28.28-166.48 166.48a20.016 20.016 0 0 1-21.8 4.34 20.005 20.005 0 0 1-12.35-18.48V173.98z"/></symbol><symbol viewBox="0 0 512 512" id="arrow-2" xmlns="http://www.w3.org/2000/svg"><path d="M256 484.57c-5.12 0-10.24-1.95-14.14-5.86L57.57 294.43c-7.81-7.81-7.81-20.47 0-28.28l56.57-56.57c7.81-7.81 20.47-7.81 28.28 0l53.57 53.57V56c0-11.05 8.95-20 20-20h80c11.05 0 20 8.95 20 20v207.15l53.57-53.57c7.81-7.81 20.47-7.81 28.28 0l56.57 56.57c7.81 7.81 7.81 20.47 0 28.28L270.13 478.71a19.92 19.92 0 0 1-14.14 5.86zM100 280.28l156 156 156-156L383.72 252l-73.57 73.57a20.016 20.016 0 0 1-21.8 4.34A20.016 20.016 0 0 1 276 311.43V76h-40v235.43a20 20 0 0 1-12.35 18.48 19.983 19.983 0 0 1-21.8-4.34L128.28 252z"/></symbol><symbol viewBox="0 0 512 512" id="arrow-3" xmlns="http://www.w3.org/2000/svg"><path d="M414.59 434.59H153.98c-11.05 0-20-8.95-20-20v-80c0-11.05 8.95-20 20-20h75.76L83.27 168.12c-7.81-7.81-7.81-20.47 0-28.28l56.57-56.57c7.81-7.81 20.47-7.81 28.28 0L314.6 229.75v-75.76c0-11.05 8.95-20 20-20h80c11.05 0 20 8.95 20 20v260.62c0 5.52-2.24 10.52-5.86 14.14s-8.62 5.86-14.14 5.86zm-60-260.61v104.05a20 20 0 0 1-12.35 18.48 20.001 20.001 0 0 1-21.8-4.34L153.98 125.69l-28.28 28.28 166.48 166.48a20.016 20.016 0 0 1 4.34 21.8 20.016 20.016 0 0 1-18.48 12.35H173.99v40h220.62V173.98h-40z"/></symbol><symbol viewBox="0 0 512 512" id="arrow-4" xmlns="http://www.w3.org/2000/svg"><path d="M31.72 256c0-5.12 1.95-10.24 5.86-14.14L221.86 57.57c7.81-7.81 20.47-7.81 28.28 0l56.57 56.57c7.81 7.81 7.81 20.47 0 28.28l-53.57 53.57h207.15c11.05 0 20 8.95 20 20v80c0 11.05-8.95 20-20 20H253.14l53.57 53.57c7.81 7.81 7.81 20.47 0 28.28l-56.57 56.57c-7.81 7.81-20.47 7.81-28.28 0L37.57 270.14A19.92 19.92 0 0 1 31.71 256zM236 100 80 256l156 156 28.28-28.28-73.57-73.57a20.016 20.016 0 0 1-4.34-21.8A20.016 20.016 0 0 1 204.85 276h235.43v-40H204.85a20 20 0 0 1-18.48-12.35 19.983 19.983 0 0 1 4.34-21.8l73.57-73.57z"/></symbol><symbol viewBox="0 0 512 512" id="arrow-6" xmlns="http://www.w3.org/2000/svg"><path d="M480.28 256c0 5.12-1.95 10.24-5.86 14.14L290.14 454.42c-7.81 7.81-20.47 7.81-28.28 0l-56.57-56.57c-7.81-7.81-7.81-20.47 0-28.28L258.86 316H51.72c-11.05 0-20-8.95-20-20v-80c0-11.05 8.95-20 20-20h207.15l-53.57-53.57c-7.81-7.81-7.81-20.47 0-28.28l56.57-56.57c7.81-7.81 20.47-7.81 28.28 0l184.28 184.28a19.92 19.92 0 0 1 5.86 14.14zM276 412l156-156-156-156-28.28 28.28 73.57 73.57a20.016 20.016 0 0 1 4.34 21.8A20.016 20.016 0 0 1 307.15 236H71.72v40h235.43a20 20 0 0 1 18.48 12.35c3.1 7.47 1.39 16.08-4.34 21.8l-73.57 73.57z"/></symbol><symbol viewBox="0 0 512 512" id="arrow-7" xmlns="http://www.w3.org/2000/svg"><path d="M83.26 83.26c3.62-3.62 8.62-5.86 14.14-5.86h260.62c11.05 0 20 8.95 20 20v80c0 11.05-8.95 20-20 20h-75.76l146.48 146.48c7.81 7.81 7.81 20.47 0 28.28l-56.57 56.57c-7.81 7.81-20.47 7.81-28.28 0L197.41 282.25v75.76c0 11.05-8.95 20-20 20h-80c-11.05 0-20-8.95-20-20V97.41c0-5.52 2.24-10.52 5.86-14.14zm254.76 34.15H117.41v220.62h40V233.98a20 20 0 0 1 12.35-18.48c7.47-3.1 16.08-1.38 21.8 4.34l166.48 166.48 28.28-28.28-166.48-166.48a20.016 20.016 0 0 1-4.34-21.8 20.005 20.005 0 0 1 18.48-12.35h104.05v-40z"/></symbol><symbol viewBox="0 0 512 512" id="arrow-8" xmlns="http://www.w3.org/2000/svg"><path d="M256 31.72c5.12 0 10.24 1.95 14.14 5.86l184.28 184.28c7.81 7.81 7.81 20.47 0 28.28l-56.57 56.57c-7.81 7.81-20.47 7.81-28.28 0L316 253.14v207.15c0 11.05-8.95 20-20 20h-80c-11.05 0-20-8.95-20-20V253.14l-53.57 53.57c-7.81 7.81-20.47 7.81-28.28 0l-56.57-56.57c-7.81-7.81-7.81-20.47 0-28.28L241.86 37.57A19.92 19.92 0 0 1 256 31.71zM412 236 256 80 100 236l28.28 28.28 73.57-73.57a20.016 20.016 0 0 1 21.8-4.34A20.016 20.016 0 0 1 236 204.85v235.43h40V204.85a20 20 0 0 1 12.35-18.48c7.47-3.1 16.08-1.39 21.8 4.34l73.57 73.57z"/></symbol><symbol viewBox="0 0 512 512" id="arrow-9" xmlns="http://www.w3.org/2000/svg"><path d="M428.74 83.26c3.62 3.62 5.86 8.62 5.86 14.14v260.62c0 11.05-8.95 20-20 20h-80c-11.05 0-20-8.95-20-20v-75.76L168.12 428.74c-7.81 7.81-20.47 7.81-28.28 0l-56.57-56.57c-7.81-7.81-7.81-20.47 0-28.28l146.48-146.48h-75.76c-11.05 0-20-8.95-20-20v-80c0-11.05 8.95-20 20-20h260.62c5.52 0 10.52 2.24 14.14 5.86zm-34.15 254.76V117.41H173.97v40h104.05a20 20 0 0 1 18.48 12.35c3.1 7.47 1.38 16.08-4.34 21.8L125.68 358.04l28.28 28.28 166.48-166.48a20.016 20.016 0 0 1 21.8-4.34 20.005 20.005 0 0 1 12.35 18.48v104.05h40z"/></symbol><symbol viewBox="0 0 512 512" id="button-a" xmlns="http://www.w3.org/2000/svg"><path d="M256 6C117.93 6 6 117.93 6 256s111.93 250 250 250 250-111.93 250-250S394.07 6 256 6zm67.69 378.76c-2.24-13.12-5.12-24.32-8.32-33.92l-10.88-31.04h-96.64l-10.88 31.04c-5.12 14.4-7.04 23.04-8.64 33.92h-63.36c5.12-9.6 9.6-20.16 16.32-38.4l69.76-188.48c5.76-16 8.32-24.32 10.24-33.28h68.8c1.92 8.32 3.84 15.04 10.88 33.28l70.4 188.48c6.08 16.32 11.84 30.4 15.68 38.4z"/><path d="M255.84 169.4c-1.92 6.72-2.24 8.32-4.48 14.72l-30.08 90.56h69.76l-30.4-90.56c-.96-2.88-2.24-6.08-4.8-14.72z"/></symbol><symbol viewBox="0 0 512 512" id="button-b" xmlns="http://www.w3.org/2000/svg"><path d="M256 6C117.93 6 6 117.93 6 256s111.93 250 250 250 250-111.93 250-250S394.07 6 256 6zm28.33 378.76h-82.88c-21.12 0-30.4.32-43.84.96 1.92-14.08 2.56-23.36 2.56-45.12V166.84c0-16-.64-28.8-2.56-43.2 16 .96 19.52.96 43.52.96h79.68c50.88 0 79.68 23.04 79.68 64.32 0 20.16-6.08 34.88-18.24 45.76-6.4 6.08-12.16 8.96-24 13.44 14.72 3.84 22.72 7.68 31.04 15.04 13.44 12.16 20.16 28.48 20.16 49.92 0 46.08-30.4 71.68-85.12 71.68z"/><path d="M275.69 271.16h-63.04v69.12h63.68c24.32 0 38.4-12.8 38.4-34.88s-14.08-34.24-39.04-34.24zM307.37 197.88c0-18.88-11.84-29.12-33.92-29.12h-60.8v59.2h61.12c21.12 0 33.6-11.52 33.6-30.08z"/></symbol><symbol viewBox="0 0 512 512" id="button-c" xmlns="http://www.w3.org/2000/svg"><path d="M256 6C117.93 6 6 117.93 6 256s111.93 250 250 250 250-111.93 250-250S394.07 6 256 6zm91.89 349.32c-18.88 22.72-49.92 34.88-88 34.88s-67.52-11.52-88.32-32.96c-23.36-24-36.16-60.8-36.16-103.04s13.76-80 39.68-104.96c20.8-19.84 49.28-30.08 83.84-30.08 40 0 71.04 13.76 91.2 40.32 9.28 12.16 14.08 22.4 18.56 39.68l-54.72 11.52c-3.2-11.52-5.76-17.6-10.56-24.32-9.6-14.08-24.96-21.12-44.8-21.12-18.24 0-33.92 6.08-45.12 17.92-14.72 15.36-22.72 40-22.72 70.72 0 56 25.92 89.92 68.8 89.92 20.16 0 36.8-7.68 46.72-21.76 5.12-7.68 7.68-14.4 9.92-28.48l55.68 8.96c-6.4 25.6-12.48 39.04-24 52.8z"/></symbol><symbol viewBox="0 0 512 512" id="button-d" xmlns="http://www.w3.org/2000/svg"><path d="M256 6C117.93 6 6 117.93 6 256s111.93 250 250 250 250-111.93 250-250S394.07 6 256 6zm93.25 349c-21.12 20.16-49.28 29.76-87.04 29.76h-62.72c-21.76 0-30.4.32-43.52.96 1.92-13.76 2.56-23.68 2.56-44.16V167.8c0-19.84-.64-29.76-2.88-44.16 12.8.64 20.8.96 43.84.96h62.4c39.36 0 68.48 9.6 89.28 29.76 23.36 22.72 35.52 56 35.52 97.92S373.89 331 349.25 355z"/><path d="M257.72 170.99h-46.4v167.36h46.72c23.68 0 39.68-5.76 51.84-18.56 14.4-15.04 22.08-38.08 22.08-66.56s-6.72-50.24-20.48-64.32c-12.16-12.48-28.16-17.92-53.76-17.92z"/></symbol><symbol viewBox="0 0 512 512" id="button-zan" xmlns="http://www.w3.org/2000/svg"><path d="M152.64 250.96h17.6v20.48h-17.6zM152.64 204.56h17.6v18.88h-17.6zM201.92 204.56h16.96v18.88h-16.96zM201.92 250.96h16.96v20.48h-16.96z"/><path d="M256 6C117.93 6 6 117.93 6 256s111.93 250 250 250 250-111.93 250-250S394.07 6 256 6zm151.05 230.56c-11.2-1.28-18.56-1.6-29.12-1.6h-1.92v124.48c0 18.56.64 28.48 1.92 37.44h-45.12c1.6-9.28 1.92-18.56 1.92-37.44V234.96h-25.28c-1.28 36.16-2.88 56.64-6.4 75.52-6.08 36.48-17.28 61.44-39.04 88.96-11.2-14.72-18.56-21.44-33.28-31.04 6.72-7.36 8.64-9.6 12.8-15.68-7.04-.64-11.52-.64-22.72-.64h-16v16.64c0 10.56.64 18.56 1.92 27.84h-41.6c1.28-9.92 1.92-18.56 1.92-29.76v-14.72h-27.52c-15.04 0-21.12.32-29.76 1.6V315.6c8.64 1.28 14.72 1.6 29.76 1.6h27.52v-16.32h-14.4c-15.36 0-21.44 0-32.96.96.96-11.52 1.28-22.08 1.28-38.08v-54.4c0-16.64-.32-24.96-1.28-34.88 10.56.64 16.32.96 32.32.96h15.04v-15.68h-25.92c-14.08 0-21.12.32-30.08 1.28v-37.12c8.96 1.28 14.72 1.6 30.08 1.6h25.92v-2.56c0-9.28-.64-16.96-1.92-24.96h41.6c-1.28 8-1.92 14.72-1.92 24.96v2.56h22.4c15.04 0 20.8-.32 29.76-1.6v37.12c-10.24-1.28-12.8-1.28-29.76-1.28h-22.4v15.68h20.48c15.68 0 19.84 0 26.56-.96-.64 7.04-.96 12.48-.96 31.68v59.52c0 18.24.32 26.88.96 35.84-7.04-.64-11.52-.64-27.84-.64h-19.2v16.32h16c15.04 0 20.8-.32 29.76-1.6v24.96c14.72-29.76 18.88-65.28 18.88-164.48 0-29.76-.32-40.32-2.24-49.92 39.36-2.24 91.52-15.68 111.04-28.48l25.6 36.8c-52.16 16.64-52.8 16.96-93.76 23.68v38.72h64c15.04 0 23.36-.32 32.96-1.92z"/></symbol></svg>