<svg viewBox="0 0 1200 1200" xmlns="http://www.w3.org/2000/svg"><g fill="#b30a0a"><path d="m715.46 328.09c-4.46 8.02-11.58 12.47-20.49 13.36-12.47.89-24.95 0-36.53-2.67-13.36-2.67-26.73-5.35-40.09-8.02-6.24-.89-11.58 0-16.93 1.78-8.91 3.56-17.82 4.45-26.73 1.78-12.47-.89-24.06.89-35.64 3.56-4.46 1.78-6.24.89-7.13-3.56-.89-.89-2.67-.89-4.46-.89-24.06 2.67-45.44 10.69-65.04 23.16s-38.31 26.73-55.24 42.77c-1.78 3.56-.89 7.13.89 9.8 10.69 14.25 20.49 28.51 29.4 42.77 9.8 15.15 16.93 30.29 21.38 47.22 3.56 12.47 5.35 24.95 4.45 38.31-.89 13.37-4.45 24.95-12.47 36.53-18.71 26.73-39.2 52.57-60.59 77.51-9.8 9.8-22.27 17.82-35.64 24.06-13.37 7.13-25.84 16.93-36.53 27.62-11.58 11.58-21.38 22.27-31.18 33.86-5.35 3.56-10.69 6.24-16.04 7.13-6.24.89-11.58.89-17.82 0-8.02-1.78-14.25 0-20.49 4.46-28.51 18.71-56.13 39.2-84.64 58.8l-74.84 49c-1.78.89-4.46 1.78-7.13 2.67 0-2.67.89-5.35 2.67-8.02 1.78-1.78 4.46-3.56 7.13-5.35 16.04-10.69 32.07-21.38 47.22-32.07 16.04-10.69 31.18-23.17 45.44-36.53 36.53-32.07 69.5-67.71 98.9-106.92 21.38-32.08 38.31-66.82 51.68-104.24 3.56-12.47 4.46-24.95 4.46-36.53 0-12.47-.89-24.95-.89-36.53-2.67-4.46-5.35-7.13-9.8-9.8-3.56-2.67-7.13-4.46-9.8-8.02-5.35-5.35-10.69-11.58-14.26-18.71-1.78-1.78-1.78-2.67-1.78-4.45-7.13-5.35-9.8-11.58-8.02-18.71s5.35-13.36 10.69-16.93c16.04-13.37 32.97-24.95 50.79-34.75 6.24-2.67 11.58-2.67 17.82-.89 12.47 7.13 24.95 5.35 36.53-4.46 26.73-20.49 52.57-44.55 75.73-70.39s41.88-54.35 57.02-86.42c4.46-8.91 1.78-13.37-8.02-14.26-20.49-7.13-40.98-12.47-61.48-17.82-16.04-2.67-32.07-.89-46.33 6.24s-27.62 15.15-40.09 24.95c-14.25 9.8-27.62 21.38-40.09 32.96-9.8 12.47-20.49 24.95-30.29 37.42-3.56 7.13-9.8 13.37-16.04 18.71-13.36 15.15-26.73 30.29-38.31 46.33-15.15 18.71-33.86 32.96-56.13 41.88-20.49 8.91-40.98 12.47-62.37 11.58-1.78 0-3.56-.89-4.45-1.78-18.71-7.13-37.42-16.04-56.13-24.95s-34.75-21.38-46.33-38.31c-1.78-2.67-1.78-4.45 0-7.13 8.91-17.82 21.38-33.86 36.53-48.11 15.15-13.37 32.97-23.17 52.57-29.4 19.6-8.02 39.2-17.82 57.02-29.4 9.8-4.45 20.49-8.91 29.4-14.25 4.45-3.56 8.91-8.02 14.25-12.47 11.58-7.13 23.17-13.36 35.64-18.71 41.88-16.04 83.75-31.18 126.52-44.55 34.75-9.8 68.6-17.82 102.46-24.06 34.75 4.46 68.6 8.02 103.35 13.36 21.38 4.46 38.31 15.15 51.68 32.08 23.17 20.49 42.77 42.77 60.58 67.71 12.47 24.06 21.38 49 27.62 75.73 1.78 8.91 0 16.93-3.56 24.95z"/><path d="m707.46 1105.61c-9.44-3.83-18.11-8.29-26.7-13.44-16.34-11.61-32.53-24.62-47.32-37.47-7.75-6.46-14.72-13.55-21.7-20.64.15-1.39-.47-2.16-1.17-2.24l-5.56-.6c-2.09-.23-3.33-1.77-3.18-3.16 2.39-2.56 4.08-5.19 5.69-7.13 3.16-3.18 6.39-7.05 8.93-11 2.61-4.64 2.37-8.89-.66-13.44-3.1-3.85-5.51-7.63-8.69-10.79-24.5-27.27-53.08-49.35-86.35-67.02-11.38-5.45-23.52-10.28-35.19-12.95-2.78-.3-5.02.87-5.94 2.88-11.71 10.7-22.57 20.08-34.13 29.39-10.86 9.38-23.74 17.84-37.23 25.54l-39.41 19.67c-10.64 7.3-21.35 15.29-31.37 23.35-5.24 2.95-10.49 5.9-15.11 9.63-3.93 3.8-8.55 7.52-13.1 10.55-7.93 8.29-15.58 7.47-22.26-2.4-2.8-6.64-7-13.42-11.88-20.28-4.49-4-4.66-8.95-.66-13.44 11.71-10.7 23.34-20.7 34.9-30.01 1.32.85 2.63 1.69 3.25 2.46 3.18 3.16 6.5 4.92 9.98 5.3 35.83-5.99 68.23-19.38 97.91-40.1 39.7-28.79 75.52-60.81 107-98.22 41.42-44.79 76.96-93.73 107.23-146.05 1-2.71 1.99-5.41 2.91-7.43.92-2.01 1.22-4.79.75-6.96-4.49-4-9.91-5.99-16.94-6.05-2.09-.22-4.94.17-7.73-.13-3.48-.38-4.72-1.92-5.81-4.85-.4-2.86.6-5.56 2.22-7.5 1.69-2.63 2.61-4.64 2.22-7.5-.54-1.47-1.86-2.31-3.95-2.54-7.95 1.96-15.98 4.61-24 7.26-13.96 5.53-28.01 11.75-40.88 20.22-13.57 8.39-26.52 17.54-38.15 27.55-3.01 1.79-4.62 3.72-6.31 6.36l-.75 6.96 4.47-2.33c17.27-10.1 35.39-21.51 52.81-33 3.48.38 6.34-.02 9.19-.42-1.62 1.94-3.23 3.87-4.85 5.81-28.44 22.26-56.95 45.22-85.54 68.88-10.02 8.07-19.41 16.9-28.12 25.82-2.54 3.95-4.38 7.97-6.22 12-.3 2.78-1.3 5.49-2.99 8.12-6.22 11.99-12.36 23.29-18.58 35.29-4.45 8.67-11.86 12.09-21.52 10.34-16.62-2.5-32.17-8.4-45.1-18.94-13.71-9.92-25.18-21.01-34.33-33.96-.79-5.71.58-11.9 3.96-17.16 6.69-9.83 14.62-18.12 22.48-25.72 49.69-43.19 102.96-80.36 160.64-112.84 47.42-28.66 98.27-49.91 151.84-63.83 5.79-1.49 10.66-.96 15.23 2.35 13.16 8.46 24.01 18.77 33.94 31.1 9.31 11.56 17.77 24.43 25.46 37.93 8.93 15.04 12.7 32.33 10.82 49.72-.6 5.56-3.91 10.13-9.85 13.01-6.71 3.5-13.96 5.53-21.62 4.7-14.76-.18-26.49 4.18-36.11 15.1-23.02 24.25-45.42 49.28-67.83 74.3-18.4 20.53-37.57 41.68-57.28 61.37-1.54 1.24-2.46 3.25-3.31 4.57-.23 2.09 1.09 2.93 3.87 3.23 26.23 11.27 49.99 25.8 71.99 43.65 21.92 18.55 40.84 38.88 58.06 61.85 17.3 22.27 32.29 46.41 45.66 72.48 6.08 15.43 9.29 31.26 8.96 47.41-.01 19.7-8.96 24.36-26.99 15.38z"/><path d="m1161.71 768.16c-4.17 7.65-10.43 13.21-19.46 15.29-7.65 3.47-13.9 8.34-19.46 14.6-14.6 15.99-28.5 31.28-42.4 47.26-13.9 15.29-29.19 30.58-44.48 45.87-14.6 13.21-30.58 23.63-47.96 32.67s-34.75 15.99-52.82 22.24c-34.75 10.43-70.2 19.46-105.65 27.8-9.04 3.48-18.07 6.95-27.8 10.43-2.78 1.39-6.25 1.39-9.73 1.39-11.82 2.09-23.63 3.48-36.14 4.87-2.08.69-4.87.69-7.65 0-3.48 0-4.87-2.09-6.26-4.87-1.39-5.56 0-10.43 4.17-15.29 6.25-4.87 11.82-9.73 18.07-14.6 5.56-5.56 12.51-9.04 19.46-10.43 4.17-1.39 7.65-3.48 11.12-6.26 2.08-.7 4.17-2.08 6.26-4.87-.7 2.78-1.39 5.56-2.09 7.65 2.78 2.78 5.56 4.87 9.04 6.26 12.51-1.39 24.33-2.78 35.45-4.87 28.5-6.26 54.21-17.38 77.85-34.06 23.63-15.99 44.48-35.45 62.55-57.69 23.63-27.8 41.7-59.08 54.21-93.83 3.48-11.82 6.26-22.94 8.34-34.75 1.39-7.65-1.39-11.82-8.34-12.51-14.6-3.48-29.89-6.26-44.48-8.34-11.82.7-23.63 2.08-36.14 4.17-11.82 2.08-22.24 6.95-31.97 14.6-8.34 5.56-17.38 9.73-27.11 12.51-29.19 13.9-55.6 32.67-79.24 55.6-10.43 9.73-20.16 19.46-29.89 28.5-10.43 9.73-20.85 18.07-33.36 24.33-3.48 2.09-6.26 3.48-9.73 3.48-3.48.7-6.95 1.39-10.43 1.39-26.41 4.87-45.18-4.87-56.3-29.19-1.39-4.17 0-7.65 2.08-10.43 9.73-11.82 18.77-22.24 28.5-32.67 16.68-18.07 33.36-34.75 50.04-51.43 1.39-1.39 3.48-2.78 5.56-4.17-.7 2.09-1.39 4.17-1.39 6.26-4.17 9.73-7.65 18.77-9.73 28.5-.69 4.17.7 5.56 5.56 4.17 17.38-9.04 35.45-18.77 54.21-27.8 6.95-2.78 13.21-5.56 19.46-8.34 5.56-4.17 11.12-7.65 16.68-11.12 1.39-2.09 3.47-3.48 4.87-4.17 21.55-8.34 43.09-15.29 63.94-22.24 4.87-2.08 10.43-4.17 15.99-5.56 6.95-2.78 14.6-5.56 21.55-8.34 17.38-1.39 34.75-2.78 52.13-3.48 28.5-.69 54.91 3.48 79.93 11.82 35.45 9.04 59.77 30.58 74.37 63.94 3.48 9.04 3.48 17.38-1.39 25.72zm-355.17-218.25c-3.47-4.17-4.17-7.65-1.39-11.82 11.12-15.29 25.02-27.8 40.31-38.23 2.08-1.39 4.87-2.78 7.65-2.78 29.19-2.78 56.3-11.82 81.32-28.5 4.87-2.78 10.43-4.17 15.99-4.87 6.26-1.39 11.12-2.78 16.68-4.17 6.26-3.47 12.51-6.95 19.46-11.12 2.78-1.39 4.87-1.39 7.65 0 14.6 12.51 28.5 25.02 41.7 38.23 12.51 11.82 21.55 25.72 26.41 42.4 2.78 9.04 2.08 16.68-2.09 23.63-3.47 7.65-9.73 11.82-18.07 13.9-8.34.7-15.99 3.47-22.94 6.95-7.65 3.48-14.6 6.95-20.85 10.43-17.38 7.65-34.75 15.29-52.13 22.94-3.48 0-6.95.7-11.12.7-10.43 0-19.46-1.39-28.5-4.17-15.29-4.17-28.5-1.39-40.31 9.04-11.12 9.04-21.55 18.07-32.67 27.11 0 1.39-1.39 2.08-2.78 2.78 0-1.39.7-2.09 1.39-3.48 9.04-13.9 18.77-27.8 27.8-41.7 3.48-4.87 2.08-8.34-3.48-11.12-20.16-7.65-36.84-19.46-50.04-36.14z"/></g></svg>