<svg viewBox="0 0 1200 1200" xmlns="http://www.w3.org/2000/svg"><path d="m1065.04 554.19-12.76 157.76c-4.64 53.36-13.92 105.56-27.84 156.6-6.96 23.2-16.24 44.08-30.16 62.64-20.88 27.84-41.76 54.52-62.64 81.2-4.64 9.28-10.44 18.56-16.24 27.84-6.96 4.64-15.08 6.96-23.2 8.12-11.6 1.16-22.04 1.16-31.32 0-25.52-3.48-44.08-16.24-58-38.28-10.44-15.08-23.2-29-35.96-41.76-27.84-25.52-54.52-51.04-82.36-77.72-6.96-8.12-15.08-9.28-23.2-3.48-27.84 18.56-55.68 38.28-82.36 58-17.4 11.6-32.48 24.36-47.56 37.12-17.4 13.92-34.8 29-49.88 44.08-2.32 2.32-5.8 4.64-8.12 6.96-8.12 3.48-16.24 5.8-24.36 8.12-2.32-4.64-4.64-9.28-5.8-13.92-2.32-3.48-2.32-8.12-2.32-12.76 20.88-38.28 41.76-76.56 63.8-114.84 1.16-1.16 3.48-2.32 5.8-3.48v6.96c-4.64 11.6-9.28 23.2-12.76 34.8 0 5.8 1.16 10.44 4.64 16.24 5.8 3.48 11.6 3.48 18.56 2.32 24.36-13.92 45.24-33.64 60.32-55.68 16.24-23.2 29-47.56 40.6-73.08 0-6.96-2.32-12.76-6.96-18.56-5.8-4.64-11.6-6.96-17.4-6.96-15.08-1.16-30.16-2.32-45.24-4.64-13.92 0-29 1.16-42.92 4.64s-26.68 11.6-35.96 24.36c-13.92 15.08-29 30.16-44.08 45.24-15.08 9.28-20.88 20.88-17.4 37.12 1.16 3.48 1.16 8.12 0 12.76 0 0-1.16 1.16-2.32 1.16 4.64 13.92 8.12 29 10.44 44.08-1.16 6.96-3.48 12.76-5.8 18.56-5.8 18.56-9.28 37.12-12.76 54.52 0 8.12-3.48 13.92-9.28 17.4-6.96 3.48-12.76 5.8-19.72 6.96-10.44 1.16-18.56-1.16-26.68-8.12-13.92-32.48-27.84-64.96-39.44-97.44-1.16-4.64 0-9.28 2.32-12.76 10.44-13.92 22.04-29 32.48-42.92 3.48-3.48 4.64-8.12 4.64-12.76v-29c0-8.12-2.32-13.92-8.12-19.72-4.64-4.64-10.44-9.28-16.24-12.76-3.48 0-5.8 1.16-9.28 3.48-55.68 49.88-111.36 99.76-168.2 149.64-8.12 6.96-16.24 13.92-24.36 22.04q-1.16 1.16-2.32 1.16c-1.16-1.16-1.16-3.48 0-4.64 3.48-9.28 6.96-19.72 11.6-27.84 41.76-54.52 71.92-113.68 90.48-178.64 16.24-47.56 32.48-96.28 49.88-145 3.48-9.28 1.16-15.08-8.12-17.4-31.32-15.08-56.84-37.12-77.72-64.96-6.96-8.12-8.12-17.4-4.64-26.68 17.4-32.48 37.12-64.96 59.16-96.28 8.12-13.92 18.56-27.84 29-40.6 9.28-8.12 11.6-18.56 6.96-29-1.16-2.32-1.16-4.64 1.16-6.96l52.2-109.04c4.64-8.12 2.32-13.92-5.8-16.24-3.48-2.32-8.12-4.64-12.76-5.8-13.92-10.44-15.08-22.04-3.48-34.8 4.64-4.64 9.28-10.44 13.92-15.08 11.6-16.24 25.52-29 41.76-39.44 17.4-10.44 33.64-22.04 48.72-34.8 3.48-2.32 6.96-2.32 11.6-1.16 20.88 11.6 40.6 24.36 59.16 38.28 19.72 13.92 33.64 32.48 44.08 54.52 12.76 27.84 6.96 48.72-19.72 63.8-15.08 9.28-31.32 13.92-48.72 13.92s-34.8-1.16-51.04-3.48c-9.28-1.16-18.56-2.32-27.84-1.16-9.28 0-17.4 3.48-24.36 9.28-6.96 6.96-11.6 15.08-15.08 23.2-15.08 30.16-31.32 61.48-47.56 91.64-2.32 8.12-2.32 16.24-2.32 23.2 0 8.12 0 16.24-1.16 24.36h11.6c29-15.08 52.2-35.96 68.44-62.64 4.64-8.12 10.44-16.24 17.4-22.04 6.96-6.96 13.92-12.76 20.88-18.56 8.12-9.28 17.4-17.4 25.52-25.52h4.64c16.24 8.12 31.32 16.24 46.4 24.36 15.08 9.28 29 20.88 39.44 34.8 2.32 3.48 4.64 6.96 6.96 11.6 1.16 3.48 0 6.96-3.48 10.44-1.16 9.28 0 18.56 2.32 26.68l-16.24 29c-15.08 19.72-26.68 39.44-37.12 60.32-11.6 25.52-22.04 51.04-30.16 76.56-1.16 3.48-2.32 5.8-2.32 8.12 2.32-1.16 4.64-2.32 5.8-3.48 23.2-17.4 46.4-35.96 69.6-54.52 8.12-5.8 17.4-10.44 26.68-15.08 3.48-1.16 6.96-1.16 10.44 1.16 22.04 15.08 44.08 31.32 66.12 46.4 5.8 4.64 9.28 10.44 11.6 16.24 6.96 13.92 6.96 26.68-1.16 37.12-8.12 11.6-18.56 17.4-32.48 17.4-9.28 2.32-19.72 2.32-29-1.16-12.76-1.16-16.24 3.48-9.28 15.08l9.28 18.56c18.56 30.16 37.12 59.16 55.68 89.32 4.64 3.48 8.12 6.96 12.76 10.44 2.32-4.64 3.48-9.28 5.8-12.76l49.88-194.88c1.16-3.48 1.16-8.12 1.16-11.6 5.8-19.72-1.16-33.64-20.88-40.6-3.48-1.16-5.8-3.48-8.12-6.96-10.44-10.44-23.2-13.92-38.28-10.44-8.12 1.16-18.56 1.16-29 0 2.32-9.28 5.8-18.56 10.44-26.68 34.8-39.44 71.92-77.72 110.2-114.84 19.72-25.52 45.24-44.08 75.4-55.68 16.24-5.8 32.48-15.08 46.4-25.52 20.88-12.76 44.08-15.08 68.44-5.8 24.36 10.44 47.56 23.2 67.28 41.76 20.88 17.4 39.44 35.96 56.84 56.84 9.28 11.6 16.24 23.2 23.2 35.96 4.64 16.24 8.12 32.48 9.28 47.56 2.32 33.64 2.32 66.12 0 98.6zm-583.49 205.32c-2.32-4.64-4.64-8.12-9.28-12.76-23.2-6.96-46.4-12.76-70.76-17.4-3.48-1.16-5.8-1.16-9.28-1.16-2.32 0-5.8 1.16-8.12 4.64-3.48 3.48-5.8 8.12-6.96 13.92-2.32 5.8-1.16 10.44 2.32 16.24 6.96 15.08 12.76 31.32 16.24 47.56 4.64 17.4 9.28 34.8 13.92 53.36 1.16 3.48 3.48 6.96 4.64 10.44 3.48-2.32 6.96-5.8 9.28-9.28 18.56-30.16 37.12-59.16 54.52-89.32 2.32-4.64 3.48-10.44 3.48-16.24zm56.84-70.76c-2.32-9.28-4.64-18.56-6.96-29 0-9.28-3.48-11.6-10.44-8.12-3.48 1.16-5.8 2.32-9.28 5.8-2.32 2.32-4.64 2.32-5.8-1.16-1.16-2.32-2.32-5.8-1.16-9.28h-8.12c-5.8 4.64-11.6 8.12-17.4 12.76-6.96 5.8-5.8 9.28 2.32 11.6l54.52 17.4zm361.92-219.24c-2.32-18.56-3.48-38.28-4.64-58 0-11.6-5.8-18.56-17.4-20.88-8.12-1.16-15.08 1.16-22.04 5.8-5.8 2.32-10.44 5.8-13.92 9.28-24.36 13.92-47.56 27.84-70.76 42.92-6.96 4.64-6.96 10.44-1.16 17.4 19.72 17.4 37.12 35.96 53.36 56.84 6.96 6.96 11.6 16.24 15.08 26.68 2.32 10.44 1.16 20.88-4.64 31.32-29 49.88-58 98.6-88.16 148.48-15.08 22.04-27.84 46.4-39.44 70.76-11.6 30.16-2.32 48.72 26.68 58 18.56 3.48 37.12 3.48 55.68 2.32 10.44-1.16 17.4-5.8 24.36-12.76 15.08-19.72 29-41.76 41.76-64.96 11.6-23.2 19.72-46.4 23.2-71.92 5.8-53.36 10.44-107.88 13.92-162.4 3.48-25.52 5.8-52.2 8.12-78.88z" fill="#b30a0a"/></svg>