<svg viewBox="0 0 1200 1200" xmlns="http://www.w3.org/2000/svg"><g fill="#b30a0a"><path d="m761.04 358.35.38 10.6c-.96.03-1.89 1.03-1.83 2.96 1.17 5.75.41 11.57-2.28 17.46-2.72 4.92-7.44 7.99-14.22 7.26-5.82-.76-11.64-1.51-17.46-2.27-21.35-3.1-42.73-7.17-64.18-13.16-11.57.41-15.63-5.24-13.15-16.91-6.96-5.54-14.84-10.09-22.66-12.71-7.78-1.66-12.53.45-13.19 9.16-6.82 25.34-13.64 50.68-21.39 77.02-5.86 25.31-12.68 50.65-20.46 76.02-.86 2.93-2.65 6.85-6.41 9.88-1.86 2-2.72 4.92-2.62 7.82-5.06 20.45-13.12 38.11-26.07 54.02-12.91 16.87-26.86 31.85-41.81 45.89-1.83 2.96-3.65 5.92-6.47 7.95-1.86 2-4.68 4.03-6.54 6.03s-4.75 2.1-7.68 1.24-4.79 1.14-5.65 4.06-1.69 6.82-2.51 10.71c-4.51 8.85-9.99 17.73-16.46 25.68-5.48 8.88-12.95 15.9-22.45 20.1-9.44 6.13-18.87 12.25-26.31 20.24s-14.88 15.97-23.28 24c-18.7 17.08-37.4 34.15-57.06 51.26-11.23 10.05-23.45 19.17-36.67 27.37-6.68 2.17-14.36 3.41-23.07 2.75-2-1.86-3.06-4.72-3.13-6.65 15.77-17.94 30.62-34.88 46.42-51.85 1.89-1.03 3.79-2.07 5.71-2.13 2.07 3.79 4.99 4.65 7.85 3.58s5.68-3.1 7.51-6.06c38.81-48.68 69.71-102.87 91.75-161.58 22.08-57.74 38.31-117.2 47.68-179.31 4.89-25.27 8.82-50.51 12.75-75.75.72-6.78-2.27-9.57-8.02-8.4-53.82 6.74-104.5 20.13-153.92 42.16-5.72 2.13-8.47 6.09-10.23 10.98-6.07 46.55-.63 90.76 15.34 132.67 3.23 9.54 3.61 20.14 1.06 29.89-5.55 6.95-13.16 10.12-21.83 10.43-24.38-6.85-48.86-16.6-72.37-26.38-17.66-8.06-33.5-19.08-47.44-31.13-11.98-11.16-23-22.35-33.12-35.5-3.1-5.68-6.99-6.51-13.6-2.41-22.56 17.21-46.08 34.46-69.66 49.78-12.33 6.23-25.76 8.64-39.29 8.15-10.67-1.55-12.81-7.27-7.37-17.11 14.33-31.4 37.57-56.36 67.84-73.85 15.12-9.23 30.23-18.45 45.39-26.71 7.61-3.17 10.3-9.05 8.99-18.66-1.86-25.03-1.82-51.1.19-76.27 2.96-25.2 11.75-49.65 25.42-72.34 9.23-11.91 19.49-21.93 29.75-31.95 9.4-7.09 18.8-14.18 28.24-20.31 3.79-2.07 8.64-1.27 12.57.52 20.86 16.63 38.87 34.33 55.98 54 7.09 9.4 11.36 20.83 13.73 33.3 3.44 15.32 6.92 31.61 9.43 47.93.24 6.75 3.24 9.54 9.92 7.37 41.15-10.15 82.26-21.27 123.34-33.35 6.71-1.2 12.5-1.41 19.25-1.65 3.86-.14 8.68-.31 12.5-1.41 4.75-2.1 7.54-5.1 7.37-9.92.79-4.85.65-8.71.48-13.53 3.45-38.74 6.86-78.43 10.31-117.17-1.45-13.46-3.85-26.89-7.22-40.29-3.51-17.25 2.79-30.02 17.95-38.29 3.82-1.1 5.71-2.13 7.57-4.13 5.3-13.7 14.64-22.72 28.96-27.09 1.86-2 4.75-2.1 6.75-.24 17.63 7.09 33.43 17.15 48.31 28.21 14.9 12.02 26.06 27.07 33.46 45.15 8.43 19.97 9.19 41.18 4.16 62.6-5.72 29.16-12.44 57.4-19.09 87.56-2.62 7.82-.52 12.57 8.26 15.15 9.78 3.51 20.45 5.07 30.09 4.72 10.61-.38 21.24.21 31.88.8 32.09 6.58 55.88 24.08 69.51 54.48l4.13 7.58z"/><path d="m576.79 872.65c1.29 3.86 3.12 8.18 4.42 12.04-1.92 7.09-4.33 14.22-6.25 21.31-3.5 12.17-5.03 24.19-5.09 36.09.04 19.33.52 38.12 2.07 57.83 1.08 13.79-.29 27.78-3.68 41.43-.64 4.51-.78 8.98.55 13.34 0 18.83-6.72 34.23-20.08 47.18-10.18 9.23-20.89 18-32.13 26.32-3.83 1.79-7.27 2.06-11.82.93-5.12-2.07-9.75-4.19-14.45-7.29-4.67-2.61-7.93-6.31-10.74-10.55-2.28-3.79-4.98-6.55-7.63-8.82-3.15-2.23-6.3-4.46-9.49-7.18-4.21-3.14-8.42-6.28-12.6-8.92-2.54-.79-5.04-1.09-7.47-.4-13.82 7.04-27.68 13.58-41.54 20.12-8.71 2.67-16.97 4.81-26.29 6.04-17.58 3.37-35.65 6.77-53.72 10.17-6.89.54-13.34.55-20.35-.38-4.02-.68-5.2-3.06-2.47-6.25 5.9-6.91 11.8-13.82 18.23-20.27s14-11.01 22.67-14.18c9.5-5.21 17.98-10.83 26.91-16.99 22.34-12.17 46.54-19.52 71.59-22.49 7.39-.58 13.6-3.55 18.67-8.41 5.03-5.35 9.04-11.12 11.45-18.25 7.39-19.42 10.24-39.96 8.12-60.61-4.07-32.89-7.16-65.85-9.27-98.89.11-4.96-2.51-6.74-7.36-5.37-11.21 2.37-21.21 7.62-30.06 14.76-6.88 6.99-14.91 12.08-24.53 15.81-6.74 2.51-12.42 5.93-17.98 10.83-5.6 4.41-11.2 8.81-16.8 13.22-9.46 5.7-19.04 9.93-29.23 12.71l-18.98 4.47c-3.75 2.77-5.98 5.92-7.64 10.02-3.14 4.21-6.85 7.48-12.19 8.89-4.85 1.37-10.27 1.8-15.31.71-14.06-2.36-28.17-5.22-42.27-8.07-3.56-1.21-4.74-3.59-3.08-7.69 7.82-14 16.7-27.09 27.67-38.86 10.48-11.73 22.02-22.55 34.66-31.97 22.86-18.16 46.29-35.36 70.74-52.16 16.46-11.21 34.72-18.59 54.76-22.15 17.58-3.37 34.6-1.24 50.53 5.94 37.47 16.38 68.17 41.22 91.61 74.57 2.28 3.79 4.07 7.61 5.86 11.43z"/><path d="m977.91 961.77c-3.46.99-7.41 1.98-10.87 3.95-12.85 5.93-25.2 11.86-37.55 17.79l-31.13 16.8c-11.36 5.93-23.72 9.88-36.07 11.86-2.96.49-5.44.99-8.4 2.47-16.8 6.42-32.61 15.32-46.94 27.18-3.46 3.46-6.42 7.91-8.89 12.35 0 .99 0 1.98.99 3.46 4.45.99 8.4 1.98 12.85 2.96 38.05 13.84 66.21 38.54 84.49 74.61 1.48 2.47 2.47 4.94 2.47 7.41 4.45 12.35.49 18.28-12.85 17.29-6.92-.99-13.34-2.47-20.26-4.45-2.96-.49-5.93-.99-8.89-.49-15.32.49-31.13 1.48-46.45 2.47h-2.47c0-.99.99-1.48 1.98-1.98l14.33-6.92c.49 0 1.48-.49 1.98-1.48-.49-.49-1.48-.49-2.47 0-5.44 1.48-10.87 3.46-15.32 6.42-18.78 12.85-37.55 25.69-56.33 38.54-3.46 2.96-7.91 5.44-12.85 7.41-.99.49-2.47.49-3.95 0 .99-.99.99-1.98 1.48-2.96l2.96-1.98c21.74-16.8 43.48-34.09 64.73-51.88 9.88-7.91 12.85-17.29 8.89-29.15-.99-1.98-2.96-3.95-4.94-4.94-9.39-1.98-18.28-3.46-27.18-4.45-5.93-.49-12.35 0-18.28 1.48-4.45.99-8.4 2.47-12.35 4.45-6.92 3.46-13.84 3.46-21.25-.99-13.84-7.41-26.68-15.81-38.54-25.2-2.47-2.47-4.94-5.44-6.42-9.39-1.48-4.45-.99-7.91 1.48-11.37 1.98-3.46 4.45-5.93 6.92-8.4 5.44-5.44 10.38-10.38 15.81-15.32 2.96-3.46 6.92-3.95 10.87-2.47 3.95.49 7.91.49 11.86 0 4.45 0 8.4-.99 11.86-3.46 20.75-14.33 41.01-28.66 60.78-43.98s38.54-32.12 56.33-50.4c7.9-9.39 15.32-18.78 23.22-27.67 1.98-2.96 2.47-5.93 1.98-9.39s-1.48-6.42-3.95-8.89c-6.92-6.92-15.32-9.39-25.2-7.41-10.87 3.46-21.74 5.93-32.12 8.4-10.87 2.47-21.25 5.44-32.12 8.89-5.44 2.96-10.87 5.93-16.31 9.88-4.94 4.45-10.38 7.91-15.81 11.36-4.94 3.95-9.88 7.91-14.82 12.35-3.46 3.46-6.92 6.92-10.38 10.38-1.98 1.48-4.45 3.46-5.93 4.94-1.98 2.47-3.46 5.44-4.45 7.91-1.48 2.96-1.98 5.43-2.47 8.4.49 3.46-.49 5.93-2.96 7.91-1.98 1.98-3.46 3.95-5.44 6.42-5.44 12.35-11.36 25.2-16.8 38.05-.99 1.48-1.98 2.47-3.46 2.96-5.93 2.47-12.35 3.46-18.78 3.46-24.21-1.98-45.95-10.87-64.73-26.68-2.47-1.98-4.94-4.45-7.41-7.41-2.47-2.47-2.47-5.44-.49-8.4s3.46-5.93 4.94-7.91c6.92-8.89 14.82-17.29 23.22-24.21 8.89-6.92 17.79-12.85 27.67-18.78 18.28-11.36 36.56-22.73 54.35-33.6 10.87-6.92 22.73-13.34 35.08-18.78 21.74-9.39 43.98-17.79 66.71-24.71 10.38-3.95 20.75-5.93 31.62-7.41 13.84-2.47 26.68-3.95 38.05-5.44 11.36-1.48 21.74 0 30.14 3.95 8.4 4.45 16.3 9.39 22.73 15.81 9.39 7.41 17.79 14.82 25.69 22.73 7.91 7.91 14.33 16.8 19.27 26.68 4.94 9.39 8.4 19.76 10.87 29.65 2.47 11.86-1.98 18.28-14.33 19.27z"/><path d="m1185.18 825.5c-1.48 2.22-2.22 3.71-2.96 5.19-5.19 11.86-13.34 15.57-25.2 11.12l-71.15-20.01c-5.93-2.96-11.86-5.93-17.05-8.15-12.6-5.93-25.2-8.15-38.54-6.67-13.34.74-25.94 2.96-39.28 5.19-5.93 1.48-11.86 2.22-18.53 2.22h-7.41c2.22-1.48 5.19-2.22 7.41-2.96 41.51-10.38 68.19-17.05 80.05-20.01 1.48-1.48 2.22-2.22 2.96-3.71-3.71-4.45-8.15-6.67-11.86-8.15l-81.53 23.72c-25.2 6.67-49.66 14.08-73.38 20.75-1.48.74-2.22.74-3.71.74 0-.74.74-2.22 2.22-2.22 14.82-5.19 29.65-10.38 43.73-16.31 34.84-14.08 69.67-28.91 103.77-43.73 21.49-10.38 31.87-28.17 30.39-52.62-.74-3.71-2.22-7.41-4.45-11.12-6.67-11.86-14.82-22.24-24.46-31.87-9.64-7.41-20.01-14.08-29.65-19.27-2.96 0-5.93 0-8.15.74-24.46 9.64-48.92 17.05-74.12 23.72-37.06 11.86-72.64 29.65-104.51 54.11-16.3 10.38-32.61 22.24-48.18 34.83-8.15 6.67-15.56 14.82-21.49 23.72-5.93 9.64-11.12 20.01-15.56 30.39-2.96 5.19-7.41 7.41-12.6 6.67-14.82-1.48-27.42-6.67-38.54-15.57-11.86-8.89-21.49-20.01-29.65-31.87v-.74c-5.93-6.67-11.12-14.82-14.08-24.46-2.96-8.89-2.96-18.53-.74-28.17 2.96-8.89 6.67-17.79 11.86-25.94s9.63-17.05 11.86-25.94c2.22-9.63 4.45-18.53 6.67-28.17 3.71-20.75 10.38-40.02 20.01-57.81 18.53-37.06 37.06-72.64 55.59-107.47 22.24-38.54 48.92-74.12 80.05-105.99 5.19-5.19 10.38-11.12 14.08-17.05.74-2.22 1.48-4.45 1.48-6.67 0-1.48.74-3.71 2.22-5.19 5.19-4.45 11.12-8.89 17.79-11.86 6.67-5.93 12.6-11.12 18.53-16.31 2.96-2.96 7.41-5.93 11.12-7.41 4.45-1.48 8.89-1.48 14.08.74 14.08 8.15 27.42 18.53 40.03 29.65 23.72 24.46 38.54 52.62 45.95 85.24 2.22 12.6-2.22 22.24-14.08 27.42-8.15 3.71-15.56 8.15-24.46 12.6-12.6 6.67-25.2 13.34-37.06 20.75-15.56 8.89-26.68 20.75-35.58 35.58l-2.96 2.96c-.74-.74-.74-2.22-.74-3.71v-2.96c-1.48.74-2.96 1.48-3.71 2.22-3.71 4.45-5.93 9.63-8.89 15.56 0 .74-.74 2.22-2.22 3.71-5.19 1.48-10.38 4.45-14.08 9.63-3.71 5.19-6.67 10.38-9.64 15.57-19.27 28.17-31.87 50.4-39.28 66.71-3.71 12.6-10.38 25.2-19.27 36.32 0 1.48 0 3.71-.74 6.67-.74 2.22-2.22 3.71-4.45 4.45-1.48-.74-2.22-2.22-2.22-4.45l-1.48-.74c-.74 0-1.48 0-2.22.74-3.71 8.89-8.15 17.79-11.12 27.42.74 1.48 2.22 2.96 5.19 2.96 17.79-2.22 35.58-5.93 53.37-10.38 38.54-12.6 76.34-25.94 114.14-39.28 14.82-2.96 26.68-11.12 34.84-23.72 2.22-5.19 3.71-9.64 2.96-14.82 0-4.45-2.22-8.15-6.67-10.38-5.93-4.45-5.93-8.15.74-11.12 9.64-3.71 17.79-8.89 25.94-15.56 8.15-4.45 15.56-3.71 22.24 2.22 3.71 2.96 7.41 5.93 11.12 7.41 17.79 6.67 34.09 15.56 48.92 27.42 14.82 12.6 27.42 25.2 38.54 39.28 35.58 45.21 62.26 94.13 80.05 147.5 4.45 9.63 3.71 18.53-2.22 26.68zm-410.62-170.47c2.22-2.22 3.71-4.45 5.93-6.67 2.22-5.93 5.19-11.86 8.15-17.79 5.19-11.12 9.63-21.49 13.34-31.13 1.48-1.48 1.48-2.22 0-4.45q0 .74-1.48 1.48c-8.15 18.53-16.31 36.32-25.94 53.37z"/></g></svg>