<svg viewBox="0 0 1200 1200" xmlns="http://www.w3.org/2000/svg"><path d="m1053.1 317.72c-4.98 4.98-7.47 12.45-9.96 19.92-7.47 24.9-16.18 49.79-23.65 74.69-1.25 4.98-1.25 9.96-1.25 14.94-1.25 33.61-2.49 68.47-6.23 103.32-4.98 24.9-9.96 49.79-17.43 75.94-6.23 24.9-11.2 51.04-13.69 77.18-2.49 56.02-1.25 113.28 6.23 169.3 4.98 38.59 4.98 75.94 1.24 112.04 1.25 28.63 4.98 57.26 9.96 88.39 0 3.73 1.25 9.96 2.49 14.94 1.25 4.98 0 9.96-2.49 13.69-8.71 6.22-13.69 14.94-14.94 24.9s-3.74 19.92-8.71 28.63c-1.25 1.25-3.73 2.49-4.98 1.25-17.43-3.73-33.61-11.2-49.8-21.16-24.9-16.18-48.55-33.61-70.96-53.53-22.41-22.41-43.57-44.82-64.73-68.47v-6.22c2.49 0 3.74 1.25 6.22 2.49 14.94 13.69 28.63 27.39 43.57 41.08 24.9 23.65 54.77 34.86 89.63 32.37 8.71-1.25 14.94-6.23 18.67-13.69 4.98-7.47 4.98-14.94 2.49-23.65-2.49-14.94-2.49-28.63-2.49-43.57 1.25-3.74 1.25-8.71 1.25-12.45 3.74-136.94 4.98-275.12 4.98-413.3 0-63.49-3.73-125.73-9.96-186.73 0-23.65-1.25-46.06-6.23-68.47-2.49-12.45-7.47-23.65-12.45-33.61-2.49-6.22-4.98-11.2-6.22-17.43 1.25-9.96-2.49-16.18-8.71-21.16-7.47-3.73-14.94-7.47-22.41-9.96-4.98-2.49-8.71-1.24-11.2 3.73-13.69 18.67-27.39 37.35-39.84 57.26-12.45 21.16-19.92 43.57-21.16 68.47 0 31.12 11.2 56.02 34.86 74.69 14.94 9.96 27.39 22.41 38.59 36.1 3.73 6.22 7.47 13.69 9.96 21.16 2.49 6.22 3.74 13.69 6.22 19.92 6.23 14.94 4.98 28.63-3.73 41.08-6.22 16.18-11.2 34.86-13.69 53.53-4.98 27.39-11.2 56.02-16.18 83.41-2.49 14.94-2.49 31.12-1.25 48.55-3.74 17.43-14.94 27.39-33.61 27.39-7.47 0-14.94 1.25-21.16 3.74-19.92 4.98-41.08 11.2-61 17.43-9.96 1.25-18.67-1.25-26.14-7.47s-13.69-13.69-17.43-22.41c-16.18-22.41-33.61-44.82-53.53-65.98-6.23-4.98-13.69-6.23-23.65-6.23q-1.25 0-1.25 1.25c1.25 2.49 2.49 4.98 4.98 7.47 13.69 4.98 19.92 13.69 19.92 26.14-2.49 13.69-8.71 26.14-18.67 34.86-21.16 9.96-42.33 17.43-63.49 23.65-11.2 6.22-22.41 11.2-32.37 17.43-12.45 7.47-23.65 13.69-37.35 18.67-12.45 3.74-23.65 11.2-32.37 19.92-4.98 4.98-8.71 9.96-11.2 14.94-22.41 42.33-56.02 75.94-98.35 100.83-53.53 32.37-109.55 63.49-165.57 92.12-8.71 3.73-19.92 7.47-31.12 11.2h-12.45c-1.25-6.22-1.25-13.69 1.25-19.92 29.88-37.35 63.49-73.45 97.1-110.79 2.49-1.24 6.23-3.73 9.96-6.22-3.73 2.49-6.22 6.22-6.22 8.71-3.74 6.23-4.98 11.2-6.22 17.43-1.25 9.96 2.49 13.69 14.94 12.45 69.71-18.67 117.02-61 144.41-126.98 0-2.49-1.25-4.98-2.49-6.22-6.22-4.98-12.45-8.72-18.67-12.45-2.49 0-4.98-1.25-8.71-2.49-2.49-1.24-4.98 0-4.98 2.49-1.25 3.73-1.25 6.22 0 8.71 0 11.2-3.73 19.92-13.69 26.14-6.22 4.98-12.45 9.96-21.16 13.69-7.47 3.73-16.18 3.73-23.65 0-46.06-13.69-80.92-39.84-104.57-80.92-4.98-7.47-4.98-13.69 0-21.16 3.73-6.23 7.47-12.45 12.45-17.43 3.74-6.23 7.47-11.2 11.2-17.43 0-3.74 0-7.47-2.49-11.2-3.74 2.49-7.47 3.73-11.2 4.98-6.22 11.2-14.94 22.41-22.41 32.37-13.69 13.69-27.39 28.63-41.08 44.82-8.71 11.2-16.18 22.41-23.65 34.86-2.49 6.23-6.22 11.21-12.45 16.18-11.2 6.23-24.9 9.96-38.59 12.45-6.23 1.25-11.2-1.24-14.94-6.22-3.74-7.47-4.98-14.94-2.49-21.16 12.45-28.63 24.9-56.02 38.59-83.41 3.74-8.71 7.47-18.67 11.2-28.63-1.25 9.96-3.74 19.92-3.74 28.63-1.25 7.47-1.25 16.18 1.25 24.9 3.73-2.49 9.96-3.74 14.94-4.98 4.98-1.25 9.96-3.73 14.94-7.47 34.86-37.35 64.73-79.67 90.88-125.73 24.9-44.82 49.79-92.12 72.2-139.43 34.86-72.2 58.51-148.14 70.96-226.57 7.47-13.69 13.69-27.39 18.67-41.08 8.71-14.94 3.74-24.9-12.45-29.88-3.74 0-7.47-2.49-11.2-6.22-4.98 0-8.71-2.49-14.94-4.98-4.98-2.49-4.98-6.22-1.25-11.2 4.98-3.73 8.71-7.47 12.45-9.96 6.22-8.71 13.69-16.18 21.16-23.65 7.47-3.73 16.18-6.22 24.9-7.47 13.69-4.98 28.63-6.22 42.33-3.73 21.16 4.98 41.08 13.69 59.75 26.14 4.98 3.74 7.47 7.47 9.96 12.45 1.25 4.98 2.49 9.96 3.74 14.94 2.49 6.22 6.22 13.69 8.71 21.16 3.74 6.22 4.98 12.45 4.98 18.67 0 7.47-3.74 12.45-12.45 14.94-7.47 3.73-7.47 8.71 1.25 13.69 32.37 17.43 63.49 36.1 93.37 56.02 18.67 11.2 24.9 28.63 17.43 49.8 0 4.98-1.24 9.96-1.24 14.94 0 6.22-2.49 8.71-8.71 11.2-17.43 3.73-34.86 4.98-52.29 2.49-16.18-7.47-33.61-13.69-51.04-22.41-18.67-6.22-37.35-12.45-56.02-19.92-7.47 1.25-12.45 4.98-16.18 9.96-8.71 16.18-17.43 33.61-26.14 49.79v6.22h4.98c24.9-9.96 51.04-19.92 78.43-29.88 3.74-2.49 7.47-2.49 12.45 0 38.59 24.9 77.18 51.04 114.53 78.43 21.16 16.18 31.12 36.1 28.63 62.24 2.49-1.25 3.73-3.73 6.22-7.47 6.22-23.65 17.43-43.57 33.61-59.75s32.37-33.61 49.8-49.8c7.47-7.47 13.69-14.94 18.67-22.41 13.69-29.88 27.39-57.26 43.57-85.9 9.96-17.43 21.16-36.1 32.37-54.77 11.2-18.67 21.16-37.35 29.88-54.77 4.98-16.18 14.94-28.63 28.63-37.35 13.69-8.71 27.39-14.94 41.08-18.67 12.45-2.49 24.9 0 36.1 4.98 14.94 9.96 29.88 18.67 43.57 29.88 18.67 13.69 28.63 31.12 26.14 53.53 2.49 16.18 4.98 31.12 11.2 46.06 6.22 24.9 2.49 46.06-13.69 67.22zm-755.64 295.04c6.22-1.25 12.45-2.49 18.67-4.98 18.67-9.96 37.35-21.16 53.53-36.1 16.18-13.69 28.63-31.12 37.35-52.28l4.98-14.94c1.25-4.98 0-8.71-3.74-13.69-4.98-3.73-8.71-6.22-13.69-7.47-7.47-4.98-12.45-2.49-16.18 4.98-4.98 9.96-11.2 19.92-16.18 28.63s-11.2 17.43-19.92 23.65c-9.96 8.71-18.67 18.67-24.9 28.63-7.47 11.2-13.69 22.41-19.92 33.61-1.25 3.73-1.25 6.22 0 9.96zm79.67 46.06c4.98-4.98 8.71-9.96 14.94-14.94 14.94-8.71 28.63-18.67 39.84-29.88 3.74-3.74 4.98-7.47 4.98-12.45s1.24-8.72 1.24-13.69c-6.22 0-12.45 0-18.67 2.49l-61 29.88c-16.18 9.96-29.88 19.92-43.57 29.88-3.74 3.73-4.98 7.47-3.74 11.2v65.98c0 6.22 0 13.69 1.25 19.92 0 7.47 3.74 13.69 11.2 16.18 6.22 3.73 13.69 6.22 19.92 7.47 6.23 3.74 9.96 8.71 12.45 13.69 1.25 1.25 2.49 2.49 4.98 2.49 18.67-18.67 38.59-37.35 58.51-53.53 13.69-8.71 19.92-22.41 18.67-38.59-1.24-8.71-2.49-19.92-4.98-31.12 0-3.74 0-6.23-1.25-9.96-2.49 2.49-4.98 3.73-8.71 4.98-6.22 8.72-14.94 17.43-24.9 24.9-3.74 2.49-8.71 4.98-13.69 6.22-4.98 0-8.71-1.25-12.45-4.98-6.22-9.96-4.98-18.67 4.98-26.14zm344.83 270.14c2.49 4.98 3.73 11.2 4.98 17.43-4.98 6.23-9.96 12.45-14.94 18.67-11.2 11.2-23.65 21.16-36.1 31.12-12.45 3.74-22.41 3.74-33.61-1.25-34.86-9.96-69.71-11.2-104.57-4.98-11.2 3.73-22.41 8.71-32.37 12.45-6.22 2.49-13.69 3.73-19.92 2.49 4.98-3.73 8.71-8.71 13.69-11.2 3.73-2.49 7.47-4.98 11.2-6.22 4.98-2.49 11.2-4.98 14.94-7.47-7.47-3.74-16.18-4.98-23.65-3.74-21.16 8.72-42.33 17.43-62.24 28.63-1.25 2.49-3.73 3.73-7.47 3.73-3.73 1.25-6.22-1.25-8.71-6.22 1.25-4.98 4.98-8.72 9.96-11.21 21.16-11.2 43.57-22.41 65.98-34.86 17.43-8.71 27.39-23.65 27.39-44.82-1.24-6.22-4.98-12.45-9.96-17.43-13.69-9.96-28.63-17.43-44.82-24.9-3.73-2.49-6.22-4.98-8.71-9.96 3.74 0 7.47-2.49 9.96-6.22 11.2-4.98 22.41-8.71 33.61-11.2 9.96-4.98 19.92-7.47 29.88-6.23 43.57 11.2 85.9 24.9 129.47 38.59 26.14 9.96 44.82 27.39 56.02 54.77zm-93.37-400.85c-13.69 2.49-27.39 6.22-42.33 8.71l-74.69 24.9c-3.73 2.49-7.47 3.73-11.2 3.73 1.25 1.25 1.25 3.73 1.25 6.22 4.98 0 9.96-1.25 14.94-1.25 12.45-6.22 24.9-9.96 38.59-13.69 28.63-6.22 57.26-3.73 83.41 9.96 3.74 1.25 7.47 1.25 11.2 0 6.22-19.92 11.2-38.59 16.18-58.51-2.49 6.22-6.22 11.2-13.69 13.69s-16.18 3.73-23.65 6.22zm-83.4 77.18c-2.49-1.24-4.98-2.49-7.47-2.49-23.65 1.25-36.1 13.69-37.35 36.1 1.25 3.73 1.25 7.47 1.25 11.2 3.73-1.25 7.47-3.74 12.45-6.23l28.63-31.12c1.25-2.49 2.49-4.98 2.49-7.47z" fill="#b30a0a"/></svg>