<svg viewBox="0 0 1200 1200" xmlns="http://www.w3.org/2000/svg"><g fill="#b30a0a"><path d="m822.16 546c-5.76 2.88-10.57 4.8-16.33 6.72-4.8 2.88-10.57 2.88-17.29.96-21.14-6.72-42.27-11.53-64.37-14.41l-50.92-16.33c-1.92 0-3.84.96-5.76 2.88-3.84 18.25-8.65 35.55-13.45 52.84-3.84 11.53-5.76 23.06-4.8 34.59.96 12.49 2.88 24.02 5.76 36.51 3.84 23.06 8.65 47.08 13.45 71.09 4.8 26.9-.96 51.88-17.29 73.98-19.21 21.14-40.35 39.39-66.29 53.8-8.65 3.84-16.33 2.88-24.98-.96-14.41-9.61-27.86-21.14-40.35-33.63-16.33-16.33-34.59-30.74-53.8-43.23-20.17-12.49-39.39-25.94-57.64-39.39-25.94-20.18-49.96-42.27-72.06-67.25-10.57-11.53-20.18-24.02-29.78-37.47-2.88-1.92-7.69-2.88-11.53-2.88-10.57 4.8-20.18 10.57-29.78 17.29-1.92.96-3.84 2.88-5.76 5.76l-25.94 69.17c-1.92 11.53-8.65 20.18-18.25 27.86-9.61 7.69-20.17 9.61-31.7 4.8-12.49-7.69-24.02-17.29-35.55-27.86-3.84-2.88-8.65-7.69-12.49-11.53-4.8-4.8-4.8-10.57-1.92-16.33 3.84-4.8 6.72-9.61 10.57-13.45 6.73-10.57 5.76-18.25-4.8-25.94-10.57-4.8-22.1-10.57-33.63-16.33-6.73-2.88-10.57 0-12.49 8.65-1.92 5.76-4.8 12.49-7.69 19.21-6.73 12.49-12.49 24.98-20.18 36.51-.96.96-1.92 1.92-2.88 2.88v-9.61c-1.92 1.92-2.88 3.84-4.8 5.76l-15.37 39.39-2.88 5.76-1.92-5.76c1.92-19.21 4.8-38.43 9.61-56.68 18.25-78.78 38.43-155.64 61.49-231.54 23.06-76.86 50.92-151.8 83.58-224.81 10.57-23.06 19.21-47.08 27.86-71.1 3.84-11.53 10.57-20.17 21.14-27.86 9.61-6.72 19.21-13.45 27.86-20.18 1.92-.96 3.84-.96 5.76 0 15.37 7.69 29.78 16.33 44.19 25.94 13.45 9.61 25.94 21.14 36.51 35.55s9.61 27.86-1.92 41.31c-22.1 21.14-39.39 45.16-53.8 72.06-12.49 22.1-26.9 43.23-41.31 63.41-1.92 1.92-2.88 3.84-3.84 4.8v-4.8c-.96-1.92 0-2.88 1.92-2.88 0-3.84 0-8.65 1.92-13.45l-9.61 12.49c-3.84 7.69-7.69 15.37-12.49 23.06l-20.18 35.55c-2.88 3.84-4.8 6.73-7.69 10.57-.96 0-1.92.96-2.88.96v-1.92c.96-3.84 1.92-6.72 1.92-10.57-2.88 1.92-4.8 3.84-5.76 7.69-12.49 28.82-24.02 57.64-34.59 86.47-11.53 34.59-23.06 69.17-32.67 103.76 0 2.88 1.92 4.8 4.8 6.73 17.29-1.92 32.67 2.88 47.08 13.45 7.69 3.84 13.45 2.88 18.25-2.88 11.53-14.41 24.02-29.78 35.55-43.23 3.84-5.76 8.65-10.57 14.41-14.41 3.84-3.84 3.84-7.69 1.92-10.57-2.88-3.84-5.76-6.73-7.69-10.57l-5.76-6.72c3.84 1.92 7.69 2.88 10.57 4.8h2.88c.96-.96.96-2.88 0-3.84l-7.69-19.21c-.96-3.84-1.92-7.69-1.92-12.49 3.84 1.92 8.65 2.88 14.41 3.84 1.92 1.92 2.88 2.88 3.84 4.8 1.92 2.88 4.8 6.72 6.72 9.61-1.92-1.92-4.8-3.84-6.72-6.72-.96 0-1.92 0-1.92-.96v1.92c0 5.76.96 10.57 1.92 16.33 1.92 0 2.88.96 2.88.96 16.33-13.45 28.82-28.82 38.43-46.12 4.8-8.65 10.57-16.33 17.29-23.06 6.73-6.72 13.45-13.45 19.21-21.14 1.92-1.92 3.84-2.88 7.69-1.92 8.65 0 17.29-1.92 25.94-5.76 16.33-11.53 32.67-24.98 48.04-38.43 1.92-2.88 1.92-6.72 1.92-9.61 0-3.84.96-6.72 1.92-10.57 1.92-7.69-1.92-11.53-10.57-9.61-14.41-6.73-29.78-11.53-44.19-16.33-1.92.96-2.88 2.88-2.88 4.8-8.65-.96-17.29-1.92-25.94-4.8-12.49-5.76-14.41-14.41-4.8-24.98 14.41-17.29 31.7-31.71 51.88-42.27 8.65-2.88 15.37-7.69 22.1-14.41 6.73-5.76 13.45-12.49 20.18-17.29 4.8-4.8 9.61-8.65 15.37-11.53 19.21-8.65 27.86-24.02 25.94-46.12 1.92-31.71 4.8-62.45 9.61-94.15-.96-11.53-6.72-20.17-17.29-24.98-2.88-3.84-3.84-7.69-2.88-11.53 19.21-20.18 42.27-33.63 70.13-40.35h3.84c28.82 6.72 54.76 18.25 79.74 33.62 10.57 8.65 17.29 19.21 19.21 31.71 1.92 13.45-1.92 24.02-11.53 34.59-8.65 9.61-11.53 19.21-8.65 31.71 3.84 11.53 10.57 20.18 20.18 25.94 15.37 9.61 26.9 22.1 34.59 37.47 3.84 16.33 0 30.74-10.57 42.27-14.41 12.49-27.86 25.94-40.35 39.39-6.73 7.69-9.61 16.33-9.61 24.98s.96 17.29 3.84 25.94c5.76 3.84 11.53 4.8 18.25 2.88 12.49-4.8 24.02-3.84 34.59 2.88 10.57 5.76 20.17 13.45 28.82 21.14 5.76 7.69 10.57 15.37 14.41 24.98.96 1.92.96 4.8.96 7.69-7.69 7.69-17.29 11.53-28.82 9.61-7.69 0-15.37 0-22.1 1.92-6.73.96-12.49 1.92-19.21 3.84 3.84 5.76 6.73 11.53 9.61 18.25 4.8 15.37 10.57 30.74 15.37 47.08.96 2.88 2.88 4.8 5.76 4.8 11.53.96 23.06.96 33.62 0 11.53 0 22.1-3.84 31.71-9.61 8.65-4.8 16.33-3.84 23.06 3.84 6.72 5.76 15.37 10.57 24.02 13.45 16.33 11.53 27.86 25.94 37.47 42.27 0 1.92-.96 2.88-.96 4.8zm-505.35 28.82c-6.73-3.84-13.45-8.65-20.18-14.41-2.88-1.92-5.76-2.88-8.65-2.88s-3.84 1.92-3.84 6.72c.96 1.92 1.92 4.8 2.88 7.69l7.69 8.65c-.96 2.88-1.92 4.8-2.88 5.76-2.88 0-4.8-.96-5.76-1.92-2.88-2.88-6.72-4.8-10.57-6.73-.96-1.92-2.88-2.88-6.73-2.88 0 3.84-.96 7.69-2.88 11.53 1.92-.96 2.88-.96 4.8-1.92 1.92.96 2.88 2.88 2.88 4.8 0 3.84 1.92 6.72 3.84 9.61 2.88 2.88 5.76 2.88 9.61-.96 9.61-4.8 18.25-9.61 27.86-14.41 1.92-2.88 2.88-5.76 1.92-8.65zm-23.05-35.54c12.49 9.61 24.98 20.17 36.51 31.7 2.88.96 5.76.96 9.61.96 13.45-5.76 25.94-11.53 38.43-19.22 2.88-2.88 6.73-4.8 10.57-6.72 3.84-2.88 6.72-5.76 7.69-10.57.96-3.84-.96-7.69-4.8-10.57 0-3.84 0-5.76 1.92-7.69 6.72-4.8 12.49-9.61 19.21-14.41 5.76-5.76 13.45-6.73 22.1-3.84 2.88 0 4.8 0 6.73-1.92 26.9-20.18 53.8-40.35 79.74-60.53.96-1.92 1.92-3.84 2.88-5.76-1.92 0-3.84.96-5.76 1.92-35.55 15.37-71.09 31.7-106.64 49-15.37 7.69-32.67 11.53-50.92 9.61-11.53-.96-23.06-3.84-34.59-5.76-10.57-3.84-17.29.96-20.18 11.53-3.84 8.65-8.65 18.25-13.45 27.86-4.8 5.76-3.84 10.57.96 14.41zm56.68 118.17c0-1.92 0-3.84-.96-5.76-7.69-10.57-16.33-20.18-24.02-30.74-1.92-1.92-3.84-4.8-6.72-6.72 0 2.88 0 5.76-.96 7.69 1.92 3.84 4.8 7.69 7.69 10.57 6.73 7.69 13.45 16.33 19.21 24.02 1.92.96 3.84.96 5.76.96zm230.58-5.77c-1.92-39.39-3.84-77.82-5.76-117.21-1.92-2.88-4.8-4.8-8.65-4.8-13.45 0-25.94 1.92-38.43 4.8-3.84.96-8.65 1.92-13.45 3.84s-5.76 5.76-2.88 10.57c2.88 3.84 4.8 8.65 6.72 11.53 15.37 24.02 28.82 49 41.31 73.98 5.76 18.25-.96 27.86-20.17 27.86-4.8 0-8.65 0-13.45-.96-13.45-1.92-25.94-3.84-39.39-7.69-12.49-2.88-24.02-8.65-34.59-16.33-4.8-4.8-9.61-8.65-16.33-11.53-5.76-2.88-12.49-2.88-19.21-.96-6.73 2.88-12.49 5.76-18.25 9.61-.96 0-1.92.96-2.88 1.92 0-.96.96-2.88.96-3.84 5.76-9.61 11.53-19.21 17.29-28.82 2.88-8.65 4.8-17.29 6.73-27.86.96-6.73-1.92-8.65-8.65-4.8-15.37 4.8-30.74 9.61-46.12 14.41-17.29 3.84-19.21 12.49-5.76 24.98 23.06 23.06 47.08 46.12 71.09 69.17 5.76 6.72 12.49 12.49 21.14 17.29 12.49 7.69 24.98 15.37 38.43 22.1 7.69 5.76 17.29 6.73 27.86 4.8 20.18-4.8 36.51-16.33 48.04-32.67 11.53-11.53 16.33-24.02 14.41-39.39zm6.72-210.4c-1.92 0-2.88.96-4.8.96-11.53 3.84-22.1 9.61-33.63 14.41-37.47 1.92-70.13 16.33-97.04 43.23-.96 1.92-1.92 3.84-1.92 4.8 5.76 2.88 12.49 6.73 18.25 10.57 6.72 4.8 13.45 5.77 22.1 4.8 25.94-5.77 52.84-11.53 79.74-18.25 4.8-1.92 7.69-5.77 9.61-10.57 2.88-15.37 4.8-29.78 6.73-44.19 0-1.92.96-3.84.96-5.76z"/><path d="m1180.39 1123.53c-2.04 8.84-6.12 16.32-12.24 22.44-3.4 2.72-6.12 6.12-7.48 10.2-8.84 14.96-21.08 25.16-36.72 30.6s-31.96 5.44-47.6-.68c-2.04-.68-3.4-.68-5.44-.68-22.44-5.44-43.52-15.64-62.56-29.24-5.44-4.08-11.56-6.8-18.36-8.16-7.48-.68-13.6 1.36-18.36 6.8-6.12 4.76-12.92 8.16-20.4 10.2-2.72 1.36-6.12 1.36-8.84 0 1.36-2.04 2.72-4.08 4.08-6.8 8.84-5.44 17-11.56 25.84-18.36 1.36-1.36 1.36-3.4 0-5.44-18.36-13.6-36.04-27.2-53.04-40.12-9.52-7.48-17-15.64-23.12-24.48-1.36-4.08-2.04-7.48-1.36-11.56 4.08-14.96 6.8-29.92 10.2-44.2 0-1.36 0-3.4-.68-4.76 0-4.08-.68-8.16-2.04-12.92-2.72 2.72-5.44 4.76-9.52 6.8-4.08 3.4-4.76 7.48-2.04 12.24 2.04 6.8 1.36 12.24-4.08 14.96-4.76 3.4-10.2 6.12-16.32 7.48-9.52 2.72-18.36 7.48-27.2 14.28-21.08 21.76-42.84 42.84-65.28 63.92-17 12.92-35.36 24.48-54.4 34-3.4 1.36-8.16 2.04-12.92 1.36-8.84-.68-15.64 3.4-19.72 10.88-2.04.68-4.08.68-6.12 0v-4.08c8.84-17 19.04-32.64 30.6-47.6 11.56-14.28 24.48-28.56 36.72-42.84 1.36-.68 2.04-1.36 2.72-2.04 0 1.36 0 2.04-.68 3.4-3.4 5.44-6.12 11.56-8.84 17-1.36 3.4-1.36 6.12.68 9.52 1.36 2.72 3.4 4.76 5.44 7.48 2.72 2.04 6.12 2.72 9.52 0 25.16-21.08 51-42.16 76.16-62.56 1.36-1.36 2.04-3.4 2.04-4.76-2.04-.68-4.76-.68-6.8.68-5.44 4.08-10.88 8.16-16.32 12.24-2.04.68-4.08 1.36-5.44 2.04 1.36-1.36 1.36-2.72 1.36-5.44 2.72-8.84 5.44-18.36 8.84-27.88.68-4.08-.68-8.16-2.72-12.92-2.72-4.08-5.44-7.48-8.84-10.2-2.04 0-4.08.68-6.12 2.04-14.28 16.32-28.56 32.64-42.84 48.28l-10.88 9.52c-2.72 6.12-6.12 10.88-9.52 15.64-2.72 3.4-6.12 6.8-10.88 8.16-4.08 2.72-8.84 5.44-14.28 8.16-3.4 3.4-8.16 4.76-12.92 4.76-4.76.68-8.84-1.36-11.56-4.76-14.96-17-29.24-34-43.52-51-.68-2.72-.68-4.76 1.36-6.8 8.16-10.88 13.6-22.44 14.96-36.72.68-4.76 2.04-10.2 4.08-15.64 0-2.04.68-3.4.68-5.44-2.04 0-4.08 0-6.12.68-8.84 2.04-17.68 4.08-26.52 4.76-14.28 2.04-24.48-3.4-30.6-16.32-2.04-7.48-.68-13.6 4.08-19.72 10.2-12.92 20.4-25.16 31.28-36.72 1.36-.68 2.72-2.04 4.08-2.04 2.04 1.36 3.4 2.72 4.08 4.76 0 5.44 2.04 6.12 5.44 2.72 17.68-13.6 34.68-27.88 51.68-43.52 8.84-9.52 18.36-19.04 27.88-27.88 9.52-9.52 19.72-17 31.28-23.12 4.08-2.04 8.16-2.04 12.92 0 7.48 2.72 15.64 6.8 23.8 10.88 7.48 4.08 14.28 10.2 18.36 18.36 3.4 6.12 2.72 11.56-3.4 15.64-9.52 6.8-18.36 14.96-26.52 23.12s-14.28 17.68-18.36 28.56c-2.72 3.4-2.04 6.8 2.04 8.84 14.28 8.16 29.24 17 44.2 25.16 14.28 8.16 27.88 18.36 40.8 29.92 4.76 6.8 10.88 12.92 17 18.36 2.72 3.4 4.76 4.08 6.8 2.04s4.08-4.08 5.44-6.12c4.08-2.04 4.08-4.76 0-7.48-.68-1.36-.68-2.04 0-3.4 8.84-6.12 17-12.92 25.16-20.4 6.8-7.48 12.92-14.96 18.36-23.8 0-1.36-.68-2.72-1.36-3.4-9.52-2.72-19.72-5.44-29.24-7.48-2.72-1.36-4.76-2.04-7.48-1.36l-6.12 1.36c2.04 1.36 3.4 2.72 4.08 4.76 2.72 7.48 5.44 14.96 7.48 23.12-1.36 1.36-2.72 2.04-5.44 2.04-2.04-.68-4.08-2.04-5.44-4.08-14.28-12.24-23.8-27.2-27.88-45.56-8.84-34.68-17-69.36-25.16-104.04-4.08-18.36-4.08-37.4 0-56.44 0-2.72 1.36-4.76 2.72-7.48 12.92-10.2 25.16-21.08 38.08-31.28 3.4-4.08 6.12-8.84 8.16-14.28 8.84-25.84 24.48-46.92 46.24-63.92 16.32-8.16 33.32-15.64 49.64-21.76 1.36 0 2.72.68 4.08 2.04 12.24 17 23.8 34 34 52.36 4.76 10.88 5.44 21.08.68 31.28-4.08 10.2-8.84 20.4-13.6 30.6-2.72 2.04-5.44 3.4-8.84 3.4-3.4.68-6.12.68-9.52.68-4.08-1.36-5.44.68-3.4 5.44 2.72 8.84 5.44 18.36 7.48 27.88 2.04 2.72 4.08 4.76 6.12 6.12 8.16 7.48 14.96 14.96 21.76 23.12 6.8 7.48 5.44 14.96-2.72 21.76-.68 0-2.04.68-3.4 2.04-19.72 7.48-27.88 22.44-25.16 43.52 1.36 1.36 2.72 2.04 4.76 2.72 5.44-4.08 10.2-3.4 14.28 2.04 4.08 3.4 6.8 2.72 9.52-2.04 25.16-33.32 38.08-71.4 38.08-112.88-.68-5.44-1.36-11.56-2.04-16.32-5.44 0-10.2.68-14.96 2.04-9.52.68-19.04 2.04-29.24 3.4-1.36 0-2.72-.68-3.4-1.36 0-2.04.68-4.08 2.04-5.44 14.28-12.92 29.92-23.12 47.6-31.28 8.84-3.4 18.36-7.48 27.2-10.88 2.72-.68 6.12 0 8.84 1.36 14.96 9.52 26.52 22.44 34.68 37.4 8.84 14.96 11.56 31.28 9.52 49.64.68 13.6 0 27.2-.68 41.48-.68 14.96-6.12 27.2-17 37.4-5.44 7.48-10.88 14.28-15.64 22.44-6.8 9.52-13.6 19.04-21.76 27.88-6.8 6.8-14.96 8.84-23.8 6.12-17-6.12-31.96-3.4-46.24 7.48-14.28 11.56-29.24 22.44-44.2 32.64-6.8 4.08-12.92 9.52-17.68 14.28-.68.68-.68 1.36 0 2.04 0 1.36 0 2.04 1.36 2.04 2.04 3.4 5.44 6.12 8.84 8.16 16.32 12.24 22.44 27.88 17.68 46.92-.68 2.72-.68 5.44 0 7.48 1.36-2.04 2.72-3.4 4.76-5.44 7.48-9.52 14.28-19.72 21.08-29.24 6.12-10.2 11.56-21.08 14.96-32.64 2.04-4.76 1.36-8.16-3.4-9.52-2.04-2.72-4.08-4.76-5.44-7.48-.68-.68-1.36-2.04-2.04-2.72 1.36-1.36 2.72-1.36 4.08-.68 2.72-.68 5.44-1.36 7.48-3.4 10.2-5.44 20.4-10.88 31.28-16.32 2.72-.68 4.76 0 7.48 2.04 10.88 8.16 21.76 17 31.96 27.2 2.72 2.72 4.76 5.44 6.12 8.84 2.72 6.12 1.36 10.2-4.76 12.24-2.04.68-3.4 2.04-4.08 4.08-3.4 3.4-5.44 7.48-6.8 11.56 2.72 4.76 6.8 8.84 12.24 11.56 2.04 0 3.4-.68 4.76-2.72 4.08-4.08 8.84-6.12 14.28-7.48s10.88-2.04 15.64-3.4c1.36 0 2.72 0 2.72 1.36 8.16 8.84 16.32 17.68 23.8 27.88 2.72 6.12.68 11.56-5.44 15.64-2.72.68-6.12 2.72-8.84 4.76-3.4 2.04-3.4 4.76-1.36 8.16 2.04 2.72 4.08 5.44 6.8 6.8 12.92 14.96 25.16 31.28 36.04 48.28 4.08 7.48 5.44 16.32 2.72 25.16zm-499.11-381.48c.68-4.76 2.72-8.84 6.8-12.24 7.48-10.2 17-17 28.56-21.76 10.2-3.4 20.4-7.48 30.6-12.92 2.04-.68 4.76-.68 6.8 0 23.12 10.88 42.16 26.52 56.44 46.92 4.76 8.84 8.84 18.36 12.24 27.88 0 4.76-2.04 8.84-5.44 11.56s-7.48 5.44-11.56 6.8c-6.8 2.04-14.28 2.72-22.44 1.36-10.88-.68-21.76-1.36-31.96-2.72-7.48-4.08-14.28-4.08-20.4.68-5.44 4.76-10.88 10.2-14.96 15.64l-5.44 5.44c-.68-2.72 0-5.44 2.04-8.16 6.8-8.16 4.76-12.92-4.76-14.96-.68-2.04-1.36-3.4-1.36-4.76.68-2.04 1.36-4.08 2.04-5.44 5.44-8.16 3.4-13.6-6.8-14.96-8.84-4.08-15.64-10.2-20.4-18.36zm85.68 222.36c-2.04-2.72-5.44-4.08-8.84-5.44-.68 0-1.36 0-1.36.68l-2.72 2.72c-2.72 8.84-4.76 17.68-6.12 25.84-.68 2.04-.68 4.08 0 6.12 4.08-2.72 7.48-5.44 10.2-8.84 4.08-6.8 6.8-13.6 8.84-21.08zm157.08-239.36c0-2.04-2.04-3.4-4.76-2.72-12.92-1.36-24.48 2.04-34.68 9.52-9.52 7.48-14.96 18.36-15.64 31.28 0 15.64 0 31.28 1.36 46.92 2.04 17 4.76 33.32 7.48 49.64h-2.04c2.72 11.56 5.44 23.12 8.16 34 .68.68 2.04 1.36 3.4 2.04 7.48-8.84 14.28-18.36 19.72-28.56 5.44-13.6.68-22.44-14.96-25.16-6.8-1.36-7.48-4.08-2.04-8.84 8.84-8.16 14.96-17.68 19.72-28.56 1.36-6.12 2.72-11.56 2.72-17.68.68-6.8.68-12.92 2.04-19.04.68-12.24 3.4-24.48 7.48-36.04 2.04-2.04 2.72-4.08 2.04-6.8zm70.72 388.96c6.8 3.4 13.6 2.04 19.04-4.08 6.12-5.44 10.2-11.56 13.6-17 0-.68.68-.68 1.36-.68 2.72-3.4 1.36-6.12-3.4-6.8-21.08-4.08-38.76-14.28-53.04-29.24-.68-1.36-1.36-2.72-2.72-3.4 0 1.36-.68 2.72-1.36 4.08-2.72 5.44-5.44 10.88-8.84 15.64-4.08 5.44-4.08 10.2.68 14.96 6.12 4.76 11.56 9.52 16.32 13.6 5.44 5.44 10.88 9.52 18.36 12.92zm115.59-19.04c-3.4 0-6.8 0-10.2.68-4.08 1.36-8.16 4.08-12.24 6.12-3.4 2.72-8.16 4.76-12.92 4.76-8.16-.68-15.64 0-23.12 2.72s-14.96 5.44-21.76 8.84c-4.08.68-7.48 2.72-10.88 6.12-.68 1.36 0 3.4.68 4.76l25.16 8.84c14.96-2.72 28.56-7.48 42.84-13.6 4.08-2.72 8.16-6.12 11.56-10.2s6.8-8.16 10.2-12.24c1.36-2.04 1.36-4.08.68-6.8zm-72.76-63.92c2.72 0 4.76 0 6.8-.68v-2.04c1.36-4.08 2.72-7.48 4.08-11.56-3.4 2.72-5.44 5.44-7.48 8.16-1.36 2.04-2.72 4.08-3.4 6.12zm6.8-.68c11.56 2.04 20.4-1.36 27.2-10.88 3.4-2.04 4.76-4.76 4.76-8.84-1.36-4.08-4.08-6.8-7.48-7.48-4.08.68-6.8 2.72-8.84 6.12-5.44 6.12-10.88 13.6-15.64 21.08z"/></g></svg>