<svg viewBox="0 0 1200 1200" xmlns="http://www.w3.org/2000/svg"><path d="m1093.2 780.6c-1.2 1.2-2.4 3.6-2.4 7.2s0 7.2-1.2 10.8c0 3.6-2.4 6-6 8.4-28.8 0-57.6-3.6-85.2-7.2-20.4-7.2-38.4-18-55.2-32.4-20.4-18-40.8-36-61.2-55.2-18-14.4-36-27.6-56.4-38.4-1.2-1.2-2.4-2.4-3.6-3.6 2.4 0 3.6-1.2 4.8-2.4 0-2.4 1.2-4.8 1.2-7.2-6-8.4-14.4-13.2-25.2-15.6-9.6-1.2-20.4-3.6-30-3.6-31.2 6-61.2 12-92.4 19.2-2.4 0-6 1.2-9.6 3.6 3.6 2.4 7.2 3.6 9.6 3.6 74.4 24 130.8 69.6 169.2 136.8 8.4 18 14.4 36 19.2 55.2 0 7.2-2.4 13.2-8.4 18-4.8 4.8-10.8 6-18 3.6-19.2-6-39.6-7.2-60-4.8-20.4 1.2-40.8 3.6-60 7.2-28.8 2.4-55.2 9.6-80.4 20.4-9.6 4.8-15.6 10.8-19.2 20.4 2.4 8.4 7.2 15.6 14.4 21.6 36 25.2 69.6 51.6 100.8 79.2 7.2 6 12 13.2 14.4 21.6 3.6 8.4 6 16.8 7.2 25.2 0 7.2-1.2 13.2-7.2 18-4.8 4.8-10.8 7.2-16.8 8.4s-12 1.2-18 0c-15.6-7.2-31.2-10.8-46.8-8.4-15.6 1.2-31.2 4.8-46.8 9.6-13.2 2.4-25.2 4.8-38.4 8.4-4.8 0-8.4-2.4-12-4.8 0-3.6 2.4-8.4 6-10.8 18-10.8 33.6-24 49.2-37.2 9.6-9.6 12-20.4 8.4-33.6-3.6-12-10.8-21.6-21.6-27.6l-136.8-56.4c-21.6-7.2-43.2-13.2-64.8-18-8.4 1.2-16.8 3.6-25.2 8.4-7.2 3.6-13.2 4.8-20.4 4.8-44.4-13.2-76.8-39.6-98.4-80.4-4.8-8.4-6-16.8-2.4-26.4 6-14.4 14.4-26.4 26.4-37.2 51.6-54 103.2-106.8 153.6-160.8 19.2-21.6 33.6-45.6 45.6-70.8 4.8-10.8 8.4-22.8 9.6-34.8-1.2-3.6-2.4-6-3.6-8.4-4.8-3.6-8.4-7.2-13.2-12-21.6-24-16.8-44.4 13.2-58.8 12-6 24-12 34.8-20.4 10.8-9.6 22.8-10.8 34.8-3.6 49.2 32.4 86.4 75.6 110.4 129.6 7.2 18 10.8 36 12 54 1.2 15.6-4.8 24-19.2 25.2-32.4 3.6-63.6-1.2-92.4-13.2-16.8-3.6-33.6-3.6-51.6 0-16.8 3.6-32.4 10.8-46.8 20.4-15.6 15.6-32.4 31.2-48 46.8-19.2 24-37.2 49.2-52.8 74.4 0 3.6-1.2 7.2-3.6 9.6 4.8 1.2 8.4 1.2 12 0 6 0 12-1.2 18-6 26.4-18 55.2-32.4 85.2-42 31.2-10.8 61.2-21.6 90-32.4 13.2-7.2 26.4-13.2 40.8-18 13.2-4.8 26.4-6 40.8-6 2.4 0 4.8 0 7.2-2.4 36-22.8 74.4-38.4 115.2-44.4 12 0 13.2-3.6 4.8-13.2-66-82.8-120-172.8-162-271.2-6-20.4-13.2-40.8-19.2-61.2-2.4-2.4-4.8-6-6-8.4-1.2 2.4-3.6 6-6 8.4-12 22.8-24 45.6-38.4 67.2-21.6 30-42 60-63.6 88.8-12 16.8-21.6 34.8-30 54-12 19.2-26.4 36-42 50.4-27.6 36-55.2 72-84 106.8-22.8 31.2-45.6 63.6-68.4 93.6-32.4 38.4-69.6 69.6-112.8 92.4-20.4 13.2-43.2 21.6-67.2 24-12 0-15.6-4.8-12-15.6 13.2-26.4 27.6-51.6 43.2-78 1.2 0 2.4 0 2.4-1.2v3.6c0 3.6-1.2 7.2-2.4 10.8-4.8 12-1.2 16.8 10.8 14.4 49.2-4.8 91.2-25.2 126-62.4 55.2-60 99.6-127.2 132-201.6l56.4-115.2c13.2-34.8 26.4-69.6 39.6-105.6l24-56.4c3.6-9.6 6-19.2 8.4-28.8 1.2-9.6-1.2-18-6-27.6-3.6-8.4-3.6-15.6 1.2-24 21.6-28.8 50.4-48 86.4-56.4 9.6-3.6 19.2-8.4 27.6-13.2 4.8-1.2 7.2 0 9.6 2.4 21.6 15.6 40.8 32.4 58.8 51.6 16.8 19.2 30 42 39.6 66 15.6 32.4 27.6 66 36 99.6 8.4 49.2 25.2 94.8 48 138 13.2 24 27.6 48 44.4 72 15.6 22.8 36 43.2 58.8 60 6 2.4 12 4.8 19.2 7.2 13.2 4.8 25.2 9.6 36 15.6 2.4 2.4 4.8 4.8 7.2 4.8 10.8-2.4 20.4 0 26.4 7.2 7.2 8.4 13.2 15.6 18 22.8 33.6 30 56.4 67.2 69.6 111.6 7.2 13.2 4.8 24-7.2 32.4zm-470.4 0c-4.8-14.4-14.4-20.4-28.8-20.4-30 8.4-58.8 18-87.6 28.8-25.2 6-42 20.4-49.2 44.4-7.2 15.6-15.6 31.2-24 45.6-2.4 3.6-4.8 7.2-8.4 10.8 4.8-2.4 8.4-3.6 13.2-6 2.4-2.4 4.8-3.6 7.2-4.8l61.2-19.2c38.4-10.8 73.2-30 103.2-58.8 4.8-6 9.6-13.2 13.2-20.4z"/></svg>