<svg viewBox="0 0 1200 1200" xmlns="http://www.w3.org/2000/svg"><path d="m1009.48 255.34c-16.24 42.92-24.36 85.84-23.2 131.08-1.16 54.52-2.32 107.88-3.48 161.24 1.16 85.84 3.48 171.68 9.28 256.36 3.48 62.64 8.12 124.12 12.76 185.6 1.16 16.24-2.32 30.16-11.6 42.92-8.12 12.76-19.72 22.04-32.48 30.16-12.76 6.96-24.36 16.24-34.8 25.52-2.32 3.48-5.8 6.96-9.28 8.12-17.4 10.44-34.8 12.76-52.2 5.8s-31.32-18.56-39.44-35.96c-4.64-6.96-10.44-13.92-15.08-19.72-2.32-3.48-4.64-6.96-5.8-11.6l-6.96-8.12c-18.56-17.4-35.96-34.8-53.36-52.2-2.32-2.32-3.48-4.64-4.64-6.96 3.48 0 5.8 0 8.12 2.32 9.28 5.8 19.72 11.6 29 18.56h4.64s-1.16-2.32-2.32-4.64c-12.76-10.44-26.68-20.88-39.44-31.32-2.32-3.48-3.48-5.8-5.8-10.44 2.32 2.32 5.8 2.32 9.28 2.32h3.48c-1.16-1.16-2.32-3.48-2.32-5.8-13.92-15.08-30.16-26.68-51.04-32.48-4.64-2.32-6.96-5.8-9.28-10.44-1.16-12.76-8.12-16.24-19.72-8.12-25.52 13.92-51.04 27.84-76.56 40.6-2.32 2.32-5.8 2.32-10.44 2.32 1.16-3.48 3.48-6.96 5.8-9.28 22.04-15.08 44.08-27.84 66.12-40.6 3.48-3.48 6.96-6.96 10.44-9.28-4.64-2.32-9.28-3.48-13.92-3.48-8.12 0-16.24 2.32-22.04 8.12-37.12 27.84-74.24 56.84-111.36 84.68-5.8 4.64-12.76 6.96-19.72 8.12 3.48-5.8 6.96-10.44 11.6-15.08 39.44-30.16 78.88-61.48 119.48-92.8 4.64-3.48 9.28-6.96 13.92-11.6 3.48-5.8 4.64-10.44 2.32-17.4-2.32-5.8-4.64-12.76-6.96-17.4 0-2.32-1.16-4.64-1.16-6.96 2.32 1.16 3.48 2.32 5.8 3.48 0 1.16 1.16 2.32 1.16 3.48l16.24 13.92c3.48-9.28 5.8-18.56 8.12-29-2.32-8.12-6.96-13.92-15.08-17.4-27.84-6.96-55.68-11.6-83.52-13.92-20.88-1.16-40.6 1.16-60.32 4.64-5.8 3.48-11.6 8.12-18.56 13.92-2.32 2.32-3.48 2.32-5.8 2.32 0-5.8-2.32-5.8-6.96-2.32-12.76 5.8-24.36 12.76-35.96 20.88l-49.88 45.24c-5.8 8.12-11.6 15.08-18.56 20.88-6.96 6.96-16.24 9.28-26.68 9.28s-19.72 3.48-27.84 11.6c-6.96 8.12-12.76 15.08-19.72 23.2-2.32 2.32-5.8 4.64-8.12 6.96 1.16-4.64 2.32-8.12 2.32-11.6 2.32-13.92 8.12-27.84 16.24-40.6 6.96-12.76 15.08-25.52 23.2-38.28 15.08-24.36 31.32-48.72 46.4-74.24 31.32-53.36 62.64-105.56 93.96-158.92 2.32-5.8 3.48-11.6 4.64-17.4 0-4.64 2.32-9.28 4.64-13.92 17.4-23.2 37.12-44.08 56.84-63.8 15.08-15.08 32.48-17.4 49.88-8.12 10.44 6.96 20.88 13.92 32.48 18.56 10.44 5.8 22.04 11.6 31.32 18.56 13.92 12.76 24.36 29 31.32 46.4 0 6.96-2.32 11.6-6.96 16.24-5.8 9.28-11.6 16.24-18.56 24.36-2.32 2.32-3.48 3.48-4.64 5.8l-61.48 67.28c-1.16 2.32-2.32 3.48-4.64 5.8 2.32 2.32 5.8 3.48 8.12 3.48 22.04 3.48 44.08 5.8 64.96 6.96 26.68 3.48 49.88 12.76 71.92 26.68 22.04 15.08 41.76 32.48 58 51.04 17.4 25.52 34.8 51.04 51.04 76.56 6.96 12.76 4.64 24.36-5.8 33.64-10.44 4.64-22.04 5.8-33.64 3.48-5.8-3.48-11.6-6.96-17.4-10.44-4.64-4.64-10.44-8.12-17.4-10.44-10.44 0-20.88 1.16-31.32 3.48 2.32 6.96 5.8 12.76 9.28 17.4 16.24 17.4 31.32 33.64 47.56 49.88 3.48 2.32 6.96 2.32 10.44 1.16s5.8-3.48 9.28-6.96c-4.64-4.64-9.28-9.28-12.76-13.92l-6.96-2.32 2.32-5.8c2.32 2.32 4.64 3.48 6.96 5.8 9.28 5.8 18.56 5.8 27.84 0 13.92-9.28 26.68-20.88 37.12-32.48 11.6-12.76 17.4-27.84 18.56-45.24 1.16-1.16 1.16-2.32 2.32-3.48v20.88c4.64-3.48 8.12-6.96 9.28-10.44 2.32-6.96 3.48-13.92 4.64-20.88-3.48-51.04-8.12-103.24-13.92-156.6-1.16 0-1.16-5.8-2.32-19.72 0-13.92-1.16-37.12-2.32-69.6 0-32.48-2.32-64.96-5.8-97.44-1.16-11.6-8.12-17.4-19.72-17.4-15.08 0-29-1.16-41.76-2.32-22.04-4.64-41.76-2.32-61.48 6.96h-5.8c0-2.32 1.16-3.48 2.32-4.64 8.12-4.64 6.96-9.28-2.32-13.92-3.48-1.16-6.96-3.48-10.44-8.12-2.32-3.48-3.48-8.12-2.32-12.76 2.32-4.64 3.48-9.28 5.8-12.76 11.6-30.16 23.2-61.48 33.64-91.64 1.16-3.48 1.16-8.12 0-12.76-4.64-1.16-9.28-1.16-13.92 1.16-5.8 3.48-12.76 4.64-19.72 5.8s-10.44 5.8-12.76 15.08l-2.32 38.28v30.16c0 2.32-1.16 4.64-2.32 5.8-3.48 5.8-6.96 11.6-11.6 16.24 0 2.32-1.16 4.64-2.32 8.12-2.32-2.32-4.64-3.48-5.8-4.64-9.28-9.28-19.72-12.76-30.16-9.28-2.32 1.16-4.64 1.16-5.8-1.16-12.76-10.44-23.2-20.88-32.48-32.48-11.6-13.92-15.08-30.16-10.44-48.72 3.48-19.72 5.8-39.44 8.12-59.16 0-2.32-1.16-3.48-3.48-3.48-18.56 17.4-35.96 35.96-49.88 58-13.92 20.88-22.04 45.24-27.84 69.6-2.32 12.76-4.64 26.68-8.12 40.6 0 6.96-3.48 9.28-10.44 10.44-8.12 2.32-17.4 2.32-25.52 0-8.12-3.48-16.24-5.8-24.36-9.28-13.92-1.16-24.36 3.48-32.48 12.76-32.48 33.64-64.96 66.12-99.76 98.6-12.76 8.12-27.84 13.92-41.76 20.88-3.48 2.32-4.64 4.64-5.8 8.12 0 39.44-1.16 78.88-5.8 118.32-2.32 24.36-3.48 49.88-5.8 73.08-1.16 24.36-5.8 48.72-15.08 71.92-10.44 29-19.72 58-27.84 87-4.64 12.76-12.76 20.88-22.04 27.84-10.44 6.96-18.56 8.12-27.84 1.16-8.12-5.8-13.92-13.92-17.4-23.2-5.8-11.6-9.28-23.2-10.44-35.96 0-12.76 4.64-24.36 12.76-34.8 2.32-2.32 4.64-4.64 8.12-5.8 5.8 1.16 11.6-1.16 13.92-5.8 3.48-4.64 4.64-9.28 5.8-15.08 12.76-35.96 19.72-71.92 22.04-111.36 4.64-90.48 3.48-180.96-4.64-271.44-1.16-8.12-3.48-15.08-9.28-22.04-10.44-15.08-22.04-29-32.48-44.08-3.48-4.64-4.64-9.28-3.48-15.08 3.48-4.64 9.28-8.12 16.24-8.12 37.12 4.64 63.8 24.36 80.04 58 4.64 9.28 9.28 19.72 12.76 31.32 0 3.48 1.16 5.8 3.48 8.12l5.8-5.8c3.48-6.96 8.12-12.76 12.76-18.56 8.12-9.28 13.92-19.72 16.24-31.32s4.64-24.36 6.96-34.8c0-2.32-1.16-4.64-1.16-5.8-13.92-3.48-27.84-6.96-40.6-10.44-10.44 0-13.92-4.64-6.96-12.76 16.24-27.84 40.6-46.4 73.08-54.52 11.6 0 23.2 2.32 33.64 9.28 10.44 4.64 13.92 2.32 12.76-8.12-2.32-12.76-2.32-25.52-1.16-38.28 0-10.44-4.64-15.08-15.08-12.76-8.12 2.32-15.08 5.8-20.88 9.28-12.76 8.12-20.88 4.64-23.2-9.28-1.16-6.96 0-15.08 2.32-22.04 11.6-18.56 24.36-34.8 38.28-49.88 15.08-15.08 31.32-26.68 51.04-34.8h13.92c23.2 8.12 45.24 17.4 68.44 26.68 17.4 10.44 34.8 23.2 49.88 37.12 5.8 9.28 8.12 19.72 6.96 31.32-6.96 25.52-12.76 52.2-18.56 76.56 1.16 3.48 1.16 6.96 1.16 10.44 2.32-3.48 5.8-4.64 10.44-5.8l20.88-20.88c6.96-6.96 15.08-12.76 24.36-17.4 8.12-3.48 13.92-9.28 16.24-16.24 3.48-8.12 5.8-16.24 6.96-23.2 2.32-18.56 8.12-34.8 16.24-49.88 10.44-16.24 23.2-30.16 37.12-42.92 8.12-5.8 15.08-6.96 23.2-2.32s12.76 10.44 13.92 19.72c1.16 8.12 2.32 17.4 3.48 26.68 8.12-4.64 15.08-9.28 20.88-13.92 24.36-18.56 47.56-38.28 69.6-59.16 12.76-10.44 26.68-13.92 41.76-9.28 58 16.24 105.56 48.72 140.36 97.44 5.8 12.76 6.96 26.68 5.8 39.44zm-605.52 182.12c5.8-10.44 6.96-20.88 1.16-32.48-1.16-3.48-1.16-8.12-1.16-12.76-6.96 0-13.92-1.16-20.88-1.16-5.8-1.16-12.76 0-18.56 4.64-27.84 24.36-42.92 55.68-44.08 93.96 0 2.32 0 4.64 1.16 6.96 2.32-1.16 5.8-2.32 9.28-4.64 15.08-11.6 31.32-22.04 47.56-33.64 10.44-4.64 19.72-11.6 25.52-20.88zm467.48-242.44c-1.16-5.8-3.48-9.28-6.96-11.6-19.72-13.92-40.6-15.08-61.48-4.64-18.56 8.12-35.96 20.88-49.88 35.96-13.92 16.24-19.72 34.8-18.56 56.84l2.32 6.96c1.16-1.16 2.32-3.48 5.8-4.64 16.24-11.6 31.32-23.2 47.56-35.96 13.92-10.44 26.68-9.28 39.44 3.48 6.96 6.96 15.08 13.92 25.52 18.56 2.32 1.16 4.64 0 6.96-2.32 3.48-19.72 6.96-40.6 9.28-62.64zm-9.28 174.01c0-4.64 0-10.44-1.16-16.24-3.48-2.32-6.96-3.48-9.28-4.64l-38.28 29c-1.16 1.16-1.16 2.32-1.16 4.64 2.32 0 3.48 0 5.8-1.16 10.44-5.8 20.88-3.48 31.32 4.64 3.48 1.16 6.96 3.48 11.6 5.8 0-4.64 1.16-8.12 1.16-12.76z" fill="#b30a0a"/></svg>