<svg viewBox="0 0 1200 1200" xmlns="http://www.w3.org/2000/svg"><path d="m1033.08 943.95c-4.64 3.48-9.28 5.8-16.24 4.64-12.76-5.8-26.68-12.76-39.44-19.72-12.76-9.28-24.36-18.56-33.64-30.16-9.28-13.92-20.88-25.52-37.12-32.48-15.08-8.12-31.32-12.76-46.4-15.08-60.32-11.6-120.64-17.4-182.12-15.08-35.96 2.32-71.92 5.8-106.72 10.44-54.52 1.16-109.04 3.48-163.56 8.12-24.36 3.48-48.72 10.44-71.92 18.56-22.04 8.12-44.08 17.4-64.96 26.68-4.64 0-8.12 1.16-11.6 4.64-17.4 15.08-39.44 23.2-63.8 24.36-12.76 1.16-25.52 4.64-38.28 9.28h-6.96c2.32-2.32 3.48-4.64 3.48-6.96 5.8-10.44 11.6-20.88 18.56-31.32 5.8-5.8 12.76-10.44 20.88-15.08 92.8-35.96 189.08-60.32 287.68-71.92 61.48-4.64 122.96-9.28 185.6-12.76 39.44 0 77.72 1.16 116 2.32l87 6.96c4.64-1.16 10.44-3.48 16.24-6.96 8.12-2.32 15.08-3.48 22.04-2.32 30.16 17.4 58 35.96 84.68 58 18.56 18.56 32.48 38.28 42.92 61.48 2.32 8.12 1.16 16.24-2.32 24.36zm-830.57-564.92c19.72-29 45.24-47.56 78.88-56.84 55.68-12.76 111.36-27.84 165.88-44.08 20.88-3.48 41.76-8.12 61.48-12.76 9.28-1.16 13.92-6.96 13.92-17.4 0-37.12 0-74.24 1.16-111.36-2.32-10.44 0-17.4 5.8-22.04s12.76-8.12 20.88-8.12c10.44-6.96 19.72-15.08 29-23.2 2.32-2.32 5.8-3.48 9.28-3.48 18.56 10.44 34.8 20.88 49.88 33.64 15.08 11.6 27.84 24.36 40.6 39.44s23.2 31.32 30.16 48.72c6.96 13.92 18.56 19.72 34.8 17.4 29 0 58-2.32 85.84-4.64 2.32 0 5.8-1.16 8.12-3.48 20.88-11.6 40.6-11.6 61.48 0 13.92 9.28 26.68 18.56 38.28 29 12.76 10.44 20.88 23.2 27.84 38.28 3.48 9.28 3.48 18.56 1.16 29-3.48 4.64-8.12 8.12-13.92 9.28-23.2-4.64-45.24-11.6-67.28-19.72-29-17.4-59.16-22.04-90.48-16.24-22.04 2.32-45.24 1.16-67.28-2.32-3.48-1.16-8.12-1.16-12.76-1.16-5.8 0-9.28 2.32-10.44 6.96-1.16 5.8-1.16 10.44 0 15.08v15.08c1.16 2.32 2.32 2.32 3.48 2.32-4.64 19.72-9.28 39.44-12.76 60.32v8.12l6.96-2.32c15.08-5.8 30.16-10.44 44.08-16.24 3.48 1.16 6.96 1.16 9.28 2.32 26.68 17.4 52.2 34.8 76.56 53.36 19.72 13.92 29 33.64 26.68 58 1.16 32.48 3.48 64.96 6.96 97.44v77.72c-1.16 26.68-4.64 52.2-10.44 78.88-3.48 6.96-8.12 12.76-15.08 16.24-2.32 2.32-4.64 4.64-8.12 5.8-5.8 5.8-11.6 12.76-17.4 18.56-5.8 6.96-11.6 11.6-18.56 16.24-15.08 6.96-30.16 6.96-46.4 1.16-16.24-6.96-31.32-15.08-45.24-25.52-6.96-5.8-15.08-9.28-24.36-10.44-11.6-1.16-24.36-1.16-37.12 0s-24.36 4.64-34.8 10.44c-16.24 4.64-33.64 8.12-51.04 10.44-31.32 4.64-62.64 9.28-93.96 12.76-12.76 0-25.52-2.32-35.96-4.64-9.28-4.64-12.76-3.48-12.76 4.64-1.16 2.32-2.32 4.64-3.48 6.96-3.48-1.16-4.64-3.48-5.8-5.8-11.6-13.92-16.24-30.16-15.08-48.72 1.16-17.4 0-33.64-2.32-51.04-1.16-16.24-2.32-33.64-2.32-51.04 0-81.2 18.56-158.92 55.68-232 10.44-24.36 29-39.44 54.52-42.92 11.6-2.32 19.72-8.12 25.52-17.4 4.64-10.44 5.8-20.88 5.8-31.32-9.28-1.16-18.56-1.16-27.84 1.16-27.84 5.8-54.52 12.76-81.2 22.04-22.04 9.28-42.92 20.88-61.48 35.96-11.6 9.28-23.2 16.24-37.12 23.2-12.76 5.8-26.68 8.12-41.76 6.96s-31.32-1.16-47.56-1.16c-8.12 0-15.08-2.32-23.2-5.8-9.28-4.64-11.6-11.6-4.64-19.72zm344.52 560.28c-9.28 25.52-24.36 46.4-46.4 62.64-24.36 20.88-53.36 33.64-84.68 40.6-31.32 5.8-61.48 12.76-92.8 18.56-11.6 1.16-22.04 2.32-33.64 4.64v-2.32c-15.08 0-30.16-1.16-45.24-1.16h-2.32c1.16-1.16 1.16-2.32 1.16-4.64l4.64-2.32c39.44-25.52 76.56-49.88 112.52-76.56 8.12-5.8 13.92-12.76 19.72-20.88 4.64-6.96 10.44-15.08 16.24-24.36 2.32-1.16 2.32-3.48 0-5.8-6.96-2.32-9.28-4.64-6.96-9.28 2.32-3.48 3.48-6.96 5.8-10.44 6.96-10.44 15.08-18.56 25.52-25.52 10.44-5.8 20.88-11.6 30.16-17.4 3.48 0 5.8 1.16 8.12 2.32 26.68 12.76 52.2 26.68 77.72 40.6 12.76 6.96 16.24 18.56 10.44 31.32zm-10.44-542.88c-19.72 9.28-39.44 19.72-58 30.16-4.64 1.16-6.96 3.48-6.96 5.8-20.88 24.36-35.96 52.2-42.92 83.52-9.28 31.32-13.92 62.64-15.08 95.12 0 31.32 1.16 63.8 4.64 95.12 1.16 10.44 5.8 12.76 13.92 4.64 5.8-2.32 11.6-2.32 16.24 0 5.8 3.48 9.28 8.12 9.28 15.08-3.48 6.96-1.16 9.28 5.8 8.12 20.88 3.48 42.92 3.48 66.12 2.32 18.56-4.64 38.28-12.76 56.84-22.04 2.32-1.16 3.48-3.48 3.48-5.8-1.16-1.16-2.32-1.16-3.48-1.16-23.2 0-45.24-4.64-64.96-13.92-19.72-8.12-38.28-19.72-56.84-33.64-3.48-1.16-6.96-3.48-10.44-4.64-15.08-5.8-18.56-16.24-11.6-30.16 12.76-24.36 25.52-48.72 39.44-71.92 1.16-2.32 4.64-5.8 6.96-10.44s2.32-6.96-2.32-9.28-8.12-4.64-11.6-4.64c-2.32-3.48-3.48-6.96-2.32-10.44 10.44-11.6 22.04-22.04 35.96-30.16 12.76-10.44 25.52-18.56 39.44-26.68 3.48-3.48 8.12-6.96 13.92-10.44 5.8-2.32 11.6-2.32 17.4 0 4.64 2.32 9.28 5.8 12.76 10.44l54.52 45.24c4.64 4.64 6.96 10.44 6.96 17.4 1.16 6.96-1.16 12.76-6.96 17.4-10.44 5.8-22.04 12.76-33.64 17.4-11.6 5.8-23.2 9.28-34.8 10.44-19.72 0-34.8 6.96-46.4 23.2-1.16 1.16-3.48 4.64-4.64 6.96 3.48 1.16 6.96 2.32 9.28 2.32h30.16c9.28 0 18.56 4.64 25.52 12.76 11.6 11.6 22.04 24.36 33.64 35.96 2.32 4.64 5.8 8.12 9.28 11.6 4.64 3.48 8.12 4.64 12.76 1.16 3.48-3.48 8.12-5.8 11.6-9.28 9.28-6.96 17.4-13.92 24.36-23.2s11.6-19.72 13.92-30.16c1.16-24.36 1.16-48.72 0-73.08h1.16c-1.16-18.56-2.32-35.96-3.48-53.36-1.16-3.48-2.32-6.96-5.8-10.44-22.04-2.32-45.24-3.48-68.44-3.48-3.48 0-6.96-1.16-10.44-2.32 0-2.32 0-5.8 1.16-9.28 12.76-12.76 26.68-24.36 40.6-37.12 1.16-2.32 3.48-4.64 6.96-6.96-3.48-1.16-5.8-3.48-8.12-5.8-9.28-3.48-19.72-8.12-30.16-11.6-6.96-4.64-13.92-6.96-22.04-8.12-22.04 1.16-42.92 6.96-62.64 17.4zm452.41 628.72c4.64 17.4 1.16 32.48-10.44 45.24s-25.52 18.56-42.92 18.56c-6.96-2.32-15.08-4.64-22.04-8.12-13.92-6.96-29-10.44-44.08-9.28-11.6-2.32-22.04-6.96-31.32-15.08-17.4-8.12-35.96-9.28-55.68-3.48-4.64 1.16-10.44 2.32-15.08 3.48h-13.92c3.48-2.32 6.96-4.64 11.6-5.8 12.76-5.8 26.68-10.44 40.6-15.08 3.48 0 6.96-1.16 9.28-3.48-3.48-1.16-6.96-2.32-10.44-3.48-19.72 2.32-39.44 5.8-58 9.28-3.48 1.16-5.8 1.16-8.12 0-6.96 0-13.92-2.32-20.88-5.8l13.92-6.96c15.08-9.28 30.16-17.4 45.24-26.68 17.4-11.6 24.36-26.68 20.88-46.4-1.16-3.48-3.48-6.96-8.12-9.28-26.68-12.76-52.2-25.52-78.88-39.44s-54.52-24.36-83.52-30.16c-2.32-2.32-3.48-5.8-3.48-8.12 9.28-5.8 19.72-10.44 30.16-13.92 23.2-1.16 46.4 1.16 69.6 5.8 30.16 5.8 60.32 13.92 90.48 22.04 31.32 9.28 59.16 22.04 85.84 39.44 40.6 26.68 70.76 61.48 89.32 106.72z" fill="#b30a0a"/></svg>