<svg viewBox="0 0 1200 1200" xmlns="http://www.w3.org/2000/svg"><path d="m798.14 566.18c-5.76 3.84-9.61 8.65-12.49 14.41 1.92 2.88 1.92 4.8 0 7.69-.96 1.92-2.88 1.92-4.8 0-2.88-1.92-4.8-2.88-5.76-2.88-12.49 2.88-24.98 4.8-37.47 5.76-28.82.96-55.72-5.76-79.74-19.21-28.82-14.41-57.64-27.86-84.54-42.27-4.8-1.92-10.57-2.88-16.33-2.88-1.92 0-4.8-.96-7.69-.96-1.92-.96-1.92-1.92-.96-3.84 1.92-.96 2.88-2.88 3.84-3.84 0-1.92-.96-3.84-2.88-5.76-3.84-3.84-8.65-6.73-14.41-9.61v2.88c3.84 39.39-7.69 72.06-34.59 98.96-3.84 4.8-4.8 9.61-4.8 14.41 1.92 3.84 5.76 5.76 9.61 6.72 39.39 10.57 73.02 29.78 101.84 58.61 9.61 13.45 17.29 28.82 21.14 46.12 3.84 10.57-.96 17.29-12.49 20.18-24.98 8.65-48.04 19.21-71.09 30.74-11.53 3.84-21.14 6.73-31.71 11.53l-7.69 7.69c3.84 0 7.69.96 10.57.96 2.88.96 6.72 1.92 10.57 1.92h18.25c20.18.96 36.51 9.61 48.04 26.9 2.88 4.8 4.8 9.61 4.8 15.37s-2.88 9.61-7.69 11.53c-5.76.96-10.57 1.92-16.33.96-30.74 0-61.49-.96-92.23-2.88-27.86-2.88-55.72-6.73-83.58-12.49-11.53-4.8-14.41-1.92-10.57 9.61-4.8 7.69-11.53 12.49-20.18 15.37-10.57.96-20.17-2.88-28.82-9.61-31.7-28.82-62.45-59.57-94.15-91.27-4.8-4.8-7.69-9.61-10.57-16.33-2.88-5.76-2.88-12.49 0-19.21 2.88-5.76 5.76-11.53 10.57-16.33 6.73-8.65 13.45-18.25 20.18-26.9 1.92-1.92 2.88-4.8 1.92-6.73-8.65-2.88-17.29-3.84-25.94-.96-5.76 14.41-12.49 29.78-17.29 45.15-2.88 3.84-5.76 7.69-7.69 11.53-21.14 23.06-42.27 45.15-65.33 66.29-5.76 3.84-10.57 7.69-14.41 12.49-3.84 5.76-5.76 11.53-5.76 18.25-4.8 2.88-8.65 4.8-13.45 4.8-7.69-4.8-14.41-9.61-21.14-14.41-3.84-3.84-3.84-7.69-2.88-11.53 9.61-18.25 20.18-37.47 30.74-56.68.96-1.92 1.92-2.88 3.84-3.84v4.8c-.96 1.92-.96 4.8-.96 7.69l3.84 8.65c2.88-.96 5.76-1.92 8.65-3.84 50.92-46.12 86.47-101.84 105.68-167.17 2.88-5.76 4.8-11.53 6.73-17.29 1.92-5.76 3.84-11.53 2.88-18.25 0-6.73-3.84-11.53-10.57-14.41s-7.69-6.72-2.88-11.53l71.09-63.41 11.53-3.84c-.96 2.88-1.92 6.73-2.88 10.57l-1.92 5.76c1.92-.96 3.84-.96 6.72-.96l45.16-21.14c28.82-12.49 58.6-24.98 89.35-38.43.96-1.92 1.92-3.84 1.92-5.76-14.41-20.18-28.82-40.35-43.23-59.57-3.84-1.92-6.73-1.92-9.61 0s-6.73 3.84-9.61 7.69c-3.84 3.84-4.8 7.69-1.92 11.53 1.92 4.8 3.84 8.65 6.73 11.53 6.72 11.53 10.57 24.02 14.41 37.47-1.92 4.8-4.8 7.69-8.65 9.61-23.06-4.8-44.19-1.92-64.37 9.61h-6.73c.96-.96 1.92-1.92 2.88-3.84 2.88-5.76 5.76-11.53 9.61-16.33-5.76 2.88-11.53 6.73-17.29 10.57-1.92.96-3.84 2.88-5.76 4.8-.96.96-1.92 1.92-2.88 1.92v-4.8c2.88-5.76 6.73-10.57 10.57-15.37v-6.73c-1.92 1.92-3.84 1.92-4.8 1.92-6.73 8.65-12.49 15.37-19.21 23.06-8.65 8.65-18.25 18.25-27.86 28.82-17.29 16.33-32.67 33.63-46.12 52.84-15.37 19.21-30.74 40.35-46.12 61.49-14.41 21.14-31.71 41.31-49.96 59.57-4.8 3.84-8.65 8.65-10.57 14.41-10.57 17.29-24.98 30.74-43.23 39.39-5.76 2.88-10.57 7.69-14.41 13.45-7.69 7.69-15.37 16.33-23.06 24.02-4.8 7.69-12.49 8.65-21.14 2.88-3.84-1.92-7.69-5.76-11.53-9.61-2.88-3.84-3.84-8.65-.96-14.41 7.69-17.29 17.29-32.67 27.86-48.04.96-.96 2.88-1.92 4.8-.96 15.37 6.72 29.78 3.84 42.27-6.73 59.57-48.04 108.56-104.72 146.99-170.05 19.21-27.86 38.43-55.72 57.64-82.62 10.57-19.21 21.14-38.43 31.71-58.6 0-1.92-.96-3.84-2.88-4.8-2.88-2.88-5.76-3.84-8.65-4.8-12.49 0-24.98-3.84-34.59-11.53-9.61-6.73-19.21-15.37-26.9-24.98-4.8-4.8-9.61-4.8-14.41-.96-7.69 4.8-15.37 6.73-24.02 7.69-27.86.96-54.76 0-81.66-2.88-6.73 0-12.49-1.92-17.29-6.73-4.8-1.92-8.65-4.8-12.49-9.61-2.88-4.8-2.88-9.61 0-15.37 1.92-4.8 4.8-9.61 6.72-14.41 10.57-14.41 23.06-24.98 39.39-31.71 15.37-5.76 32.67-8.65 49-8.65 6.72 0 11.53-.96 17.29-1.92 2.88-1.92 4.8-3.84 5.76-7.69-.96-21.14-1.92-43.23-2.88-64.37 0-2.88 1.92-4.8 3.84-6.73 10.57-3.84 17.29-12.49 20.17-24.98 2.88-10.57 7.69-18.25 16.33-24.98 2.88 0 5.76 0 8.65 1.92 3.84 1.92 6.73 2.88 8.65 4.8 9.61 4.8 18.25 10.57 26.9 17.29 25.94 17.29 45.15 40.35 57.64 67.25 2.88 8.65 3.84 16.33 2.88 25.94l-3.84.96c-10.57 3.84-16.33 10.57-16.33 21.14 0 8.65 0 17.29-.96 25.94 7.69-2.88 15.37-6.73 22.1-11.53l31.7-17.29c3.84-.96 7.69-.96 11.53.96.96.96 1.92 2.88.96 4.8 0 1.92-.96 3.84-1.92 5.76-11.53 12.49-24.02 24.02-36.51 36.51-4.8 6.73-9.61 13.45-13.45 20.18-.96 1.92-.96 3.84 0 5.76 1.92 0 3.84 0 5.76-1.92 10.57-10.57 22.1-21.14 33.63-31.71 5.76-5.76 12.49-10.57 21.14-13.45 8.65-1.92 16.33 0 24.02 5.76 2.88 0 4.8-1.92 7.69-3.84 6.72-18.25 12.49-36.51 17.29-54.76 0-3.84-1.92-5.76-3.84-6.72-8.65-.96-16.33-1.92-24.98-2.88l19.21-13.45c6.73-10.57 16.33-16.33 27.86-18.25 4.8-4.8 6.73-9.61 6.73-16.33 4.8-19.21 9.61-38.43 12.49-56.68.96-2.88 1.92-4.8 1.92-5.76-2.88-9.61-.96-16.33 7.69-21.14 11.53-11.53 23.06-23.06 34.59-33.63 3.84-1.92 6.72-2.88 10.57-1.92 12.49 8.65 24.98 17.29 36.51 26.9s20.18 22.1 26.9 36.51c6.73 14.41 5.76 27.86-2.88 40.35 0 1.92-.96 3.84-1.92 4.8.96.96 2.88.96 4.8.96 2.88 0 7.69-1.92 11.53-3.84s7.69-1.92 12.49 0c24.02 11.53 43.23 27.86 57.64 49.96 1.92 4.8 3.84 9.61 4.8 14.41 2.88 7.69 1.92 14.41-2.88 19.21-4.8 8.65-13.45 12.49-24.02 10.57-17.29-6.73-33.62-13.45-49.96-19.21-4.8-2.88-9.61-4.8-15.37-5.76s-11.53.96-15.37 3.84c-4.8 3.84-8.65 7.69-11.53 11.53-13.45 20.17-28.82 37.47-46.12 54.76-7.69 8.65-17.29 16.33-28.82 21.14-6.73 2.88-6.73 5.76-.96 8.65 14.41 11.53 18.25 25.94 11.53 42.27 0 3.84.96 6.73 1.92 9.61 22.1 52.84 59.57 90.31 112.41 110.49 19.21 6.73 36.51 4.8 53.8-6.73 6.73-6.72 13.45-6.72 19.21 0 6.73 8.65 15.37 15.37 24.02 21.14 25.94 24.02 46.12 51.88 58.61 85.51 0 0 .96.96 1.92 1.92zm-321.84 58.6c-2.88-.96-5.76-2.88-9.61-4.8-2.88-1.92-5.76-2.88-8.65-2.88-15.37 3.84-29.78 7.69-44.19 14.41-24.98 9.61-50.92 21.14-75.9 32.67-5.76 1.92-8.65 5.76-11.53 11.53-.96 5.76-4.8 10.57-9.61 13.45-4.8 1.92-10.57 4.8-15.37 6.72-6.72 3.84-12.49 7.69-19.21 9.61l-15.37 13.45c-7.69 3.84-7.69 8.65-.96 13.45 13.45 11.53 26.9 22.1 40.35 32.67 5.76 3.84 11.53 5.76 18.25 6.72h14.41c3.84 0 6.73 2.88 8.65 7.69 2.88 0 4.8 0 5.76-1.92 27.86-22.1 55.72-45.15 83.58-67.25 1.92-.96 3.84-1.92 4.8-4.8-1.92.96-3.84.96-6.73.96-5.76 1.92-10.57 2.88-16.33 3.84-10.57 2.88-22.1 4.8-33.62 7.69-5.76 1.92-12.49 3.84-19.21 5.76-2.88 0-5.76-1.92-7.69-4.8 0-2.88 0-4.8.96-6.72 8.65-9.61 16.33-18.25 24.98-26.9 25.94-25.94 54.76-45.16 88.39-56.68l3.84-3.84zm-205.6 10.57c4.8-2.88 9.61-4.8 14.41-6.72 4.8-.96 8.65-2.88 12.49-5.76 1.92-3.84 4.8-6.73 8.65-8.65 3.84-1.92 6.73-3.84 8.65-7.69 1.92-3.84 1.92-7.69-.96-12.49 2.88-.96 3.84-1.92 4.8-2.88 3.84-4.8 6.72-8.65 8.65-13.45-2.88-1.92-6.73-4.8-9.61-5.76-1.92-2.88-2.88-5.76-4.8-7.69l49-39.39c6.73-4.8 14.41-5.76 22.1-3.84s13.45 6.72 18.25 12.49c4.8 6.73 9.61 13.45 12.49 20.18 3.84 6.73 5.76 14.41 6.73 21.14-1.92 5.76-5.76 8.65-10.57 10.57-17.29 0-34.59 0-51.88-.96-6.73.96-13.45 2.88-19.21 6.72 0 .96 0 1.92.96 2.88 2.88 2.88 5.76 4.8 9.61 5.76-3.84.96-6.73 1.92-10.57 1.92-4.8 0-8.65-.96-12.49-1.92-2.88 2.88-4.8 5.76-7.69 8.65-1.92 4.8-2.88 9.61-1.92 14.41 3.84 3.84 8.65 5.76 13.45 4.8 30.74-11.53 60.53-24.98 91.27-39.39 2.88-2.88 6.72-5.76 8.65-10.57 6.72-21.14 13.45-43.23 21.14-64.37 0-7.69-1.92-14.41-6.72-20.18-3.84-5.76-10.57-8.65-19.21-8.65-14.41 1.92-28.82 3.84-44.19 6.73-15.37 3.84-27.86 10.57-38.43 21.14-9.61 7.69-19.21 15.37-29.78 22.1-9.61 7.69-15.37 18.25-15.37 31.71-.96 9.61-3.84 19.21-7.69 27.86-4.8 8.65-8.65 17.29-13.45 25.94-1.92 4.8-4.8 10.57-6.72 15.37zm116.25-270.93c0-1.92 0-2.88-.96-2.88h-1.92c-6.73 5.76-13.45 11.53-19.21 17.29 0 1.92 0 3.84.96 3.84 6.72-6.72 14.41-12.49 21.14-18.25z"/><path d="m776.48 1133.05c.68 2.72.68 5.44 0 8.16-4.08 12.24-8.16 24.48-12.92 36.04-.68 2.04-2.04 4.76-4.08 7.48-1.36 2.04-4.08 3.4-6.8 2.04s-5.44-2.04-6.8-3.4c-30.6-15.64-53.04-38.76-68.68-68.68-10.88-18.36-20.4-37.4-28.56-55.76-2.04-4.76-2.04-8.84.68-12.24 2.04-4.08 5.44-6.8 8.84-9.52l40.12-44.88c3.4-4.08 2.72-7.48-2.72-8.84-11.56-4.08-20.4-10.88-26.52-21.08-6.8-10.2-12.24-20.4-16.32-31.28-.68-2.72 0-6.12.68-9.52 6.8-13.6 14.28-27.88 22.44-41.48 2.04-3.4 4.76-6.8 7.48-9.52 2.72-3.4 4.76-6.8 6.12-10.88-.68-4.08-5.44-11.56-14.28-22.44s-17-23.12-25.16-36.72c-8.16-12.92-7.48-26.52.68-40.12 24.48-41.48 57.12-76.84 96.56-106.08 10.2-7.48 21.08-14.96 32.64-21.76 2.72-.68 4.76-1.36 6.8-1.36 2.04.68 4.76.68 7.48 0 4.76-3.4 9.52-4.08 12.92-.68 4.08 2.72 7.48 6.12 9.52 10.88 5.44 4.76 10.2 10.2 14.96 16.32 6.8 8.16 10.2 17.68 10.2 27.88-.68 10.88-2.04 21.08-6.12 30.6-1.36 2.04-2.04 4.76-2.72 6.8-2.72 14.96-10.88 25.84-25.84 33.32-3.4 2.72-6.8 6.12-10.2 10.2-5.44 4.08-5.44 8.16 0 12.92 8.16 9.52 14.28 19.72 19.72 31.28 4.08 8.16 6.12 17 6.8 25.84 0 6.8-2.04 12.24-6.8 17-8.16 9.52-16.32 18.36-24.48 26.52-1.36 3.4-.68 6.8 1.36 10.2 6.8 8.84 12.92 17.68 19.72 27.2 3.4 6.8 5.44 13.6 6.8 21.76.68 1.36 0 2.72-.68 4.76-10.88 13.6-23.12 27.2-35.36 40.8-5.44 2.72-10.88 4.08-17 4.76-12.24 5.44-25.16 9.52-38.08 14.28-4.08 1.36-7.48 2.04-11.56 2.72-3.4 0-6.8 1.36-10.2 3.4-10.88 6.8-20.4 14.96-29.92 25.16-2.72 5.44-4.08 10.88-4.76 17l9.52 25.16c4.08 8.84 7.48 18.36 10.88 27.2 6.12 19.04 18.36 31.96 36.04 40.12 8.84 3.4 16.32 6.8 23.8 10.88 4.08 2.04 6.12 1.36 6.12-3.4 1.36-6.8 2.72-13.6 3.4-21.08l2.72-2.04c1.36 6.12 4.76 7.48 11.56 4.08zm407.31-3.4c-3.4 2.72-6.12 3.4-9.52 3.4-10.88 0-20.4-3.4-28.56-10.88-6.12-6.8-13.6-10.88-21.76-11.56-8.84-.68-17-.68-25.84.68-6.8 1.36-12.92 2.04-19.72 2.72l-2.72-1.36c0-1.36.68-2.04 2.04-2.04 7.48-2.72 14.96-6.12 23.12-9.52 10.2-4.76 12.24-12.24 6.8-21.76-5.44-8.84-10.88-17-17-25.84-2.04-2.04-4.08-3.4-6.8-4.08-14.96-1.36-29.92-3.4-44.88-4.76-14.96 4.08-29.92 7.48-44.2 10.88-6.12 1.36-12.24.68-18.36-1.36-10.2-2.72-20.4-2.04-29.24 3.4-30.6 12.24-59.84 23.8-89.08 35.36-8.84 1.36-16.32 3.4-23.8 5.44-6.8 2.04-12.24 4.76-18.36 7.48-2.72 1.36-6.12 2.04-8.84 3.4h-31.96c-1.36 0-2.04 0-2.04-1.36-.68 0-.68-.68 0-1.36 1.36-2.04 2.04-4.08.68-6.8s-2.04-4.76-2.04-7.48c.68-2.04 2.04-4.08 4.76-4.76 4.08-2.72 8.16-6.12 10.88-10.88 2.72-2.72 5.44-5.44 8.84-7.48 2.72-2.04 6.12-2.04 9.52 0 2.72-.68 4.76-1.36 6.8-2.04-.68-2.72-2.04-4.08-3.4-6.12-4.76-5.44-9.52-11.56-13.6-17.68-3.4-4.08-7.48-4.76-11.56-2.04l-4.08 2.72c-4.76 2.04-9.52 4.08-14.28 6.8-4.08 2.04-7.48 6.12-9.52 11.56 0 5.44.68 10.2 2.72 15.64 1.36 5.44 2.72 10.88 3.4 15.64.68 3.4 1.36 6.8 1.36 10.2 0 4.08-1.36 6.8-4.76 8.84-6.8 4.08-12.92 2.72-18.36-3.4-10.2-10.88-20.4-21.76-29.92-32.64-.68-1.36 0-2.72.68-4.08s1.36-3.4 2.72-5.44c2.04-12.92 8.84-22.44 19.72-29.92 4.76-1.36 8.84-.68 12.92 2.04 1.36 4.76 3.4 6.8 7.48 6.8s7.48-.68 10.88-2.04c18.36-5.44 33.32-15.64 44.88-30.6 5.44-8.84 8.84-8.16 10.88 2.04 3.4 14.28 5.44 29.24 8.16 44.2 0 .68 1.36 1.36 2.72 1.36 11.56-5.44 23.8-10.88 35.36-17 12.24-6.8 23.12-14.28 33.32-23.8 5.44-6.8 9.52-14.96 13.6-23.8 6.8-16.32 13.6-32.64 20.4-48.96 8.16-17 6.12-32.64-6.12-46.24-2.72-2.04-4.76-4.76-6.12-7.48-1.36-11.56-6.8-20.4-16.32-26.52-8.84-6.12-17.68-12.24-26.52-17-11.56-8.84-22.44-18.36-31.96-29.92.68-4.08 2.72-8.16 6.8-12.24 8.84-8.84 19.04-17 29.92-23.8 3.4-2.72 7.48-3.4 11.56-2.72 8.16 3.4 16.32 4.08 25.16 2.72 8.84-2.04 17-4.76 24.48-8.16 16.32-6.12 28.56-17 37.4-32.64 2.04-2.72 4.08-6.12 6.8-8.84 13.6-8.84 26.52-18.36 40.12-27.2 2.72-1.36 5.44-1.36 8.16 0 21.76 13.6 42.16 28.56 61.88 44.88 16.32 15.64 25.16 34.68 26.52 57.8v1.36c0 2.04.68 4.08.68 6.8.68 2.72 0 4.76-.68 6.8-6.12 6.12-12.92 10.88-20.4 14.28h-5.44c-7.48-2.04-14.96-2.72-22.44-2.72-8.84 2.72-17 6.12-25.16 10.2-15.64 10.2-31.28 19.04-46.92 27.2-12.24 6.12-14.96 14.96-7.48 26.52 8.84 14.28 16.32 29.24 23.8 44.88 10.88 21.76 8.16 42.16-6.8 61.88l-9.52 8.16c-1.36 2.04-2.72 5.44-3.4 8.16 1.36 2.72 4.08 4.08 6.8 4.08 25.16 2.04 51 4.76 76.16 8.16 10.2 1.36 19.72 4.08 29.92 8.16 2.04 1.36 4.08 2.04 6.8.68 11.56 1.36 21.08 6.12 28.56 15.64 11.56 13.6 22.44 27.88 32.64 42.84 2.04 5.44 3.4 10.88 4.08 17 .68 4.08-.68 6.8-3.4 9.52z"/></svg>