<svg viewBox="0 0 1200 1200" xmlns="http://www.w3.org/2000/svg"><path d="m708.6 514.82c-3.54 4.43-8.86 7.09-13.29 7.09-8.86.89-16.83-.89-23.04-6.2-7.09-4.43-13.29-8.86-18.61-14.18-7.97-6.2-16.83-7.97-26.58-4.43-17.72 7.97-37.21 15.95-55.82 22.15-1.77.89-3.54.89-5.32.89.89-.89 2.66-1.77 3.54-2.66 15.95-7.97 31.9-15.06 48.73-22.15 18.61-9.75 20.38-22.15 5.32-36.33-13.29-13.29-27.47-24.81-42.53-34.55-13.29-7.97-27.47-15.06-41.64-21.26-14.18-7.09-28.35-13.29-42.53-18.61-14.18-4.43-29.24-6.2-43.41-7.97-7.97-.89-15.95-2.66-23.04-4.43-27.47-7.97-52.27-2.66-72.65 16.83-9.75 7.09-18.61 14.18-28.35 19.49-14.18 9.75-28.35 18.61-41.64 28.35-3.54 1.77-6.2 3.54-9.75 3.54-19.49 3.54-31.9 14.18-37.21 32.78-2.66 5.32-5.32 11.52-7.97 16.83-18.61 38.1-23.04 77.97-12.4 120.5 1.77 3.54 3.54 6.2 6.2 8.86s4.43 5.32 6.2 7.97c.89 3.54 0 6.2-1.77 8.86s-2.66 5.32-3.54 7.97c2.66-.89 4.43-1.77 7.09-2.66 23.92-6.2 47.84-12.4 71.77-18.61 21.26-5.32 41.64-10.63 62.02-16.83 7.09-3.54 13.29-7.97 19.49-14.18 1.77-.89 3.54-2.66 4.43-4.43 10.63-4.43 16.83-11.52 19.49-21.26 3.54-9.75 3.54-19.49 2.66-29.24.89-34.55 2.66-69.11 5.32-102.78.89-2.66 0-4.43-.89-5.32-7.97-4.43-16.83-7.97-25.69-10.63-5.32 2.66-9.75 7.09-14.18 11.52-3.54 2.66-7.97 6.2-12.4 9.75-1.77-4.43-1.77-8.86 0-14.18 1.77-7.97 6.2-14.18 11.52-19.49 21.26-13.29 44.3-22.15 69.99-24.81 9.75-.89 19.49 1.77 28.35 7.97 25.69 15.06 47.84 34.55 64.68 59.36 8.86 15.06 7.97 29.24-3.54 41.64-2.66 3.54-4.43 7.09-5.32 11.52v65.56c.89 24.81.89 49.62 0 74.42-2.66 25.69-15.95 41.64-39.87 49.62-13.29 6.2-24.81 4.43-35.44-6.2-14.18-10.63-30.12-11.52-46.96-4.43-11.52 7.09-22.15 15.06-33.67 23.04 0 2.66 0 4.43 1.77 5.32 4.43 2.66 9.75 4.43 14.18 5.32 34.55 7.97 69.11 15.06 104.55 22.15l54.05 1.77c14.18 1.77 28.35 4.43 41.64 9.75 17.72 6.2 33.67 15.06 49.62 24.81 8.86 6.2 10.63 14.18 4.43 23.92-2.66 8.86-7.97 15.95-15.06 23.04-7.09 2.66-15.06 2.66-22.15 0-5.32-2.66-10.63-4.43-16.83-6.2-5.32-1.77-10.63-.89-15.95 1.77-3.54 0-7.09-.89-9.75-2.66-.89-1.77-2.66-1.77-5.32-1.77l-8.86 7.09h-4.43c0-1.77.89-2.66.89-4.43 4.43-6.2 7.97-12.4 10.63-18.61 0-5.32-2.66-9.75-6.2-13.29-2.66-3.54-6.2-7.09-9.75-9.75-3.54-3.54-7.09-5.32-11.52-7.09-13.29-4.43-26.58-7.97-39.87-11.52-2.66-.89-4.43-1.77-7.09-2.66-15.06-1.77-31.01-4.43-45.19-7.97-14.18-1.77-28.35-.89-42.53 2.66-9.75 1.77-19.49 0-28.35-4.43-15.95-6.2-29.24-2.66-39.87 11.52-6.2 4.43-12.4 8.86-20.38 12.4-3.54 0-6.2.89-8.86 2.66-1.77 7.09-5.32 11.52-12.4 12.4-6.2.89-12.4-.89-18.61-4.43-7.97-5.32-16.83-6.2-25.69-2.66s-16.83 7.09-24.81 10.63c-1.77 1.77-4.43 1.77-6.2 2.66.89-1.77 2.66-3.54 4.43-5.32 3.54-3.54 7.09-7.09 10.63-9.75 1.77-1.77 2.66-4.43 3.54-6.2-1.77.89-4.43.89-7.09 0h-11.52c-7.97 0-15.95.89-23.92 2.66-2.66-.89-5.32 0-7.09 1.77l2.66-7.09c20.38-21.26 40.76-43.41 60.25-64.68 4.43-5.32 9.75-10.63 15.06-15.06.89-1.77.89-3.54.89-6.2-1.77.89-2.66.89-4.43 1.77-7.97 8.86-16.83 17.72-26.58 24.81-9.75 4.43-19.49 7.09-30.12 8.86-19.49 4.43-36.33 13.29-50.5 26.58-1.77.89-3.54 1.77-5.32 2.66-10.63 3.54-19.49 2.66-27.47-4.43 0 0 0-.89-.89-.89 0 .89-.89.89-1.77.89-2.66 0-5.32.89-7.97.89-3.54.89-6.2.89-7.97-.89-7.97-6.2-11.52-15.06-12.4-24.81 3.54-8.86 9.75-15.95 19.49-21.26 21.26-16.83 42.53-32.78 65.56-46.96 3.54-.89 7.09-.89 11.52 0 0 3.54-.89 6.2-2.66 9.75-1.77 3.54-4.43 7.97-6.2 10.63 3.54 0 7.97 0 12.4-1.77 14.18-.89 19.49-8.86 15.06-21.26-7.97-30.12-8.86-60.25-3.54-89.49 7.09-37.21 21.26-71.77 43.41-102.78 6.2-7.97 4.43-12.4-5.32-14.18-14.18-2.66-28.35-5.32-42.53-8.86-5.32-.89-8.86-2.66-10.63-7.09s0-8.86 3.54-12.4c16.83-15.06 32.78-30.12 49.62-45.19 3.54-4.43 6.2-3.54 7.09 1.77.89 1.77 1.77 3.54 4.43 3.54 4.43 0 8.86 0 13.29-1.77 18.61-11.52 36.33-23.04 54.05-34.55 1.77-1.77 2.66-4.43 1.77-7.09-2.66-.89-4.43-.89-7.09 0-4.43 1.77-8.86 0-12.4-5.32-2.66-5.32-7.97-9.75-14.18-13.29-13.29-7.09-21.26-16.83-25.69-31.01-.89-7.09-3.54-7.09-7.97-1.77-20.38 21.26-39.87 43.41-58.48 65.56-14.18 16.83-23.92 35.44-29.24 57.59-3.54 10.63-9.75 21.26-16.83 30.12-13.29 15.95-24.81 32.78-36.33 49.62-6.2 5.32-13.29 8.86-22.15 8.86-8.86.89-15.95-1.77-23.04-6.2-11.52-15.06-22.15-31.01-31.01-46.96-.89-2.66 0-4.43 1.77-7.09 14.18-22.15 30.12-45.19 45.19-67.34 7.09-11.52 12.4-10.63 16.83 1.77 1.77 9.75 7.09 12.4 15.95 7.09 16.83-10.63 33.67-22.15 49.62-34.55 20.38-15.06 39.87-31.01 59.36-46.96 24.81-17.72 44.3-39.87 58.48-66.45 30.12-55.82 70.88-101 124.04-135.56 16.83-11.52 36.33-19.49 56.7-23.04 10.63-.89 19.49.89 28.35 7.09 25.69 10.63 46.96 26.58 63.79 47.84 4.43 5.32 7.09 11.52 8.86 18.61 3.54 11.52-.89 19.49-11.52 23.04-10.63 1.77-19.49 4.43-27.47 9.75-6.2 5.32-13.29 8.86-22.15 8.86-7.97 0-15.95 1.77-22.15 6.2-7.09 2.66-12.4 6.2-18.61 9.75-.89 2.66-2.66 4.43-4.43 5.32 2.66.89 4.43 1.77 6.2 2.66h2.66c16.83-5.32 32.78-3.54 47.84 3.54 15.06 7.09 30.12 15.95 43.41 25.69 14.18 9.75 25.69 20.38 35.44 33.67 6.2 11.52 9.75 22.15 10.63 33.67 0 8.86-5.32 14.18-14.18 15.06-22.15-.89-44.3.89-65.56 4.43-18.61 6.2-37.21 14.18-54.93 23.04 0 1.77-.89 2.66-1.77 2.66l3.54 1.77c10.63 2.66 22.15 6.2 32.78 9.75 2.66.89 3.54 1.77 5.32 3.54-1.77 0-3.54 0-5.32-.89h-4.43l2.66 2.66c7.09 2.66 15.06 5.32 22.15 8.86 7.97 3.54 15.95 3.54 23.92 1.77 7.09.89 13.29 3.54 18.61 7.09 37.21 15.95 71.77 35.44 104.55 58.48 23.04 16.83 38.1 39.87 45.19 68.22 1.77 5.32.89 10.63-3.54 15.06zm-603.36-361.49c14.18-13.29 29.24-24.81 45.19-35.44 7.97-2.66 15.06-2.66 23.04 0 7.09 2.66 14.18 7.09 19.49 11.52 18.61 14.18 35.44 29.24 50.5 46.96 7.09 10.63 12.4 22.15 14.18 34.55 0 3.54 0 7.97-.89 13.29 0 4.43-2.66 7.97-7.09 8.86-5.32.89-8.86.89-13.29-.89-17.72-3.54-35.44-5.32-54.05-6.2-4.43.89-7.97 3.54-10.63 7.09-14.18 12.4-28.35 25.69-42.53 38.1-1.77 2.66-4.43 4.43-7.09 5.32 0-3.54.89-7.09 2.66-9.75 2.66-4.43 5.32-8.86 8.86-11.52 13.29-17.72 15.06-36.33 7.09-55.82-.89-.89-1.77-1.77-1.77-4.43-3.54-16.83-13.29-26.58-31.01-29.24-7.97-2.66-8.86-6.2-2.66-12.4zm188.71 353.52c-7.97 9.75-14.18 20.38-20.38 31.9q-.89 0 0 .89s0 .89.89.89c.89 1.77 2.66 2.66 4.43 3.54 3.54 0 7.97-.89 13.29-2.66 11.52-6.2 23.92-6.2 35.44-1.77 11.52 5.32 20.38 12.4 28.35 23.04 3.54 4.43 7.97 8.86 10.63 13.29 10.63 8.86 9.75 15.06-1.77 20.38-5.32 2.66-10.63 4.43-16.83 5.32-19.49-3.54-39.87-7.09-59.36-11.52h-24.81c-7.97-1.77-16.83-4.43-24.81-8.86 0-3.54.89-5.32 1.77-7.97 6.2-10.63 13.29-20.38 19.49-29.24 4.43-5.32 7.97-9.75 11.52-15.06 1.77-2.66 3.54-6.2 5.32-9.75 1.77-3.54.89-7.09-2.66-8.86-3.54-1.77-6.2-3.54-9.75-3.54-16.83-6.2-18.61-15.06-5.32-26.58 20.38-15.06 39.87-30.12 61.13-43.41 3.54-.89 7.97-.89 11.52 0 12.4 3.54 23.04 9.75 31.9 18.61 7.97 8.86 15.95 17.72 23.92 27.47 7.09 8.86 5.32 15.06-5.32 18.61-12.4 3.54-25.69 6.2-38.98 9.75-13.29 2.66-26.58.89-39.87-4.43-2.66-.89-6.2-.89-9.75 0zm182.52-221.5c4.43-9.75 7.97-18.61 11.52-29.24-2.66-.89-6.2-2.66-9.75-3.54-24.81 1.77-46.96 8.86-68.22 23.04-5.32 2.66-6.2 6.2-1.77 10.63 7.09 6.2 12.4 12.4 18.61 19.49 2.66 7.09 5.32 13.29 7.09 20.38-.89 1.77-1.77 4.43-1.77 7.09 3.54 0 6.2-1.77 8.86-3.54 12.4-14.18 23.92-29.24 35.44-44.3z"/><path d="m1164.93 892.2c-.66 3.32-3.32 5.31-6.64 5.98-19.26 5.31-37.85 11.29-55.78 18.59-15.27 7.3-29.88 14.61-45.15 22.58-3.98 1.33-8.63 3.32-12.62 5.31-4.65 1.99-7.3 5.31-8.63 9.96-.66 4.65-1.33 9.3-1.33 13.94-1.33 9.3-3.32 18.59-5.98 27.22v7.3c5.98 11.95 6.64 24.57.66 36.52v3.32c3.32 3.98 4.65 9.3 3.98 14.61-.66 5.98-.66 11.29-.66 16.6-.66 7.3 0 14.61 3.32 21.91 4.65 12.62 9.96 24.57 14.61 37.18 1.99 5.31 3.32 11.29 3.32 17.26.66 5.98-1.33 11.95-4.65 16.6-2.66 3.98-5.31 5.98-9.3 6.64-3.98.66-7.97 0-11.29-1.99-2.66-1.33-4.65-3.32-6.64-5.98-8.63-4.65-10.62-11.95-5.98-21.25 1.33-5.31 1.99-11.29 1.99-17.93v-19.92c.66-18.59 1.33-36.52 1.99-55.11-.66-6.64-.66-12.62-.66-19.26v-44.49l-1.33-28.55c0-3.98-1.33-5.31-4.65-3.32-13.94 4.65-27.89 9.96-42.5 14.61-8.63 3.98-17.26 9.3-25.23 15.27-9.3 5.98-18.59 12.62-27.89 20.58-5.98 5.31-11.95 10.62-17.93 16.6-3.98 3.98-8.63 7.97-13.94 11.29-10.62 7.3-21.25 13.28-32.54 18.59-15.27 6.64-26.56 2.66-35.86-10.62-2.66-3.32-5.31-7.3-7.97-11.29 5.98-8.63 11.95-17.26 18.59-25.9.66-1.99 2.66-3.98 3.98-5.98 3.98-2.66 7.3-4.65 11.95-6.64 9.96-2.66 16.6-8.63 19.92-18.59 4.65-12.62 9.96-24.57 15.94-35.86 2.66-8.63 3.98-17.93 5.31-27.22 0-1.33-.66-2.66-.66-3.98l-3.32 1.33c-9.96 8.63-19.92 18.59-29.22 29.22-4.65 7.3-11.29 13.94-18.59 19.92-3.98 1.33-7.3 3.98-9.96 7.97-1.99 2.66-2.66 5.98-2.66 9.96-.66 1.33-1.33 1.99-1.99 2.66-9.3 3.32-17.93 7.97-24.57 15.27s-13.94 13.28-21.25 19.26c-1.33.66-1.99 1.99-1.99 3.32-2.66 11.29-3.98 22.58-3.98 33.86 1.99 11.29 7.3 21.25 15.27 29.22 9.3 11.29 16.6 23.24 21.25 36.52 1.33 4.65 1.33 8.63 0 12.62 0 .66 0 1.33-1.33 1.99-7.3-1.33-14.61-3.32-21.91-5.31-6.64-4.65-13.28-8.63-19.92-13.94-8.63-3.98-15.27-10.62-19.26-19.92-5.98-9.3-12.62-18.59-21.25-27.89-9.3-12.62-20.58-21.91-33.86-29.22-13.28-6.64-26.56-13.94-39.84-21.25-4.65-3.32-9.96-6.64-14.61-9.96-1.33-1.99-1.99-3.98-1.33-5.98 2.66-1.33 4.65-2.66 6.64-2.66l7.97 3.32c11.95 7.3 23.9 13.94 35.86 19.92 1.33 0 3.32.66 4.65.66-1.33-1.33-1.99-1.99-2.66-1.99-8.63-5.31-17.26-10.62-25.9-15.27-.66-.66-1.33-1.33-1.99-2.66 1.33 0 1.99.66 2.66 1.33 3.98 1.33 7.3 3.32 11.29 5.31h4.65c-.66-1.33-1.33-3.32-1.99-5.31-9.96-13.94-8.63-27.22 3.32-39.18 9.3-11.95 17.93-23.9 25.9-37.18.66-1.33 0-1.99-.66-2.66-11.29.66-22.58-1.99-32.54-7.97-9.96-6.64-18.59-13.94-26.56-22.58-2.66-2.66-5.98-5.31-8.63-7.97-2.66-2.66-4.65-5.98-5.31-10.62.66-3.98 2.66-7.3 5.31-9.96 2.66-2.66 4.65-5.98 7.3-9.3 3.98-7.3 7.97-13.94 11.29-21.25 5.31-7.3 10.62-7.3 16.6-.66 1.99 1.33 3.98 1.99 5.98 1.99 2.66.66 4.65 0 5.98-1.99 13.28-7.97 27.22-15.94 40.5-23.9 12.62-7.97 16.6-19.26 13.28-33.86-1.99-21.91-4.65-43.16-7.97-65.07-2.66-15.94-.66-31.87 5.98-46.48 7.97-9.96 16.6-17.93 26.56-24.57 3.32-1.99 5.98-1.99 9.3 0 2.66 1.33 5.31 3.98 6.64 6.64s2.66 5.31 2.66 8.63c.66 12.62 1.33 25.9 1.99 39.18.66 4.65 3.32 5.98 7.3 3.32 5.98-1.99 11.95-3.98 17.93-6.64 4.65-2.66 9.3-5.31 13.94-7.97 1.99-1.99 4.65-1.99 7.97-1.33 15.27 9.3 30.54 19.26 45.82 29.88 5.31 4.65 10.62 10.62 13.94 16.6 1.33 1.99 1.33 4.65.66 7.3 1.33 3.32 2.66 7.3 2.66 11.29-.66 4.65-3.32 7.97-6.64 10.62-3.98 1.33-7.97 1.99-12.62 1.33-15.94 0-31.21-3.32-45.82-9.96-3.98-1.33-7.3-3.32-11.29-5.31-4.65-1.99-7.97-1.33-11.95.66s-6.64 4.65-8.63 7.97c-5.31 5.31-10.62 9.96-15.94 15.27-4.65 5.98-8.63 11.95-9.96 19.92-.66 7.97-.66 15.94-.66 23.24v7.3c-3.32 9.96.66 15.27 11.95 15.27 10.62 1.33 20.58 5.31 29.22 11.95 9.3 6.64 15.27 15.27 19.26 26.56 2.66 7.3 1.99 13.28-2.66 19.26-15.27 16.6-30.54 32.54-45.15 49.14-.66 1.99-1.99 4.65-3.98 6.64 2.66 0 5.31 0 7.97-1.33 17.26-5.98 33.86-12.62 51.13-19.92 17.26-6.64 33.2-15.27 48.47-25.23 5.98-3.32 7.3-7.97 3.32-13.94-4.65-9.96-9.96-20.58-15.94-30.54-3.98-9.96-2.66-17.93 3.32-25.23 3.98-8.63 8.63-17.26 13.28-25.23 3.98-6.64 5.98-13.94 5.98-21.25s.66-14.61.66-21.25c2.66-12.62 3.98-25.9 4.65-39.18 0-15.94 7.97-26.56 23.24-31.21 7.97-.66 13.94-3.98 17.93-9.3 1.99-1.99 4.65-1.99 7.3-1.33 22.58 13.94 41.17 31.87 56.44 53.78 1.33 1.99 1.99 3.32 1.99 5.31 1.33 3.32 1.99 6.64 2.66 9.96l2.66-9.96c-1.99-19.26-3.98-38.51-5.31-57.1-1.99-13.94-3.98-27.22-5.98-41.17l-4.65-28.55c-.66-.66-.66-1.33-.66-1.33 1.33-1.33 2.66-1.99 3.32-.66 6.64-1.33 11.29-3.98 15.94-7.97 3.98-4.65 8.63-7.97 13.94-9.3 5.98-1.33 11.29 0 16.6 4.65 13.94 8.63 27.89 17.93 41.17 27.22 5.98 3.98 9.96 9.3 11.95 15.94.66 7.3-.66 14.61-3.98 21.25-1.99 2.66-3.98 5.31-5.31 7.97-1.99 11.29-7.97 19.26-17.26 23.9-1.33 2.66-2.66 5.31-3.32 7.3-3.32 2.66-5.98 5.31-8.63 8.63-1.33 1.99-3.32 3.98-4.65 7.3-1.99 17.93-3.98 35.86-5.31 53.78-.66 4.65.66 9.3 3.32 13.28 6.64 13.28 15.27 25.23 26.56 35.19 10.62 9.3 22.58 17.93 34.53 25.9 1.33.66 1.99.66 3.32.66 4.65-2.66 9.3-2.66 14.61-.66 4.65 1.99 8.63 5.31 11.95 8.63 4.65 3.98 9.96 8.63 14.61 13.94s7.3 10.62 8.63 17.26c1.33 2.66 1.99 5.98.66 9.3zm-420.31 155.38c-1.33-6.64-1.99-13.28-1.99-20.58 0-.66-.66-1.33-1.99-2.66-7.3 0-13.94 1.33-20.58 3.98-3.32 3.32-7.97 3.32-11.95 0-2.66-1.33-5.31-2.66-8.63-3.98 0-.66-1.33-.66-2.66-.66 0 .66.66 1.33.66 2.66 13.28 8.63 25.23 17.93 35.86 28.55 1.99 0 3.32.66 3.98 1.33 0-.66.66-1.33 1.33-1.33-1.33-.66-1.99-1.99-2.66-3.32-.66-.66-.66-1.99.66-1.99h5.98l1.99-1.99zm-33.87-206.51c3.32 3.98 5.98 7.97 7.3 13.28.66 4.65 1.99 9.3 3.32 13.94.66 1.99 1.99 2.66 3.98 2.66 9.96-3.98 13.94-11.95 13.28-21.91-1.33-3.98-1.99-7.97-1.99-12.62h-1.33v-23.9c0-4.65-1.33-5.31-4.65-2.66-6.64 7.3-13.28 15.27-19.26 23.24-1.33 2.66-1.99 5.31-.66 7.97zm23.91 29.88c-4.65 4.65-8.63 9.96-12.62 15.27 0 1.99.66 3.98 1.33 5.31 1.33 0 1.99 0 1.99-1.33 4.65-5.31 8.63-11.29 13.28-17.93-1.33-.66-1.99-.66-3.98-1.33zm35.19-116.2c.66 1.99 1.33 3.32 1.33 4.65l17.93-15.27c.66-1.33 1.33-1.99 1.99-3.32-1.99-5.31-4.65-10.62-7.3-15.27l-3.32-3.32c-1.33 1.99-1.99 3.32-3.32 4.65-1.99 9.96-4.65 19.26-7.3 27.89zm246.34 74.37h-1.99c-.66-15.27-1.99-29.88-3.32-45.15-.66-1.33-.66-3.32-.66-4.65-1.33 1.33-2.66 2.66-3.32 3.98-2.66 6.64-7.3 9.3-13.94 8.63-11.29-3.32-23.24-3.98-34.53-2.66-3.98.66-7.97 1.33-11.95 3.32s-6.64 5.31-6.64 9.96c-.66 4.65-.66 8.63 0 12.62 3.32 13.94 9.3 25.9 18.59 36.52 5.98 8.63 11.29 17.26 15.27 27.22 3.98 9.3 5.31 19.26 3.98 30.54-.66 3.32-1.99 5.98-5.98 7.3-7.97 2.66-15.94 5.31-24.57 7.3-4.65 1.99-9.3 3.32-14.61 3.98-12.62 2.66-23.24 8.63-31.21 17.26l-17.93 21.25c-1.99 3.32-3.98 6.64-5.98 9.96 3.98 0 7.3-.66 11.29-1.99 29.22-15.27 58.43-31.21 87.65-46.48 11.95-5.98 23.24-11.29 33.86-17.26 2.66-2.66 4.65-5.98 5.98-9.3v-72.38zm69.72 41.83c1.99-3.32 3.32-5.98 3.32-9.3-3.32-7.97-7.3-15.94-11.29-23.9-9.96-12.62-20.58-25.23-31.87-36.52-1.33-.66-2.66-.66-3.32 0 0 5.98 0 11.29 1.33 17.26 0 6.64.66 12.62 1.99 19.26-1.33 15.27-3.32 29.88-5.31 45.15 0 2.66 0 5.98.66 8.63.66 3.32 2.66 3.32 6.64 1.33 11.29-3.98 21.25-8.63 31.21-15.27 2.66-1.99 4.65-3.98 6.64-6.64z"/></svg>