<svg viewBox="0 0 1200 1200" xmlns="http://www.w3.org/2000/svg"><path d="m1043 1062.27c-4.64 16.24-13.92 20.88-29 12.76-2.32-2.32-5.8-3.48-9.28-2.32-12.76 2.32-23.2 2.32-33.64-2.32s-20.88-10.44-30.16-16.24c-20.88-9.28-41.76-16.24-62.64-20.88-6.96 0-10.44-3.48-10.44-9.28-2.32-2.32-5.8-4.64-9.28-4.64-19.72 1.16-38.28 3.48-56.84 6.96s-35.96 6.96-53.36 10.44h-11.6c2.32-4.64 5.8-6.96 10.44-9.28 35.96-8.12 70.76-17.4 105.56-25.52 3.48-1.16 6.96-2.32 10.44-3.48-2.32-1.16-5.8-2.32-8.12-3.48-9.28-6.96-18.56-9.28-29-6.96-10.44 3.48-18.56 9.28-25.52 17.4-3.48 1.16-8.12 2.32-11.6 2.32-20.88 3.48-41.76 5.8-62.64 8.12h-4.64c2.32 0 4.64-1.16 4.64-2.32 15.08-6.96 30.16-13.92 45.24-20.88 17.4-8.12 34.8-17.4 49.88-29 24.36-20.88 23.2-40.6-1.16-59.16-3.48-4.64-8.12-8.12-13.92-11.6-52.2-45.24-112.52-78.88-179.8-98.6-6.96-3.48-13.92-8.12-19.72-13.92-1.16-2.32-3.48-2.32-5.8-1.16-6.96 4.64-13.92 4.64-20.88 2.32s-12.76-6.96-17.4-11.6c-15.08-15.08-29-13.92-40.6 3.48-27.84 32.48-56.84 63.8-84.68 96.28-15.08 12.76-30.16 25.52-46.4 37.12-9.28 9.28-18.56 18.56-26.68 29s-18.56 18.56-31.32 23.2c-13.92 5.8-25.52 10.44-38.28 16.24-6.96 3.48-15.08 5.8-22.04 8.12-29 6.96-58 13.92-85.84 19.72l-2.32 2.32c-6.96 1.16-13.92 1.16-20.88 0-9.28-6.96-17.4-15.08-23.2-26.68-3.48-3.48-3.48-6.96 0-10.44 11.6-27.84 24.36-53.36 39.44-80.04 2.32-2.32 5.8-5.8 9.28-6.96v11.6c-2.32 8.12-2.32 16.24 1.16 22.04 4.64 6.96 8.12 13.92 10.44 19.72 4.64 1.16 9.28 1.16 13.92 1.16 51.04-2.32 93.96-22.04 128.76-59.16 26.68-32.48 53.36-63.8 78.88-96.28 1.16-1.16 2.32-2.32 2.32-2.32 1.16-6.96 3.48-11.6 5.8-16.24-4.64-1.16-10.44-2.32-15.08-2.32-37.12-5.8-73.08-10.44-109.04-17.4-15.08-1.16-30.16-3.48-44.08-4.64-16.24-2.32-26.68-11.6-30.16-26.68-4.64-13.92-6.96-29-6.96-42.92 0-3.48 0-5.8 1.16-6.96 27.84-34.8 59.16-68.44 90.48-102.08 34.8-31.32 69.6-61.48 105.56-90.48 2.32-3.48 5.8-5.8 8.12-8.12-3.48-1.16-6.96-2.32-10.44-2.32-37.12-3.48-69.6-15.08-100.92-33.64-12.76-8.12-25.52-16.24-35.96-25.52-19.72-23.2-39.44-45.24-56.84-67.28-5.8-6.96-6.96-13.92-1.16-22.04 9.28-15.08 19.72-27.84 34.8-39.44 13.92-11.6 30.16-17.4 48.72-17.4 27.84 0 55.68-3.48 82.36-10.44 64.96-19.72 128.76-40.6 192.56-61.48 60.32-17.4 120.64-33.64 182.12-49.88 17.4-1.16 34.8-1.16 52.2-2.32 26.68 2.32 53.36 4.64 80.04 8.12 6.96 0 12.76 2.32 16.24 8.12 19.72 16.24 37.12 34.8 53.36 54.52 17.4 23.2 33.64 47.56 47.56 74.24 2.32 6.96 2.32 13.92-2.32 19.72-4.64 6.96-10.44 10.44-17.4 11.6-20.88 0-41.76-1.16-62.64-2.32-29-2.32-58-8.12-87-16.24-13.92-5.8-27.84-8.12-41.76-5.8-13.92 3.48-26.68 9.28-37.12 17.4-11.6 9.28-23.2 18.56-33.64 27.84-1.16 3.48-1.16 5.8 0 8.12 18.56 11.6 37.12 23.2 55.68 34.8 18.56 12.76 37.12 25.52 56.84 35.96l61.48 41.76c3.48 1.16 6.96 3.48 9.28 5.8 13.92 20.88 27.84 41.76 40.6 62.64 5.8 12.76 2.32 22.04-10.44 29-22.04 5.8-35.96 19.72-41.76 41.76-2.32 2.32-3.48 5.8-2.32 6.96 9.28 26.68 1.16 44.08-26.68 52.2l-67.28 25.52c-30.16 9.28-61.48 18.56-92.8 29-9.28 4.64-17.4 8.12-26.68 11.6 1.16 3.48 3.48 5.8 5.8 9.28 10.44 5.8 22.04 11.6 33.64 16.24 22.04 10.44 44.08 22.04 64.96 33.64 30.16 16.24 60.32 32.48 90.48 48.72 18.56 10.44 37.12 22.04 53.36 33.64 20.88 19.72 39.44 39.44 58 60.32 11.6 17.4 23.2 34.8 34.8 53.36 19.72 30.16 24.36 61.48 12.76 96.28zm-519.69-564.92c-2.32-12.76-4.64-26.68-6.96-39.44-3.48-10.44-9.28-11.6-19.72-5.8-11.6 9.28-23.2 18.56-34.8 26.68-22.04 16.24-42.92 32.48-61.48 51.04s-33.64 40.6-46.4 63.8c-6.96 16.24-3.48 23.2 13.92 19.72 44.08-9.28 88.16-19.72 132.24-30.16 5.8-3.48 9.28-6.96 11.6-11.6 4.64-24.36 8.12-48.72 11.6-74.24zm113.68 46.4c34.8-9.28 64.96-24.36 90.48-46.4 2.32-3.48 3.48-6.96 1.16-10.44-9.28-19.72-20.88-39.44-33.64-56.84-2.32-2.32-4.64-4.64-8.12-5.8-13.92-9.28-26.68-17.4-40.6-25.52-4.64-1.16-9.28-2.32-13.92-2.32-6.96 2.32-9.28 5.8-9.28 11.6 0 6.96 2.32 11.6 6.96 16.24 9.28 9.28 10.44 20.88 6.96 33.64-3.48 19.72-6.96 38.28-10.44 58q2.32 0 2.32 1.16c-1.16 6.96-1.16 13.92 0 20.88 2.32 2.32 4.64 4.64 8.12 5.8zm153.12 245.92c-3.48-4.64-8.12-10.44-12.76-16.24l-4.64-4.64c-26.68-10.44-53.36-19.72-81.2-29-1.16 1.16-2.32 2.32-2.32 2.32-2.32 2.32-4.64 3.48-8.12 4.64 2.32 2.32 3.48 3.48 3.48 4.64 29 11.6 58 22.04 87 32.48 5.8 3.48 11.6 5.8 18.56 5.8zm-84.68-379.32c1.16 2.32 2.32 3.48 2.32 4.64 10.44 18.56 22.04 35.96 33.64 53.36 0 2.32 1.16 3.48 2.32 3.48 0-1.16 0-2.32 1.16-3.48-1.16-3.48-1.16-4.64-2.32-6.96-9.28-15.08-17.4-30.16-24.36-46.4-2.32-1.16-4.64-2.32-6.96-4.64zm245.92 475.6c-2.32 0-2.32-1.16-2.32-2.32-17.4-24.36-38.28-41.76-64.96-51.04-3.48 0-6.96 1.16-11.6 3.48 0 4.64 1.16 8.12 3.48 10.44 23.2 12.76 46.4 25.52 70.76 38.28 0 1.16 2.32 1.16 4.64 1.16z"/></svg>