<svg viewBox="0 0 1200 1200" xmlns="http://www.w3.org/2000/svg"><path d="m1094.26 561.31c2.51 12.54-2.51 23.83-13.8 31.36-12.54 6.27-26.34 11.29-41.39 12.54-21.32 6.27-42.65 13.8-62.71 21.32-10.03 1.25-18.81 5.02-26.34 11.29-6.27 7.53-10.03 15.05-12.54 23.83-3.76 7.53-5.02 15.05-5.02 22.58-7.53 31.36-13.8 63.97-18.81 96.58-3.76 26.34-6.27 52.68-6.27 79.02s-1.25 51.42-2.51 77.77c-2.51 21.32-3.76 41.39-6.27 61.46l-5.02 95.32c0 8.78 1.25 18.81 3.76 28.85 0 11.29 0 21.32-2.51 32.61-5.02 11.29-11.29 12.54-20.07 5.02-12.54-10.03-22.58-22.58-32.61-35.12-3.76-7.53-3.76-16.31 1.25-23.83 5.02-6.27 8.78-12.54 8.78-21.32v-22.58c3.76-33.87 5.02-67.73 5.02-102.85-3.76-60.21-7.53-120.41-12.54-179.36 0-27.59 0-56.44 1.25-84.04 0-8.78-3.76-17.56-10.03-25.09-6.27-1.25-11.29-1.25-16.31-2.51-6.27-1.25-10.03 0-15.05 2.51-10.03 10.03-20.07 20.07-30.1 30.1-10.03 11.29-16.31 22.58-21.32 36.37-2.51 8.78-7.53 18.81-13.8 26.34-6.27 8.78-11.29 16.31-16.31 25.08-11.29 15.05-17.56 32.61-17.56 52.68 0 10.03-3.76 20.07-10.03 27.59-6.27 8.78-12.54 15.05-20.07 22.58-7.53 6.27-16.31 11.29-26.34 13.8-3.76 0-8.78-2.51-12.54-7.53-3.76-3.76-7.53-8.78-12.54-12.54-3.76-5.02-5.02-10.03-3.76-16.31q1.25 0 0-1.25l-1.25-1.25c-12.54-3.76-22.58-11.29-30.1-22.58-6.27-11.29-13.8-21.32-20.07-32.61-2.51-1.25-5.02-2.51-7.53-3.76l-89.05-5.02c-21.32 0-35.12 11.29-41.39 33.87-10.03 17.56-16.3 36.37-17.56 57.7-1.25 11.29-3.76 22.58-8.78 33.86-6.27 10.03-8.78 21.32-11.29 32.61-1.25 16.31-1.25 31.36-1.25 47.66 1.25 16.31 6.27 30.1 16.31 42.65 3.76 8.78 5.02 20.07 5.02 31.36-11.29 1.25-21.32 1.25-30.1-1.25-5.02-1.25-11.29-3.76-16.31-6.27-6.27-3.76-8.78-7.53-7.53-13.8 1.25-5.02 2.51-10.03 6.27-15.05 1.25-5.02 2.51-8.78 2.51-12.54-3.76-62.71-6.27-124.17-8.78-186.89-1.25-1.25-2.51-3.76-5.02-3.76-38.88 20.07-77.76 41.39-116.65 65.22-16.31 10.03-32.61 18.81-51.43 25.08-17.56 6.27-35.12 12.54-52.68 18.81-16.3 6.27-31.36 2.51-43.9-8.78-5.02-6.27-6.27-11.29-2.51-17.56s7.53-10.04 12.54-13.8c16.31-15.05 33.86-30.1 51.42-42.65 46.41-36.37 92.82-72.75 137.97-109.12 10.03-5.02 10.03-8.78 0-13.8-38.88-16.31-68.98-41.39-91.56-75.26s-38.88-70.24-47.66-109.12c-1.25-11.29-1.25-21.32-1.25-31.36-1.25-2.51-1.25-5.02 0-6.27 7.53-13.8 16.31-26.34 26.34-38.88 3.76-2.51 8.78-2.51 12.54 0 13.8 11.29 26.34 10.03 37.63-3.76l94.07-96.58c2.51-2.51 6.27-6.27 8.78-10.03-5.02-2.51-11.29-5.02-16.31-6.27-16.31-5.02-32.61-8.78-48.92-11.29-1.25 0-2.51 0-5.02-1.25-6.27-5.02-11.29-10.03-17.56-15.05s-11.29-10.03-12.54-17.56c0-7.53 2.51-13.8 7.53-18.81 6.27-5.02 12.54-8.78 18.81-12.54s13.8-5.02 22.58-5.02c17.56 3.76 35.12 6.27 52.68 8.78 5.02 1.25 10.03 1.25 15.05 0 11.29 1.25 16.31-3.76 15.05-15.05-1.25-18.81-2.51-38.88-3.76-58.95 0-6.27 1.25-13.8 5.02-20.07 2.51-11.29 3.76-22.58 5.02-35.12 5.02-7.53 8.78-16.31 11.29-25.09 2.51-7.53 5.02-15.05 5.02-23.83 0-2.51 1.25-3.76 2.51-5.02h3.76c3.76-3.76 7.53-7.53 10.03-11.29 3.76-3.76 7.53-5.02 11.29-6.27 15.05 7.53 28.85 17.56 38.88 27.59 16.31 16.31 27.59 33.87 35.12 55.19 5.02 10.03 6.27 20.07 6.27 30.1s0 20.07 1.25 30.1c2.51 15.05 8.78 17.56 20.07 10.03 13.8-11.29 27.59-15.05 45.15-11.29 16.31 3.76 28.85 12.54 37.63 28.85 3.76 3.76 6.27 8.78 6.27 13.8 5.02 10.03 5.02 20.07 2.51 31.36-8.78 7.53-20.07 12.54-32.61 15.05-6.27 3.76-11.29 7.53-16.31 10.03s-11.29 3.76-17.56 6.27c-13.8 1.25-26.34 5.02-38.88 10.03-5.02 6.27-8.78 13.8-10.03 22.58 1.25 2.51 3.76 3.76 7.53 2.51 27.59-8.78 52.68-5.02 76.51 10.03 21.32 11.29 42.65 22.58 63.97 33.87 2.51 0 5.02-1.25 7.53-2.51 42.65-82.78 96.58-156.78 161.8-223.26 16.31-12.54 33.87-23.83 52.68-32.61 2.51-2.51 3.76-2.51 5.02-1.25 6.27 5.02 12.54 6.27 18.81 3.76 5.02-2.51 10.03-6.27 13.8-11.29 5.02-11.29 11.29-11.29 16.31 0 10.03 10.03 18.81 20.07 30.1 28.85 26.34 26.34 38.88 57.7 35.12 95.32 3.76 16.31 3.76 32.61-1.25 47.66-6.27 16.31-12.54 30.1-20.07 43.9-5.02 6.27-11.29 12.54-18.81 17.56-28.85 27.59-56.44 55.19-84.04 85.29-10.03 11.29-17.56 25.09-26.34 38.88-3.76 3.76-8.78 6.27-15.05 10.03-1.25-1.25-2.51-2.51-5.02-3.76 1.25-3.76 2.51-6.27 3.76-10.03-2.51 2.51-6.27 5.02-8.78 6.27-10.03 5.02-18.81 10.03-27.59 12.54-10.03 2.51-20.07 2.51-28.85-2.51-10.03-5.02-16.31-1.25-20.07 7.53-3.76 17.56-5.02 35.12-6.27 52.68 2.51 7.53 6.27 15.05 12.54 21.32 10.03 8.78 21.32 8.78 32.61 0 32.61-23.83 63.97-50.17 94.07-76.51 18.81-18.81 37.63-36.37 56.44-53.93 11.29-10.03 23.83-12.54 37.63-8.78 51.42 5.02 94.07 26.34 126.68 65.22 8.78 8.78 13.8 20.07 16.31 33.87zm-750.05 240.82c8.78-1.25 12.54-6.27 13.8-13.8 1.25-8.78 1.25-16.31 0-23.83v-21.32c-1.25-5.02-2.51-8.78-3.76-13.8-3.76 1.25-7.53 3.76-12.54 7.52-21.32 13.8-41.39 27.59-61.46 43.9-28.85 20.07-57.7 41.39-85.29 61.46-2.51 2.51-5.02 5.02-7.53 7.53 3.76 0 7.53-1.25 11.29-3.76l30.1-8.78c30.1-11.29 61.46-21.32 92.82-30.1 6.27-2.51 13.8-3.76 22.58-5.02zm15.05-298.51c6.27-6.27 8.78-15.05 6.27-25.09l-7.53-77.76c-2.51-17.56-10.03-20.07-22.58-7.53-23.83 27.59-47.66 53.93-71.49 81.53-6.27 3.76-11.29 7.53-17.56 10.03-27.59 8.78-36.37 26.34-27.59 52.68 0 2.51 1.25 5.02 2.51 6.27 0 25.09 0 51.42 2.51 76.51 1.25 1.25 2.51 3.76 3.76 6.27 6.27 15.05 10.03 31.36 12.54 48.92 2.51 7.53 5.02 16.31 7.53 25.09 3.76 8.78 8.78 13.8 17.56 16.31 8.78 3.76 17.56 5.02 26.34 5.02 5.02 0 7.53 1.25 11.29 5.02 2.51 7.52 6.27 10.03 12.54 8.78 5.02-1.25 10.03-5.02 13.8-10.03 2.51-2.51 5.02-3.76 6.27-6.27l-8.78-2.51c-10.03-1.25-17.56-1.25-26.34-1.25l-15.05-2.51c1.25-6.27 2.51-12.54 3.76-20.07 17.56-27.59 35.12-56.44 52.68-84.04 2.51-2.51 2.51-5.02 2.51-6.27-1.25-1.25-3.76-1.25-7.53-1.25-16.31-1.25-33.87-2.51-50.17-3.76-5.02 0-10.03-1.25-12.54-6.27s-1.25-11.29 2.51-15.05c17.56-21.32 37.63-40.14 60.2-55.19 10.03-5.02 17.56-10.03 22.58-17.56zm105.36 91.56c5.02-5.02 8.78-12.54 11.29-18.81-6.27 1.25-11.29 3.76-16.31 6.27l-28.85 37.63c-1.25 2.51-1.25 6.27 0 11.29 1.25-2.51 3.76-5.02 6.27-6.27 10.03-10.03 18.81-18.81 27.59-30.1zm96.58 150.51c-6.27-11.29-13.8-21.32-22.58-31.36-5.02-8.78-11.29-13.8-18.81-16.31-22.58 3.76-42.64 12.54-61.46 23.83-5.02 5.02-7.53 10.03-8.78 15.05 0 6.27-1.25 12.54-2.51 17.56-1.25 15.05 5.02 20.07 18.81 17.56 20.07-3.76 40.14-8.78 60.21-13.8 1.25 1.25 2.51 2.51 2.51 3.76 8.78 0 17.56 0 25.09-1.25 5.02-1.25 7.53-2.51 10.03-5.02l-2.51-10.03zm-90.31-269.67c1.25 17.56 11.29 28.85 27.59 35.12 5.02 0 7.53-1.25 8.78-2.51l12.54-46.41c-1.25-21.32-11.29-31.36-30.1-33.87-15.05 2.51-21.32 12.54-20.07 27.59 1.25 5.02 1.25 12.54 1.25 20.07zm173.09 153.03h-1.25v-20.07c0-8.78-1.25-16.31-3.76-23.83-5.02 5.02-10.03 8.78-15.05 13.8l-5.02 5.02c-7.53 3.76-15.05 6.27-23.83 8.78 5.02 8.78 11.29 17.56 17.56 23.83 3.76 5.02 6.27 8.78 7.53 13.8 1.25 7.53 1.25 15.05-2.51 21.32-6.27 2.51-11.29 2.51-17.56 2.51-7.53-2.51-15.05-2.51-22.58-2.51-8.78 2.51-15.05 6.27-21.32 11.29-5.02 2.51-11.29 6.27-15.05 10.03 2.51 8.78 7.53 17.56 15.05 23.83 6.27 3.76 12.54 8.78 18.81 15.05 7.53 10.03 16.31 12.54 27.59 6.27 7.53-1.25 13.8-3.76 18.81-8.78 6.27-5.02 7.53-11.29 7.53-20.07 0-12.54 1.25-23.83 5.02-33.87 3.76-16.31 7.53-31.36 10.03-46.41z" fill="#b30a0a"/></svg>