<svg viewBox="0 0 1200 1200" xmlns="http://www.w3.org/2000/svg"><path d="m1047.64 768.67c-6.96 4.64-15.08 6.96-24.36 6.96-4.64 1.16-10.44 1.16-15.08 0s-10.44 0-15.08 2.32c-5.8 8.12-13.92 9.28-23.2 4.64-31.32-8.12-63.8-16.24-95.12-24.36-32.48-9.28-62.64-22.04-91.64-38.28-6.96-1.16-13.92-2.32-20.88-2.32-22.04 4.64-42.92 9.28-63.8 13.92-3.48 0-5.8 2.32-6.96 4.64 2.32 0 4.64 1.16 6.96 3.48 25.52 3.48 48.72 11.6 70.76 25.52 20.88 13.92 39.44 29 56.84 47.56 9.28 10.44 16.24 20.88 20.88 33.64 3.48 16.24 0 29-12.76 38.28l-8.12 8.12c-8.12 10.44-18.56 16.24-31.32 17.4-15.08 3.48-30.16 9.28-44.08 17.4-12.76 4.64-25.52 8.12-38.28 10.44-6.96 1.16-12.76 2.32-19.72 3.48-6.96 2.32-12.76 0-19.72-3.48-5.8 0-10.44 1.16-13.92 5.8 2.32 9.28 5.8 16.24 10.44 24.36 26.68 25.52 53.36 51.04 78.88 77.72 18.56 17.4 18.56 35.96 0 53.36-4.64 4.64-10.44 5.8-17.4 3.48-11.6-6.96-24.36-13.92-37.12-19.72-9.28-5.8-18.56-8.12-29-6.96-39.44 8.12-77.72 17.4-116 26.68-2.32 1.16-4.64 2.32-6.96 2.32 1.16-2.32 2.32-3.48 5.8-4.64 27.84-13.92 56.84-27.84 84.68-40.6 3.48-1.16 5.8-2.32 5.8-5.8 4.64-10.44 5.8-20.88 3.48-32.48-2.32-10.44-6.96-19.72-16.24-27.84-20.88-15.08-44.08-27.84-69.6-38.28-24.36-10.44-49.88-16.24-76.56-16.24-5.8 1.16-10.44 3.48-12.76 8.12-9.28 18.56-23.2 26.68-42.92 26.68-49.88-2.32-90.48-22.04-122.96-60.32-8.12-9.28-8.12-18.56 0-29 23.2-29 49.88-53.36 82.36-74.24 1.16-2.32 4.64-4.64 9.28-5.8 0 4.64 0 8.12-1.16 11.6-2.32 8.12-4.64 17.4-8.12 25.52l24.36-6.96c19.72-11.6 39.44-22.04 59.16-32.48 49.88-22.04 102.08-44.08 155.44-63.8 2.32-2.32 4.64-3.48 6.96-4.64-2.32-2.32-5.8-4.64-9.28-4.64-15.08-3.48-31.32-6.96-46.4-10.44-9.28-3.48-17.4-6.96-25.52-12.76-17.4-12.76-34.8-12.76-52.2 1.16-11.6 9.28-24.36 18.56-35.96 29-3.48 0-6.96 1.16-10.44 3.48 2.32-2.32 4.64-5.8 6.96-8.12l38.28-38.28c5.8-4.64 5.8-9.28-1.16-11.6-11.6-6.96-11.6-13.92 0-22.04 18.56-17.4 40.6-29 66.12-35.96 5.8-1.16 11.6-1.16 16.24 2.32 18.56 6.96 34.8 18.56 48.72 32.48 12.76 15.08 22.04 30.16 27.84 47.56 9.28 13.92 5.8 19.72-10.44 17.4-1.16 2.32-1.16 4.64-3.48 5.8h6.96c29-8.12 59.16-17.4 88.16-27.84 2.32 0 4.64-1.16 5.8-3.48-1.16 0-2.32-1.16-4.64-2.32-49.88-32.48-95.12-68.44-138.04-109.04-4.64-4.64-10.44-6.96-17.4-5.8-27.84 11.6-55.68 23.2-83.52 37.12-26.68 12.76-52.2 29-75.4 48.72-70.76 62.64-148.48 114.84-232 158.92-15.08 6.96-32.48 12.76-49.88 16.24-5.8 0-10.44-2.32-12.76-6.96-1.16-4.64 0-9.28 3.48-13.92 5.8-6.96 11.6-13.92 18.56-20.88 9.28-13.92 22.04-19.72 39.44-15.08 9.28 1.16 18.56 0 26.68-2.32 38.28-10.44 71.92-26.68 103.24-51.04 19.72-15.08 40.6-31.32 60.32-47.56 40.6-37.12 81.2-75.4 120.64-113.68 16.24-17.4 29-35.96 38.28-55.68 2.32-4.64 2.32-10.44 0-15.08-2.32-5.8-4.64-11.6-6.96-16.24-1.16 0-3.48 0-4.64 1.16-29 13.92-51.04 34.8-64.96 62.64-2.32 6.96-4.64 15.08-5.8 23.2-1.16 12.76-6.96 22.04-16.24 30.16-9.28 6.96-20.88 9.28-32.48 4.64-11.6-3.48-22.04-8.12-31.32-15.08-5.8-4.64-10.44-9.28-13.92-15.08-2.32-5.8-6.96-11.6-10.44-17.4-8.12-9.28-8.12-19.72 1.16-30.16s19.72-20.88 32.48-29c9.28-9.28 17.4-8.12 23.2 4.64 3.48 3.48 6.96 4.64 12.76 3.48 27.84-9.28 55.68-19.72 83.52-31.32 5.8-2.32 11.6-4.64 18.56-9.28 5.8-3.48 8.12-9.28 6.96-15.08 0-6.96-1.16-13.92-2.32-19.72 0-4.64-1.16-9.28-1.16-13.92 0-6.96-1.16-15.08-3.48-23.2s-8.12-11.6-17.4-11.6h-24.36c-9.28 0-17.4 0-26.68-1.16-6.96-1.16-13.92-3.48-20.88-6.96 3.48-4.64 5.8-9.28 8.12-15.08 2.32-4.64 6.96-8.12 11.6-9.28 19.72-6.96 39.44-11.6 60.32-13.92 6.96 0 10.44-3.48 10.44-11.6 0-22.04 1.16-42.92 1.16-63.8-1.16-6.96-4.64-10.44-9.28-10.44-20.88-8.12-41.76-6.96-61.48 3.48-29 11.6-58 24.36-87 38.28-8.12 5.8-13.92 12.76-19.72 20.88-4.64 9.28-10.44 18.56-16.24 26.68-11.6 10.44-19.72 23.2-26.68 37.12s-9.28 29-6.96 44.08c2.32 25.52 5.8 52.2 8.12 77.72 3.48 26.68 10.44 51.04 22.04 74.24 4.64 9.28 3.48 17.4-1.16 25.52-11.6 16.24-25.52 19.72-41.76 9.28-15.08-12.76-30.16-26.68-42.92-41.76-20.88-19.72-23.2-41.76-6.96-64.96 11.6-15.08 19.72-31.32 24.36-48.72 4.64-18.56 8.12-37.12 10.44-55.68 6.96-34.8 12.76-68.44 18.56-100.92 2.32-8.12 5.8-13.92 12.76-18.56 9.28-8.12 18.56-16.24 27.84-23.2 11.6-10.44 19.72-8.12 23.2 8.12 3.48 12.76 10.44 13.92 18.56 1.16 10.44-11.6 24.36-18.56 40.6-22.04 18.56-5.8 34.8-13.92 49.88-24.36 9.28-5.8 10.44-12.76 2.32-20.88-18.56-13.92-17.4-29 1.16-41.76 10.44-8.12 22.04-16.24 33.64-23.2s24.36-12.76 37.12-13.92c22.04-4.64 41.76-11.6 62.64-18.56 3.48-1.16 5.8-2.32 8.12-4.64 2.32-8.12 6.96-11.6 13.92-10.44 5.8 1.16 11.6 3.48 16.24 8.12 45.24 23.2 78.88 58 98.6 105.56 6.96 13.92 6.96 29 1.16 44.08-1.16 4.64-4.64 8.12-10.44 9.28-10.44 4.64-20.88 9.28-32.48 11.6-3.48 2.32-8.12 4.64-11.6 6.96-4.64 1.16-6.96 4.64-8.12 9.28-2.32 4.64-2.32 9.28-2.32 13.92 2.32 2.32 4.64 3.48 6.96 4.64 29-6.96 58-15.08 88.16-23.2 3.48-1.16 6.96-3.48 9.28-6.96 8.12-2.32 16.24-4.64 24.36-6.96q1.16 0 2.32 1.16c1.16-6.96 4.64-10.44 9.28-11.6 4.64-2.32 8.12-3.48 12.76-5.8 4.64-4.64 9.28-6.96 13.92-6.96 77.72 5.8 135.72 42.92 174 110.2 6.96 13.92 9.28 29 9.28 45.24 0 4.64-2.32 9.28-8.12 13.92-30.16 15.08-62.64 17.4-95.12 5.8-8.12-2.32-16.24-3.48-26.68-1.16-9.28 2.32-18.56 4.64-26.68 4.64-8.12 5.8-15.08 5.8-22.04-1.16-5.8 0-11.6 1.16-17.4 3.48 2.32 3.48 3.48 5.8 5.8 6.96l70.76 77.72c4.64 9.28 5.8 18.56 3.48 27.84-8.12 8.12-18.56 12.76-30.16 13.92-22.04-2.32-45.24-6.96-67.28-12.76-12.76-3.48-24.36-9.28-35.96-15.08-15.08-6.96-30.16-10.44-46.4-12.76-15.08 2.32-29 6.96-41.76 13.92v5.8c0 2.32 1.16 4.64 1.16 6.96 42.92 41.76 91.64 75.4 146.16 103.24 8.12 2.32 16.24 6.96 23.2 11.6 30.16 16.24 61.48 18.56 92.8 5.8 11.6-3.48 22.04-2.32 31.32 5.8 29 24.36 52.2 53.36 70.76 88.16 3.48 8.12 3.48 16.24 0 24.36zm-701.81-334.08c-6.96-3.48-8.12-6.96-1.16-10.44 6.96-8.12 13.92-16.24 22.04-23.2 8.12-5.8 16.24-10.44 24.36-15.08 15.08 5.8 29 12.76 41.76 19.72 11.6 8.12 23.2 17.4 35.96 26.68 16.24 11.6 18.56 24.36 8.12 40.6-4.64 2.32-8.12 3.48-11.6 2.32-17.4 1.16-32.48-2.32-46.4-8.12-15.08-5.8-29-12.76-41.76-19.72-9.28-4.64-19.72-9.28-31.32-12.76zm281.88 387.44c-2.32-5.8-6.96-10.44-11.6-13.92-4.64 4.64-8.12 9.28-11.6 12.76-17.4 4.64-34.8 10.44-53.36 17.4-13.92 4.64-27.84 11.6-41.76 18.56-12.76 10.44-11.6 16.24 5.8 17.4l19.72 9.28c6.96 1.16 13.92 1.16 19.72 0 22.04-17.4 46.4-33.64 69.6-48.72 3.48-4.64 4.64-8.12 3.48-12.76zm61.48-328.28c9.28-4.64 17.4-10.44 26.68-16.24 2.32-2.32 4.64-4.64 6.96-6.96-2.32 0-4.64-1.16-6.96-3.48-12.76-6.96-25.52-15.08-38.28-22.04-4.64-2.32-10.44-4.64-15.08-5.8-9.28 1.16-16.24 5.8-20.88 11.6-4.64 6.96-6.96 13.92-9.28 22.04 1.16 3.48 2.32 5.8 2.32 8.12 13.92 23.2 32.48 27.84 54.52 12.76zm-51.04-97.44 6.96 4.64c12.76-6.96 25.52-13.92 37.12-22.04 19.72-18.56 37.12-37.12 52.2-56.84 12.76-11.6 25.52-11.6 37.12 0 11.6 12.76 22.04 11.6 30.16-3.48 2.32-3.48 4.64-8.12 6.96-12.76-4.64-2.32-9.28-2.32-13.92-2.32-35.96 6.96-70.76 15.08-105.56 22.04-9.28 2.32-16.24 6.96-23.2 12.76-10.44 18.56-19.72 38.28-27.84 58zm26.68 10.44c-8.12 3.48-15.08 9.28-23.2 15.08-1.16 3.48 0 6.96 1.16 10.44 10.44-5.8 20.88-12.76 30.16-20.88-1.16-2.32-4.64-3.48-8.12-4.64zm100.92 10.44c6.96-1.16 13.92-2.32 20.88-3.48 1.16 0 2.32-1.16 3.48-2.32-1.16 0-2.32-1.16-3.48-3.48-8.12 0-16.24 0-24.36-1.16-4.64 3.48-9.28 8.12-13.92 10.44zm45.24 3.48c-13.92 1.16-26.68 2.32-40.6 3.48-5.8 0-12.76 1.16-18.56 3.48 6.96 1.16 12.76 3.48 18.56 6.96 15.08-4.64 29-9.28 44.08-12.76v-1.16z"/></svg>