<svg viewBox="0 0 1200 1200" xmlns="http://www.w3.org/2000/svg"><path d="m855.66 650.03c-6.23 4.15-13.49 6.23-21.8 6.23-4.15 1.04-9.34 1.04-13.49 0s-9.34 0-13.49 2.08c-5.19 7.27-12.46 8.3-20.76 4.15-28.03-7.27-57.09-14.53-85.12-21.8-29.06-8.3-56.05-19.72-82-34.25-6.23-1.04-12.46-2.08-18.68-2.08-19.72 4.15-38.41 8.3-57.09 12.46-3.11 0-5.19 2.08-6.23 4.15 2.08 0 4.15 1.04 6.23 3.11 22.84 3.11 43.6 10.38 63.32 22.84 18.68 12.46 35.29 25.95 50.86 42.56 8.3 9.34 14.53 18.68 18.68 30.1 3.11 14.53 0 25.95-11.42 34.25-2.08 2.08-5.19 5.19-7.27 7.27-7.27 9.34-16.61 14.53-28.03 15.57-13.49 3.11-26.99 8.3-39.44 15.57-11.42 4.15-22.84 7.27-34.25 9.34-6.23 1.04-11.42 2.08-17.65 3.11-6.23 2.08-11.42 0-17.65-3.11-5.19 0-9.34 1.04-12.46 5.19 2.08 8.3 5.19 14.53 9.34 21.8 23.87 22.84 47.75 45.67 70.58 69.55 16.61 15.57 16.61 32.18 0 47.75-4.15 4.15-9.34 5.19-15.57 3.11-10.38-6.23-21.8-12.46-33.21-17.65-8.3-5.19-16.61-7.27-25.95-6.23-35.29 7.27-69.55 15.57-103.8 23.87-2.08 1.04-4.15 2.08-6.23 2.08 1.04-2.08 2.08-3.11 5.19-4.15 24.91-12.46 50.86-24.91 75.77-36.33 3.11-1.04 5.19-2.08 5.19-5.19 4.15-9.34 5.19-18.68 3.11-29.06-2.08-9.34-6.23-17.65-14.53-24.91-18.68-13.49-39.44-24.91-62.28-34.25-21.8-9.34-44.63-14.53-68.51-14.53-5.19 1.04-9.34 3.11-11.42 7.27-8.3 16.61-20.76 23.87-38.41 23.87-44.63-2.08-80.96-19.72-110.03-53.98-7.27-8.3-7.27-16.61 0-25.95 20.76-25.95 44.63-47.75 73.7-66.43 1.04-2.08 4.15-4.15 8.3-5.19 0 4.15 0 7.27-1.04 10.38-2.08 7.27-4.15 15.57-7.27 22.84 7.27-2.08 14.53-4.15 21.8-6.23 17.65-10.38 35.29-19.72 52.94-29.06 44.63-19.72 91.34-39.44 139.09-57.09 2.08-2.08 4.15-3.11 6.23-4.15-2.08-2.08-5.19-4.15-8.3-4.15-13.49-3.11-28.03-6.23-41.52-9.34-8.3-3.11-15.57-6.23-22.84-11.42-15.57-11.42-31.14-11.42-46.71 1.04-10.38 8.3-21.8 16.61-32.18 25.95-3.11 0-6.23 1.04-9.34 3.11 2.08-2.08 4.15-5.19 6.23-7.27l34.25-34.25c5.19-4.15 5.19-8.3-1.04-10.38-10.38-6.23-10.38-12.46 0-19.72 16.61-15.57 36.33-25.95 59.17-32.18 5.19-1.04 10.38-1.04 14.53 2.08 16.61 6.23 31.14 16.61 43.6 29.06 11.42 13.49 19.72 26.99 24.91 42.56 8.3 12.46 5.19 17.65-9.34 15.57-1.04 2.08-1.04 4.15-3.11 5.19h6.23c25.95-7.27 52.94-15.57 78.89-24.91 2.08 0 4.15-1.04 5.19-3.11-1.04 0-2.08-1.04-4.15-2.08-44.63-29.06-85.12-61.24-123.52-97.57-4.15-4.15-9.34-6.23-15.57-5.19-24.91 10.38-49.82 20.76-74.74 33.22-23.87 11.42-46.71 25.95-67.47 43.6-63.32 56.05-132.86 102.76-207.6 142.21-13.49 6.23-29.06 11.42-44.63 14.53-5.19 0-9.34-2.08-11.42-6.23-1.04-4.15 0-8.3 3.11-12.46 5.19-6.23 10.38-12.46 16.61-18.68 8.3-12.46 19.72-17.65 35.29-13.49 8.3 1.04 16.61 0 23.87-2.08 34.25-9.34 64.36-23.87 92.38-45.67 17.65-13.49 36.33-28.03 53.98-42.56 36.33-33.22 72.66-67.47 107.95-101.72 14.53-15.57 25.95-32.18 34.25-49.82 2.08-4.15 2.08-9.34 0-13.49-2.08-5.19-4.15-10.38-6.23-14.53-1.04 0-3.11 0-4.15 1.04-25.95 12.46-45.67 31.14-58.13 56.05-2.08 6.23-4.15 13.49-5.19 20.76-1.04 11.42-6.23 19.72-14.53 26.99-8.3 6.23-18.68 8.3-29.06 4.15-10.38-3.11-19.72-7.27-28.03-13.49-5.19-4.15-9.34-8.3-12.46-13.49-2.08-5.19-6.23-10.38-9.34-15.57-7.27-8.3-7.27-17.65 1.04-26.99 8.3-9.34 17.65-18.68 29.06-25.95 8.3-8.3 15.57-7.27 20.76 4.15 3.11 3.11 6.23 4.15 11.42 3.11 24.91-8.3 49.82-17.65 74.74-28.03 5.19-2.08 10.38-4.15 16.61-8.3 5.19-3.11 7.27-8.3 6.23-13.49 0-6.23-1.04-12.46-2.08-17.65 0-4.15-1.04-8.3-1.04-12.46 0-6.23-1.04-13.49-3.11-20.76-2.08-7.27-7.27-10.38-15.57-10.38h-21.8c-8.3 0-15.57 0-23.87-1.04-6.23-1.04-12.46-3.11-18.68-6.23 3.11-4.15 5.19-8.3 7.27-13.49 2.08-4.15 6.23-7.27 10.38-8.3 17.65-6.23 35.29-10.38 53.98-12.46 6.23 0 9.34-3.11 9.34-10.38 0-19.72 1.04-38.41 1.04-57.09-1.04-6.23-4.15-9.34-8.3-9.34-18.68-7.27-37.37-6.23-55.01 3.11-25.95 10.38-51.9 21.8-77.85 34.25-7.27 5.19-12.46 11.42-17.65 18.68-4.15 8.3-9.34 16.61-14.53 23.87-10.38 9.34-17.65 20.76-23.87 33.22-6.23 12.46-8.3 25.95-6.23 39.44 2.08 22.84 5.19 46.71 7.27 69.55 3.11 23.87 9.34 45.67 19.72 66.43 4.15 8.3 3.11 15.57-1.04 22.84-10.38 14.53-22.84 17.65-37.37 8.3-13.49-11.42-26.99-23.87-38.41-37.37-18.68-17.65-20.76-37.37-6.23-58.13 10.38-13.49 17.65-28.03 21.8-43.6 4.15-16.61 7.27-33.22 9.34-49.82 6.23-31.14 11.42-61.24 16.61-90.31 2.08-7.27 5.19-12.46 11.42-16.61 8.3-7.27 16.61-14.53 24.91-20.76 10.38-9.34 17.65-7.27 20.76 7.27 3.11 11.42 9.34 12.46 16.61 1.04 9.34-10.38 21.8-16.61 36.33-19.72 16.61-5.19 31.14-12.46 44.63-21.8 8.3-5.19 9.34-11.42 2.08-18.68-16.61-12.46-15.57-25.95 1.04-37.37 9.34-7.27 19.72-14.53 30.1-20.76s21.8-11.42 33.22-12.46c19.72-4.15 37.37-10.38 56.05-16.61 3.11-1.04 5.19-2.08 7.27-4.15 2.08-7.27 6.23-10.38 12.46-9.34 5.19 1.04 10.38 3.11 14.53 7.27 40.48 20.76 70.58 51.9 88.23 94.46 6.23 12.46 6.23 25.95 1.04 39.44-1.04 4.15-4.15 7.27-9.34 8.3-9.34 4.15-18.68 8.3-29.06 10.38-3.11 2.08-7.27 4.15-10.38 6.23-4.15 1.04-6.23 4.15-7.27 8.3-2.08 4.15-2.08 8.3-2.08 12.46 2.08 2.08 4.15 3.11 6.23 4.15 25.95-6.23 51.9-13.49 78.89-20.76 3.11-1.04 6.23-3.11 8.3-6.23 7.27-2.08 14.53-4.15 21.8-6.23q1.04 0 2.08 1.04c1.04-6.23 4.15-9.34 8.3-10.38 4.15-2.08 7.27-3.11 11.42-5.19 4.15-4.15 8.3-6.23 12.46-6.23 69.55 5.19 121.45 38.41 155.7 98.61 6.23 12.46 8.3 25.95 8.3 40.48 0 4.15-2.08 8.3-7.27 12.46-26.99 13.49-56.05 15.57-85.12 5.19-7.27-2.08-14.53-3.11-23.87-1.04-8.3 2.08-16.61 4.15-23.87 4.15-7.27 5.19-13.49 5.19-19.72-1.04-5.19 0-10.38 1.04-15.57 3.11 2.08 3.11 3.11 5.19 5.19 6.23l63.32 69.55c4.15 8.3 5.19 16.61 3.11 24.91-7.27 7.27-16.61 11.42-26.99 12.46-19.72-2.08-40.48-6.23-60.2-11.42-11.42-3.11-21.8-8.3-32.18-13.49-13.49-6.23-26.99-9.34-41.52-11.42-13.49 2.08-25.95 6.23-37.37 12.46v5.19c0 2.08 1.04 4.15 1.04 6.23 38.41 37.37 82 67.47 130.79 92.38 7.27 2.08 14.53 6.23 20.76 10.38 26.99 14.53 55.01 16.61 83.04 5.19 10.38-3.11 19.72-2.08 28.03 5.19 25.95 21.8 46.71 47.75 63.32 78.89 3.11 7.27 3.11 14.53 0 21.8zm-627.98-298.94c-6.23-3.11-7.27-6.23-1.04-9.34 6.23-7.27 12.46-14.53 19.72-20.76 7.27-5.19 14.53-9.34 21.8-13.49 13.49 5.19 25.95 11.42 37.37 17.65 10.38 7.27 20.76 15.57 32.18 23.87 14.53 10.38 16.61 21.8 7.27 36.33-4.15 2.08-7.27 3.11-10.38 2.08-15.57 1.04-29.06-2.08-41.52-7.27-13.49-5.19-25.95-11.42-37.37-17.65-8.3-4.15-17.65-8.3-28.03-11.42zm252.23 346.69c-2.08-5.19-6.23-9.34-10.38-12.46-4.15 4.15-7.27 8.3-10.38 11.42-15.57 4.15-31.14 9.34-47.75 15.57-12.46 4.15-24.91 10.38-37.37 16.61-11.42 9.34-10.38 14.53 5.19 15.57l17.65 8.3c6.23 1.04 12.46 1.04 17.65 0 19.72-15.57 41.52-30.1 62.28-43.6 3.11-4.15 4.15-7.27 3.11-11.42zm55.01-293.75c8.3-4.15 15.57-9.34 23.87-14.53 2.08-2.08 4.15-4.15 6.23-6.23-2.08 0-4.15-1.04-6.23-3.11-11.42-6.23-22.84-13.49-34.25-19.72-4.15-2.08-9.34-4.15-13.49-5.19-8.3 1.04-14.53 5.19-18.68 10.38-4.15 6.23-6.23 12.46-8.3 19.72 1.04 3.11 2.08 5.19 2.08 7.27 12.46 20.76 29.06 24.91 48.79 11.42zm-45.67-87.2 6.23 4.15c11.42-6.23 22.83-12.46 33.21-19.72 17.65-16.61 33.22-33.22 46.71-50.86 11.42-10.38 22.84-10.38 33.22 0 10.38 11.42 19.72 10.38 26.99-3.11 2.08-3.11 4.15-7.27 6.23-11.42-4.15-2.08-8.3-2.08-12.46-2.08-32.18 6.23-63.32 13.49-94.46 19.72-8.3 2.08-14.53 6.23-20.76 11.42-9.34 16.61-17.65 34.25-24.91 51.9zm23.88 9.35c-7.27 3.11-13.49 8.3-20.76 13.49-1.04 3.11 0 6.23 1.04 9.34 9.34-5.19 18.68-11.42 26.99-18.68-1.04-2.08-4.15-3.11-7.27-4.15zm90.3 9.34c6.23-1.04 12.46-2.08 18.68-3.11 1.04 0 2.08-1.04 3.11-2.08-1.04 0-2.08-1.04-3.11-3.11-7.27 0-14.53 0-21.8-1.04-4.15 3.11-8.3 7.27-12.46 9.34h15.57zm40.48 3.11c-12.46 1.04-23.87 2.08-36.33 3.11-5.19 0-11.42 1.04-16.61 3.11 6.23 1.04 11.42 3.11 16.61 6.23 13.49-4.15 25.95-8.3 39.44-11.42v-1.04h-3.11z"/><path d="m870.46 859.96c-1.86-9.34-4.92-18.39-9.63-28.49-.06-.13-.12-.26-.19-.38-5.34-10.04-12.77-18.6-22.08-25.47-9.01-7.1-20.23-12.08-33.33-14.81-8.07-1.68-16.73-2.53-25.74-2.53v8-8c-3.77 0-7.65.15-11.55.45-2.25-.1-4.51-.15-6.71-.15-29.07 0-54.73 8.61-76.26 25.59-21.7 15.66-33.09 35.54-33.88 59.11-2.03 16.3 1.92 31.39 11.76 44.88.33.46.71.87 1.13 1.25 15.07 13.48 27.38 26.25 37.63 39.05.35.44.75.84 1.18 1.2 17.43 14.23 32.48 30.48 44.76 48.32.39 1.23.78 2.45 1.16 3.66 2.29 7.17 4.45 13.98 6.3 21-2.84 11.02-10.18 19.76-22.37 26.66-15.41 3.54-31.59 5.79-48.11 6.7-.15 0-.31.02-.46.04-3.08.35-6.17.53-9.18.53-11.72 0-22.86-2.58-34.06-7.9-.65-.31-1.34-.53-2.05-.65-9.85-1.73-17.94-4.72-25.46-9.4-7.4-4.6-14.24-9.86-20.9-16.07-1.68-1.72-3.41-3.46-5.1-5.14-4.39-4.39-8.93-8.94-13.05-13.83-1.57-1.86-3.83-2.84-6.12-2.84-1.4 0-2.81.37-4.08 1.12-3.36 2-4.79 6.13-3.37 9.78 2.28 5.86 3.99 11.71 5.79 17.91 1.66 5.7 2.78 11.45 3.33 17.13.02.22.05.43.09.65.84 4.67.02 8.88-2.5 12.88-.08.12-.15.25-.22.37-6.47 11.58-8.22 22.46-5.21 32.34 3.3 10.82 12.26 20 26.64 27.29.37.19.76.35 1.16.48 26.18 8.45 53.33 12.74 80.7 12.74 5.05 0 10.17-.15 15.24-.44 1.78.04 3.58.06 5.34.06 37.24 0 71.07-9.41 100.55-27.97.27-.17.52-.35.77-.55 29.71-24.01 42.86-53.19 39.1-86.72-.08-19.38-5.16-37.53-15.52-55.46-.28-.48-.6-.93-.98-1.34-17.24-19.19-33.45-36.7-49.55-53.54-.23-.24-.47-.46-.73-.67-17.49-14.26-31.72-30.99-42.34-49.77.44-.27 1.32-.67 2.84-.99.9-.19 1.77-.55 2.55-1.03 7.84-4.9 16.42-7.28 26.21-7.28 2.15 0 4.4.12 6.67.35.27.03.55.04.82.04 8.59 0 16.23 1.07 22.74 3.19 15.56 8.25 30.6 17.84 44.69 28.53.2.15.41.29.62.43 6.74 4.17 12.56 6.2 17.78 6.2 3.7 0 15.68-1.37 17.75-18.63 1.72-4.15 3.45-8.74 5.15-13.68.46-1.34.56-2.78.28-4.17zm-11.46-11.77c-.75-2.2-1.58-4.41-2.48-6.62.9 2.22 1.73 4.42 2.48 6.62zm-9.37-19.86c1.43 2.08 2.75 4.26 3.95 6.52.53 1.13 1.04 2.26 1.52 3.37-.49-1.12-1-2.24-1.52-3.37-1.2-2.26-2.52-4.44-3.95-6.52-2.15-3.13-4.54-6.05-7.2-8.78 2.65 2.72 5.05 5.65 7.2 8.78zm6.93 51.52c-.03.14-.07.28-.1.41.04-.14.07-.28.1-.41zm-.36 1.3c-.03.08-.05.17-.08.25.03-.08.05-.17.08-.25zm-.46 1.3c-.03.08-.07.15-.1.23.03-.08.07-.15.1-.23zm-.44.96c-.05.11-.11.21-.16.31.05-.1.11-.2.16-.31zm-.49.89c-.06.1-.12.2-.18.29.06-.09.12-.19.18-.29zm-.58.83c-.06.07-.11.15-.17.22.06-.07.11-.15.17-.22zm-50.64-86.48c-1.27-.26-2.55-.5-3.84-.72 1.28.22 2.56.45 3.84.72zm-4.85-.89c-1.16-.19-2.33-.36-3.5-.51 1.17.15 2.34.32 3.5.51zm-3.91-.56c-1.3-.16-2.6-.29-3.9-.41 1.31.12 2.61.25 3.9.41zm-4.91-.49c-1.12-.09-2.24-.17-3.37-.23 1.13.06 2.25.14 3.37.23zm-4.03-.27c-1.31-.06-2.62-.1-3.94-.13 1.32.02 2.63.06 3.94.13zm-6.4-.16c.5 0 .99.01 1.48.02-1.15-.01-2.3-.01-3.46 0 .66 0 1.32-.02 1.98-.02zm-11.42.46c1.34-.11 2.68-.19 4.01-.26-1.34.07-2.68.15-4.01.26-1.73-.08-3.43-.12-5.13-.14 1.7.02 3.4.06 5.13.14zm8.85-.43c-1.31.02-2.62.07-3.93.13 1.31-.06 2.62-.11 3.93-.13zm-14.93.28c-1.17 0-2.33.02-3.49.04.91-.02 1.81-.05 2.73-.05h.76zm-9.28.28c1.24-.08 2.48-.15 3.74-.2-1.26.04-2.5.12-3.74.2zm1.15 52.83c-.16 0-.31 0-.47 0zm-41.32-43.07c.82-.37 1.64-.73 2.46-1.09-.83.35-1.65.71-2.46 1.09zm-18.79 10.93c-1.34.97-2.66 1.96-3.97 3 1.31-1.03 2.63-2.03 3.97-3zm57.42-20.61c-1.74.13-3.46.29-5.17.49 1.7-.2 3.43-.36 5.17-.49zm-6.25.64c-1.34.17-2.67.34-3.99.55 1.32-.21 2.65-.39 3.99-.55zm-5.84.88c-1.04.18-2.09.37-3.12.58 1.03-.21 2.08-.39 3.12-.58zm-5.16 1.03c-.95.21-1.9.42-2.83.66.94-.23 1.88-.45 2.83-.66zm-4.93 1.22c-.9.24-1.79.49-2.68.75.89-.26 1.78-.51 2.68-.75zm-4.78 1.41c-.86.28-1.73.56-2.58.86.85-.3 1.72-.58 2.58-.86zm-4.66 1.61c-.84.31-1.68.64-2.51.97.83-.33 1.67-.66 2.51-.97zm-8.99 3.81c-.82.39-1.63.8-2.44 1.22.81-.41 1.62-.82 2.44-1.22zm-4.35 2.21c-.82.44-1.63.9-2.44 1.36.81-.46 1.62-.92 2.44-1.36zm-4.25 2.4c-.84.5-1.67 1.03-2.49 1.55.83-.52 1.65-1.05 2.49-1.55zm-4.15 2.61c-.91.6-1.81 1.23-2.71 1.86.9-.63 1.8-1.26 2.71-1.86zm10.04 138.7c-1.43-1.79-2.89-3.56-4.37-5.31-7.51-8.89-15.69-17.4-24.23-25.53 8.53 8.13 16.71 16.64 24.23 25.53 1.48 1.76 2.94 3.53 4.37 5.31 3.5 2.86 6.89 5.78 10.18 8.77-3.29-2.99-6.68-5.91-10.18-8.77zm13.44 11.78c3.22 3.03 6.33 6.13 9.34 9.28-3.01-3.15-6.12-6.25-9.34-9.28zm22.28 24.04c.79.98 1.57 1.97 2.35 2.96-.77-.99-1.56-1.98-2.35-2.96zm19.69 43.25c-1.2-4.76-2.56-9.41-3.99-14.05 1.43 4.64 2.79 9.29 3.99 14.05zm-3 89.62c-.26.11-.52.21-.78.31.26-.1.52-.21.78-.31zm-5.81 2.23c-.26.09-.52.19-.78.28.26-.09.52-.19.78-.28zm-5.92 2.02c-.25.08-.5.16-.74.23.25-.08.5-.16.74-.23zm-6.04 1.81c-.21.06-.43.12-.65.18.21-.06.43-.12.65-.18zm-6.14 1.61c-.16.04-.32.07-.48.11.16-.04.32-.07.48-.11zm-6.92-61.63c-8.2 1.73-16.56 3.1-25.07 4.11 8.51-1.01 16.86-2.38 25.07-4.11zm.67 63.02c-.06.01-.13.02-.19.04.06-.01.13-.02.19-.04zm-6.15 1.14c-.07.01-.14.02-.21.04.07-.01.14-.02.21-.04zm-6.16.93c-.17.02-.33.05-.5.07.17-.02.33-.05.5-.07zm-6.35.74c-.23.02-.47.05-.7.07.23-.02.47-.05.7-.07zm-6.5.54c-.28.02-.56.04-.84.06zm-29.64-60.01c.31 0 .62 0 .93-.01-.31 0-.62.01-.93.01zm3.34 60.71c-.73.02-1.45.03-2.17.05.72-.02 1.45-.03 2.17-.05zm-.46-60.78c.34-.01.67-.03 1.01-.04-.34.02-.68.03-1.01.04zm3-.16.9-.06c-.3.02-.6.04-.9.06zm-8.37.2c-.1 0-.21 0-.31 0zm-3.09-.13c-.27-.02-.55-.04-.82-.06.27.02.55.04.82.06zm-2.79-.22c-.32-.03-.64-.06-.96-.1.32.03.64.07.96.1zm-2.85-.32c-.29-.04-.59-.07-.88-.11.29.04.59.08.88.11zm-3.37-.5c-.08-.01-.15-.02-.23-.04.08.01.15.02.23.04zm-2.92-.55c-.27-.06-.55-.12-.82-.18.27.06.55.12.82.18zm-2.71-.61c-.31-.08-.63-.15-.94-.23.31.08.62.16.94.23zm-2.79-.73c-.28-.08-.57-.15-.85-.24.28.08.57.16.85.24zm-3.35-1s-.09-.03-.14-.04c.05.02.09.03.14.04zm-2.77-.94c-.27-.1-.54-.2-.81-.3zm-2.65-.99c-.3-.12-.6-.24-.91-.36.3.12.6.24.91.36zm-2.73-1.13c-.27-.11-.54-.23-.8-.35.27.12.54.23.8.35zm-4 65.74c-1.18-.16-2.35-.33-3.53-.5 1.17.17 2.35.34 3.53.5zm-5.47-.78c-1.34-.21-2.67-.43-4.01-.66 1.33.23 2.67.45 4.01.66zm-5.39-.9c-1.79-.32-3.57-.66-5.35-1.01 1.78.36 3.56.69 5.35 1.01zm-6.52-1.26c-1.39-.29-2.77-.58-4.15-.89 1.38.31 2.77.6 4.15.89zm-6.03-1.32c-1.15-.27-2.3-.54-3.45-.82 1.15.28 2.3.55 3.45.82zm-5.45-1.32c-1.12-.28-2.23-.58-3.35-.88 1.11.3 2.23.59 3.35.88zm-30.51-98.79c2.41 2.45 4.81 4.83 7.15 7.19-2.34-2.36-4.75-4.74-7.15-7.19zm-8.97-9.7c-.1-.12-.2-.23-.31-.35.1.12.2.23.31.35zm.11 74.99c.04 1.1.14 2.18.31 3.24.11.67.25 1.33.42 1.99-.16-.66-.31-1.32-.42-1.99-.17-1.06-.28-2.14-.31-3.24zm5.65 15.18c-.85-1.1-1.59-2.22-2.24-3.36.66 1.14 1.4 2.26 2.24 3.36 1.08 1.39 2.31 2.75 3.69 4.07 1.03.98 2.15 1.94 3.36 2.88-1.2-.94-2.33-1.9-3.36-2.88-1.38-1.32-2.61-2.67-3.69-4.07zm23.19 15.41c-1.73-.52-3.45-1.05-5.16-1.6 1.71.55 3.44 1.09 5.16 1.6zm5.22 1.5c-1.19-.33-2.37-.67-3.55-1.02 1.18.35 2.36.69 3.55 1.02zm66.03 9.23h3.02c-.4 0-.8.02-1.2.02-.61 0-1.21-.01-1.82-.02zm-29.8-1.97c1.17.15 2.34.28 3.51.41-1.17-.13-2.34-.27-3.51-.41zm5.52.64c1.28.13 2.57.25 3.86.36-1.29-.11-2.57-.23-3.86-.36zm5.51.51c1.84.15 3.67.28 5.52.39-1.85-.11-3.68-.24-5.52-.39zm6.13.42c1.64.09 3.28.17 4.93.23-1.65-.06-3.29-.14-4.93-.23zm6.79.29c1.24.04 2.49.07 3.74.09-1.25-.02-2.49-.05-3.74-.09zm22.75-.32s.01 0 .02 0h.01s0 0-.01 0c0 0-.01 0-.02 0zm5.5.07c-.2 0-.41 0-.61 0h1.06c-.15 0-.3 0-.45 0zm7.24-.13c-.3.01-.61.02-.91.03.3 0 .61-.02.91-.03zm66.93-14.83c.25-.11.49-.22.74-.33-.25.11-.49.22-.74.33zm5.65-2.63c.22-.11.43-.21.65-.32-.22.11-.43.22-.65.32zm5.58-2.84c.17-.09.34-.19.51-.28-.17.09-.34.19-.51.28zm5.49-3.05c.1-.06.2-.12.31-.18-.1.06-.2.12-.31.18zm34.66-38.89c.69-1.45 1.33-2.92 1.92-4.4-.59 1.48-1.23 2.95-1.92 4.4zm5.55-16.13c.24-1.05.46-2.11.65-3.17-.19 1.06-.42 2.12-.65 3.17zm.82-38.36c.34 3.33.51 6.69.51 10.09.34 2.9.54 5.77.6 8.6.02.94.03 1.88.02 2.81 0-.93 0-1.87-.02-2.81-.06-2.83-.26-5.69-.6-8.6 0-3.39-.17-6.75-.51-10.09-.23-2.22-.53-4.43-.9-6.62.38 2.19.68 4.4.9 6.62zm-83.68-114.37c-2.04-2.23-4.01-4.49-5.91-6.79 1.9 2.29 3.87 4.56 5.91 6.79zm-11.76-47.89c.24-.12.48-.25.73-.37-.24.12-.48.24-.73.37zm-2.03 1.1c.21-.12.42-.23.63-.35-.21.12-.42.23-.63.35zm26.05-7.26c-.26 0-.52.02-.77.04.26-.01.51-.03.77-.04zm-2.31.12c-.27.02-.54.04-.81.06zm-2.36.22c-.23.03-.47.05-.7.08.23-.03.47-.05.7-.08zm-2.82.38s-.07.01-.11.02c.04 0 .07-.01.11-.02zm-2.32.43c-.21.04-.43.09-.64.14.21-.05.43-.1.64-.14zm-2.18.49c-.25.06-.5.13-.75.19.25-.07.5-.13.75-.19zm-2.21.6c-.24.07-.48.14-.73.21.24-.07.48-.14.73-.21zm-2.35.74c-.17.06-.33.11-.5.17.17-.06.33-.11.5-.17zm-2.6.95c-.15.06-.31.13-.46.19.15-.06.31-.13.46-.19zm-2.07.88c-.23.11-.47.22-.7.32.23-.11.47-.22.7-.32zm27.76-4.73c1.11.07 2.23.15 3.36.26-1.13-.12-2.25-.2-3.36-.26zm-3.87-.12c.99 0 1.99.03 3 .08-1.01-.05-2.01-.08-3-.08zm13.65.58c2.16.13 4.35.34 6.53.64-2.18-.3-4.37-.51-6.53-.64zm35.26 12.52c-3.21-1.92-6.45-3.81-9.72-5.62 3.27 1.81 6.51 3.7 9.72 5.62zm19.53 12.6c3.75 2.61 7.44 5.29 11.06 8.03-3.61-2.74-7.3-5.42-11.06-8.03zm12.81 9.07c.14.08.27.16.41.23-.14-.08-.27-.15-.41-.23zm2.07 1.12c.07.03.13.06.2.1-.07-.03-.13-.06-.2-.1zm1.65.78c.12.05.24.11.36.16-.12-.05-.24-.11-.36-.16zm1.87.77c.09.03.18.06.28.1-.09-.03-.18-.06-.28-.1zm1.55.53c.09.03.19.06.28.09-.09-.03-.19-.06-.28-.09zm1.66.42c.1.02.19.04.29.06-.1-.02-.19-.04-.29-.06zm1.47.24c.06 0 .12.02.19.02-.06 0-.12-.02-.19-.02zm1.41.1h.33c-.07 0-.13 0-.2 0-.04 0-.09 0-.13 0zm2.22-.2c-.08.02-.16.03-.24.04.08-.01.16-.02.24-.04zm-.92.14c-.11.01-.22.02-.33.03.11 0 .22-.02.33-.03zm4.98-2.32s.02-.02.03-.02c0 0-.02.02-.03.02zm-3.2 1.95c.06-.02.11-.04.17-.06-.06.02-.11.04-.17.06zm.82-.31c.09-.04.18-.08.26-.13-.09.04-.17.09-.26.13zm.78-.4c.09-.05.18-.1.26-.16-.09.06-.17.11-.26.16zm.75-.51c.07-.06.15-.11.22-.17-.07.06-.15.11-.22.17zm4.16-7.76c.03-.15.06-.3.09-.46-.03.16-.06.31-.09.46zm.24-1.37c.02-.14.04-.28.06-.42-.02.14-.04.28-.06.42z"/><path d="m1126.91 817.68c-.43-.44-.9-.84-1.42-1.17-25.05-16.21-53.73-24.44-85.25-24.44v8c.45 0 .89.02 1.34.02-1.27-.01-2.55 0-3.84.01.83-.01 1.67-.04 2.49-.04v-8c-3.38 0-6.82.1-10.25.29-28.1.02-56.19 2.93-83.5 8.66-6.59.66-13.42 1.42-20.03 2.16-7.88.88-16.04 1.8-24.07 2.56-5.93.59-10.93 2.72-16.25 6.93-.19.15-.37.31-.54.47-7.14 6.78-6.41 13.56-4.38 18.22 1.52 4.61 3.8 8.73 6.77 12.27.58.69 1.27 1.27 2.04 1.73 3.47 2.06 6.3 4.22 8.73 6.69v15.85c-.55 19.68-2.1 40.78-4.77 64.48-4.71 42.83-11.25 85.78-19.44 127.69-4.31 6.33-5.89 12.95-4.7 19.73v26.87c0 .77.11 1.53.33 2.26 5.11 17.31 18.28 28.32 39.14 32.72.54.11 1.1.17 1.65.17.3 0 .6-.02.9-.05 15.69-1.77 26.36-8.81 31.71-20.91.07-.15.13-.3.18-.45 2.95-7.93 5.48-16.62 7.54-25.82.07-.32.12-.64.15-.97 1.17-12.08 2.39-24.56 4.17-36.78 0-.05.01-.1.02-.15.62-4.89 1.08-9.79 1.53-14.54.44-4.62.89-9.4 1.48-14.04 0-.04.01-.09.02-.13 1.18-10.76 2.39-22.17 3.55-33.2v-.07c7.66 4.79 16.27 8.35 25.77 10.63.06.01.12.03.19.04 13.55 2.92 28.08 4.47 42.03 4.47h.11c37.48-.49 69.78-12.03 96-34.29.09-.08.18-.16.27-.24 22.21-20.67 33.8-44.83 34.46-71.81 1.29-32.03-10.2-60.91-34.14-85.83zm13.39 31.12c.75 1.34 1.45 2.69 2.13 4.05-.68-1.36-1.38-2.71-2.13-4.05-.9-1.61-1.84-3.21-2.83-4.8.99 1.59 1.94 3.19 2.83 4.8zm-12.03-17.54c-2.23-2.71-4.6-5.39-7.14-8.03-1.58-1.02-3.17-2-4.78-2.96 1.61.95 3.2 1.94 4.78 2.96 2.54 2.64 4.91 5.32 7.14 8.03zm-143.28 25.39c4.03-.85 8.13-1.61 12.16-2.34-4.03.73-8.13 1.49-12.16 2.34-2.01.42-4.01.87-5.97 1.35-2.26 3.93-4.52 8.13-7.03 12.19-.84 1.35-1.7 2.69-2.61 4-2.71 17.86-5.42 35.73-7.88 53.59 2.46-17.86 5.17-35.73 7.88-53.59.9-1.31 1.77-2.65 2.61-4 2.51-4.06 4.77-8.26 7.03-12.19 1.96-.48 3.95-.92 5.97-1.35zm82.08-54.37c3.74.63 7.42 1.4 11.06 2.3-3.63-.9-7.32-1.67-11.06-2.3zm12.74 2.76c1.25.33 2.49.66 3.72 1.01-1.23-.36-2.48-.69-3.72-1.01zm-18.37-3.6c1.3.17 2.59.37 3.87.57-1.29-.2-2.57-.4-3.87-.57zm-11.5-1.07c1.15.07 2.29.15 3.43.24-1.14-.09-2.28-.17-3.43-.24zm5.79.44c1.18.11 2.36.24 3.53.38-1.17-.14-2.35-.27-3.53-.38zm13.66 65.99c.38.28.78.53 1.2.74 8.62 4.3 12.88 10.09 13.03 17.67-1.66 14.13-6.96 27.24-15.75 38.99-12.33 9.11-26.83 15.07-43.12 17.74h-38.68c-5.84-.63-11.71-1.5-18.03-2.67 2.72-20.73 5.89-41.7 8.99-62.09 2.52-3.81 4.7-7.7 6.83-11.48.13-.23.26-.47.39-.7 5.4-1.2 11.06-2.22 16.57-3.22 1.25-.23 2.5-.45 3.73-.68.47-.09.93-.21 1.37-.38 7.39-2.77 15.47-4.12 24.69-4.12 2.56 0 5.26.11 8.03.31.2.02.4.02.6.02 11.38 0 21.25 3.22 30.15 9.85zm-66.28-13.56c.98-.37 1.97-.7 2.96-1.02-.99.32-1.98.65-2.96 1.02zm24.13-4.57c1.03-.04 2.06-.05 3.1-.06-1.04 0-2.07.02-3.1.06zm-20.47 3.32c.98-.3 1.96-.59 2.95-.85-.99.26-1.97.55-2.95.85zm3.25-.92c.92-.24 1.83-.45 2.76-.65-.92.2-1.84.41-2.76.65zm3.45-.8c.99-.2 1.99-.39 2.99-.56-1 .16-2 .35-2.99.56zm3.48-.63c.89-.14 1.78-.26 2.68-.37-.9.11-1.79.23-2.68.37zm3.34-.46c1.01-.11 2.02-.21 3.04-.29-1.02.08-2.03.18-3.04.29zm3.66-.33c.9-.06 1.8-.11 2.71-.15-.91.04-1.81.09-2.71.15zm52.03 77.78c-.34.48-.68.95-1.02 1.43.35-.47.69-.95 1.02-1.43zm8.6-15.03c-.82 1.82-1.7 3.62-2.65 5.4.95-1.78 1.83-3.58 2.65-5.4zm2.92 78.78c-1.3.56-2.61 1.09-3.93 1.61 1.32-.52 2.63-1.05 3.93-1.61zm3.5-181.93c1.04.37 2.09.74 3.12 1.13-1.03-.39-2.08-.76-3.12-1.13zm-5.44-1.78c1.1.34 2.21.68 3.3 1.05-1.09-.36-2.2-.71-3.3-1.05zm-38.07-6.42c-1.14-.05-2.28-.09-3.42-.11 1.15.03 2.29.06 3.42.11zm67.27 19.11c-1.09-.63-2.18-1.25-3.28-1.85 1.1.6 2.19 1.22 3.28 1.85zm-5.2-2.86c-1.01-.53-2.02-1.05-3.04-1.55 1.02.5 2.03 1.03 3.04 1.55zm-5.12-2.54c-1-.47-1.99-.93-3-1.38 1.01.45 2 .91 3 1.38zm-5.13-2.29c-1.01-.43-2.02-.84-3.03-1.24 1.01.4 2.02.82 3.03 1.24zm-64.13 37.04c1.35.06 2.7.13 4.06.23-1.36-.1-2.71-.18-4.06-.23zm-4.22-.09c1.27 0 2.54.03 3.82.08-1.28-.05-2.55-.07-3.82-.08zm4.99-48.48c-1.91.05-3.82.12-5.75.22 1.93-.11 3.84-.18 5.75-.22zm-147.11 21.51c.33-.55.74-1.1 1.21-1.63-.48.54-.88 1.08-1.21 1.63-.22.37-.41.74-.56 1.12.15-.38.34-.75.56-1.12zm-.89 2.28c-.07.39-.11.8-.11 1.21 0-.41.03-.82.11-1.21zm-8.2 287.85c-.74-1.62-1.37-3.33-1.89-5.11.53 1.79 1.16 3.49 1.89 5.11 1.83 4.03 4.3 7.55 7.43 10.57-3.13-3.02-5.61-6.54-7.43-10.57zm7.49 10.63c.63.61 1.29 1.19 1.98 1.76 2.52 2.08 5.43 3.87 8.69 5.39-3.26-1.53-6.17-3.32-8.69-5.39-.69-.57-1.35-1.15-1.98-1.76zm23.73 11.41c6.32-.71 11.59-2.38 15.81-5.06-4.22 2.68-9.48 4.35-15.81 5.06zm32.52-40.97c-1.81 8.1-4.22 16.67-7.23 24.77-.79 1.79-1.73 3.42-2.82 4.91-1.45 1.98-3.16 3.71-5.14 5.17 1.98-1.47 3.69-3.19 5.14-5.17 1.09-1.49 2.03-3.12 2.82-4.91 3.01-8.1 5.42-16.67 7.23-24.77.9-9.29 1.81-18.58 2.96-27.87-1.16 9.29-2.06 18.58-2.96 27.87zm10.84-99.56c-.3 2.86-.6 5.72-.9 8.57-.9 8.55-1.81 17.04-2.71 25.26-.9 7.15-1.47 14.29-2.2 21.44.73-7.15 1.3-14.29 2.2-21.44.9-8.22 1.81-16.7 2.71-25.26.3-2.85.6-5.71.9-8.57.3-2.14.6-4.41.83-6.73-.23 2.32-.53 4.59-.83 6.73zm119.89 1.97c-2.9.9-5.86 1.7-8.86 2.42-7.01 1.67-14.31 2.84-21.88 3.52-2.16.19-4.35.35-6.56.46s-4.45.18-6.7.21c-8.28 0-16.79-.56-25.25-1.67 8.46 1.12 16.97 1.67 25.25 1.67 2.26-.03 4.49-.1 6.7-.21s4.4-.26 6.56-.46c7.58-.68 14.87-1.85 21.88-3.52 3.01-.71 5.96-1.52 8.86-2.42 1.94-.6 3.85-1.23 5.74-1.91-1.89.68-3.8 1.31-5.74 1.91zm24.79-10.49c2.6-1.43 5.16-2.96 7.67-4.57-2.51 1.61-5.06 3.13-7.67 4.57zm25.85-18.91c-1.2 1.21-2.45 2.42-3.73 3.61-.77.66-1.55 1.3-2.33 1.94-1.56 1.27-3.15 2.5-4.76 3.7-1.61 1.19-3.24 2.35-4.89 3.46 1.65-1.11 3.28-2.27 4.89-3.46s3.19-2.42 4.76-3.7c.78-.64 1.56-1.28 2.33-1.94 1.28-1.19 2.52-2.39 3.73-3.61 1.2-1.21 2.37-2.44 3.5-3.67-1.13 1.24-2.29 2.46-3.5 3.67zm6.77-7.41c1.05-1.26 2.07-2.53 3.04-3.81-.98 1.28-1.99 2.55-3.04 3.81zm10.8-15.67c-.75 1.35-1.53 2.69-2.35 4.02.82-1.33 1.61-2.67 2.35-4.02.75-1.35 1.45-2.72 2.12-4.09-.67 1.38-1.37 2.74-2.12 4.09zm3.09-6.17c.63-1.39 1.22-2.79 1.77-4.2-.55 1.41-1.14 2.81-1.77 4.2zm6.5-21.76c-.59 3.78-1.43 7.49-2.52 11.11 1.08-3.63 1.92-7.33 2.52-11.11.24-1.51.43-3.04.59-4.58-.16 1.54-.35 3.07-.59 4.58z"/></svg>